<svg width="891" height="66" viewBox="0 0 891 66" fill="none" xmlns="http://www.w3.org/2000/svg">
<path d="M831.398 52.2503V5.41961H834.92V1.21123H821.135C818.474 1.21123 815.81 2.09368 813.145 3.86178C810.484 5.62669 809.152 9.52287 809.152 15.5503C809.152 20.6412 810.51 24.2251 813.225 26.3023C813.591 26.5635 814.503 27.0541 815.967 27.7836C816.488 28.0958 817.01 28.3284 817.532 28.4845C813.302 30.0423 811.006 33.706 810.641 39.4722L810.171 46.8727C810.014 49.004 809.726 50.4439 809.309 51.199C808.89 51.9508 807.951 52.3012 806.488 52.2503V56.379C808.108 57.3156 809.7 57.6533 811.266 57.3921C814.349 56.7709 816.149 53.7826 816.671 48.4337L817.532 38.7713C817.795 35.7034 818.487 33.4575 819.607 32.0303C820.731 30.5999 822.518 30.0423 824.974 30.3545V52.2503H821.372V56.379H834.92V52.2503H831.398ZM27.2409 52.4828V5.65217H30.7633V1.44697H4.49906V5.65217H8.02146L7.53153 42.9542C7.44507 49.6411 5.93364 52.2184 3.14774 52.4828H0V66H3.99312L4.54389 63.394C5.33163 59.6412 5.07866 56.5956 9.94597 56.602L22.9148 56.6148C27.02 56.8282 26.9752 59.74 27.7437 63.394L28.2913 66H32.3644V52.4828H27.2409ZM12.6838 52.4828C13.478 50.7179 13.9935 48.182 14.032 44.5121L14.445 5.65217H20.8174V52.4828H12.6838ZM564.384 52.4828V5.65217H567.91V1.44697H541.642V5.65217H545.168L544.675 42.9542C544.579 50.4376 542.699 52.4159 539.244 52.126V56.2548C540.861 57.1914 542.462 57.5641 544.021 57.2678C547.108 56.6816 551.073 54.2987 551.175 44.5121L551.588 5.65217H557.961V52.4828H554.358V56.6148H567.91V52.4828H564.384ZM58.9681 18.8221H54.8982C54.8982 18.4048 54.8854 17.9779 54.8565 17.5351C54.8309 17.0954 54.8053 16.6653 54.7797 16.2512C54.7541 15.8339 54.7156 15.4197 54.6612 15.0024C54.6612 14.2251 54.61 13.4445 54.5043 12.6672C54.4018 11.8867 54.2962 11.1062 54.1905 10.3289C53.9823 8.71687 53.6973 7.60186 53.3291 6.97745C52.4421 5.73182 51.0844 5.10741 49.2591 5.10741H44.7152V24.6648H48.0039V18.8221H52.3909V35.0281H48.0039V29.1089H44.7152V52.1738H49.4929C51.4782 52.1738 52.8616 51.6673 53.6429 50.6542C54.4274 49.6411 54.8982 48.147 55.0519 46.1718C55.2088 44.1998 55.3401 41.2371 55.4457 37.2899H59.8327V56.379H34.6892V52.2503H38.2917V5.41961H34.6892V1.21123H58.9681V18.8221ZM82.1519 56.379H69.0742V52.2503H72.5966V5.26351C70.6145 4.84936 69.1255 5.55023 68.1328 7.36611C67.8734 7.83442 67.6781 8.53529 67.5468 9.4719C67.4155 10.4053 67.297 11.291 67.1945 12.1193C67.1945 12.4315 67.1529 12.8615 67.076 13.4063C66.9992 13.9511 66.932 14.4576 66.8807 14.9259C66.7238 16.3277 66.647 17.7835 66.647 19.2904H62.6506V1.21123H88.6555V19.2904H84.5824C84.4767 17.3152 84.371 15.8625 84.2686 14.9259C84.2686 14.4576 84.2429 13.9893 84.1885 13.5242C84.1373 13.0559 84.086 12.5876 84.0316 12.1193C83.9291 9.7841 83.6153 8.1976 83.0934 7.36611C82.0494 5.55023 80.586 4.84936 78.7064 5.26351V52.2503H82.1519V56.379ZM115.442 1.75599V19.0547H111.445C111.186 15.0565 110.622 11.6 109.761 8.69139C108.9 5.78279 107.321 4.35557 105.025 4.40654C103.456 4.45752 102.242 5.27626 101.381 6.85958C100.52 8.44608 99.9336 10.3289 99.6198 12.5111C99.306 14.6934 99.1363 17.3407 99.1107 20.4596C99.085 23.5753 99.0722 26.2258 99.0722 28.4049C99.0722 44.4069 101.343 52.3809 105.886 52.3267C107.504 52.2248 108.98 50.874 110.312 48.2776C111.641 45.678 112.332 42.1196 112.387 37.6021H116.928C116.876 45.3404 115.637 50.5618 113.21 53.2633C110.779 55.9649 108.234 57.3921 105.573 57.5482C96.6418 57.7553 91.9442 48.0419 91.4735 28.4049C91.3166 20.4054 92.0082 14.2888 93.5485 10.0549C95.0887 5.82102 96.9044 3.04304 98.9922 1.71776C101.08 0.392488 103.091 -0.16502 105.025 0.0420541C107.584 0.303286 109.723 1.54892 111.445 3.78213L112.387 1.75599H115.442ZM138.859 56.379H125.778V52.2503H129.304V5.26351C127.319 4.84936 125.833 5.55023 124.84 7.36611C124.578 7.83442 124.382 8.53529 124.251 9.4719C124.123 10.4053 124.004 11.291 123.899 12.1193C123.899 12.4315 123.86 12.8615 123.783 13.4063C123.703 13.9511 123.639 14.4576 123.585 14.9259C123.431 16.3277 123.351 17.7835 123.351 19.2904H119.358V1.21123H145.36V19.2904H141.287C141.184 17.3152 141.078 15.8625 140.973 14.9259C140.973 14.4576 140.947 13.9893 140.896 13.5242C140.845 13.0559 140.79 12.5876 140.739 12.1193C140.633 9.7841 140.323 8.1976 139.798 7.36611C138.754 5.55023 137.293 4.84936 135.414 5.26351V52.2503H138.859V56.379ZM151.703 52.2503V5.41961H148.101V1.21123H162.357C163.401 1.21123 164.707 1.45972 166.273 1.95351C167.839 2.44412 169.392 3.69293 170.932 5.69359C172.473 7.69106 173.244 10.5869 173.244 14.3812C173.244 17.0827 172.786 19.3924 171.874 21.3166C170.958 23.2376 169.04 24.9515 166.116 26.4584C168.204 27.0286 170.177 28.4335 172.027 30.6668C173.882 32.9 174.73 36.5891 174.573 41.7309C174.416 47.7552 173.139 51.7055 170.737 53.5755C168.335 55.4456 165.985 56.379 163.689 56.379H148.101V52.2503H151.703ZM158.284 52.0177C161.781 52.537 164.144 51.9253 165.37 50.1859C166.6 48.4465 167.211 45.471 167.211 41.2626C167.211 40.3292 167.16 38.9242 167.055 37.0542C166.846 34.2507 166.404 32.3807 165.722 31.4441C165.149 30.5106 164.198 29.7843 162.866 29.265C161.534 28.7426 160.007 28.6406 158.284 28.9528V52.0177ZM158.284 24.3558C161.835 25.1841 164.131 24.5087 165.175 22.3296C166.219 20.1474 166.689 16.8214 166.587 12.355C166.481 9.54836 165.684 7.4585 164.198 6.08225C162.709 4.706 160.737 4.3269 158.284 4.95131V24.3558ZM177.628 28.7967C177.628 17.5765 179.104 9.97843 182.053 6.00261C185.006 2.02997 188.045 0.0420541 191.18 0.0420541C194.363 0.0420541 197.43 2.01722 200.383 5.96438C203.332 9.91153 204.808 17.5223 204.808 28.7967C204.808 40.1731 203.332 47.8093 200.383 51.7055C197.43 55.6017 194.363 57.5482 191.18 57.5482C188.045 57.5482 185.006 55.5889 182.053 51.6673C179.104 47.7424 177.628 40.1221 177.628 28.7967ZM184.836 28.7967C184.836 33.9895 184.926 38.1087 185.108 41.1479C185.291 44.1839 185.838 47.0415 186.754 49.7176C187.667 52.3936 189.169 53.7316 191.257 53.7316C194.18 53.6775 195.97 51.3678 196.623 46.7962C197.277 42.2247 197.6 36.2259 197.6 28.7967C197.6 21.3675 197.277 15.3687 196.623 10.7972C195.97 6.22561 194.18 3.93824 191.257 3.93824C189.169 3.93824 187.654 5.27626 186.716 7.95229C185.774 10.6283 185.227 13.47 185.07 16.4838C184.913 19.4975 184.836 23.6007 184.836 28.7967ZM245.742 1.21123L232.347 38.2234V5.73182C232.347 5.62669 232.83 5.57572 233.798 5.57572C234.765 5.57572 235.559 5.6012 236.186 5.65217V1.44697H224.124V5.65217H227.726V52.4828H224.124V56.6148H232.113L246.132 19.2904V52.2503H242.53V56.379H254.436V52.2503H250.833V5.41961H254.436V1.21123H245.742ZM286.445 24.5087C286.784 15.6172 288.235 9.4496 290.793 6.00261C293.742 2.02997 296.784 0.0420541 299.916 0.0420541C303.102 0.0420541 306.17 2.01722 309.119 5.96438C312.068 9.91153 313.545 17.5223 313.545 28.7967C313.545 40.1731 312.068 47.8093 309.119 51.7055C306.17 55.6017 303.102 57.5482 299.916 57.5482C296.784 57.5482 293.742 55.5889 290.793 51.6673C287.863 47.7711 286.387 40.224 286.368 29.0293H282.983V52.2503H286.505V56.379H272.957V52.2503H276.559V5.41961H272.957V1.21123H286.505V5.41961H282.983V24.5087H286.445ZM293.573 28.7967C293.573 33.9895 293.662 38.1087 293.845 41.1479C294.031 44.1839 294.578 47.0415 295.491 49.7176C296.403 52.3936 297.905 53.7316 299.996 53.7316C302.92 53.6775 304.707 51.3678 305.36 46.7962C306.013 42.2247 306.34 36.2259 306.34 28.7967C306.34 21.3675 306.013 15.3687 305.36 10.7972C304.707 6.22561 302.92 3.93824 299.996 3.93824C297.905 3.93824 296.391 5.27626 295.452 7.95229C294.511 10.6283 293.963 13.47 293.806 16.4838C293.649 19.4975 293.573 23.6007 293.573 28.7967ZM337.356 24.5087V5.41961H333.83V1.21123H347.379V5.41961H343.856V52.2503H347.379V56.379H333.83V52.2503H337.356V29.0293H326.702V52.2503H330.228V56.379H316.599V52.2503H320.202V5.41961H316.599V1.21123H330.228V5.41961H326.702V24.5087H337.356ZM350.434 28.7967C350.434 17.5765 351.91 9.97843 354.859 6.00261C357.812 2.02997 360.85 0.0420541 363.985 0.0420541C367.172 0.0420541 370.236 2.01722 373.188 5.96438C376.138 9.91153 377.614 17.5223 377.614 28.7967C377.614 40.1731 376.138 47.8093 373.188 51.7055C370.236 55.6017 367.172 57.5482 363.985 57.5482C360.85 57.5482 357.812 55.5889 354.859 51.6673C351.91 47.7424 350.434 40.1221 350.434 28.7967ZM357.642 28.7967C357.642 33.9895 357.731 38.1087 357.914 41.1479C358.096 44.1839 358.644 47.0415 359.56 49.7176C360.473 52.3936 361.974 53.7316 364.062 53.7316C366.986 53.6775 368.776 51.3678 369.429 46.7962C370.082 42.2247 370.406 36.2259 370.406 28.7967C370.406 21.3675 370.082 15.3687 369.429 10.7972C368.776 6.22561 366.986 3.93824 364.062 3.93824C361.974 3.93824 360.46 5.27626 359.521 7.95229C358.58 10.6283 358.032 13.47 357.876 16.4838C357.719 19.4975 357.642 23.6007 357.642 28.7967ZM404.714 1.75599V19.0547H400.718C400.458 15.0565 399.895 11.6 399.033 8.69139C398.172 5.78279 396.593 4.35557 394.297 4.40654C392.728 4.45752 391.514 5.27626 390.653 6.85958C389.792 8.44608 389.206 10.3289 388.892 12.5111C388.578 14.6934 388.408 17.3407 388.383 20.4596C388.357 23.5753 388.344 26.2258 388.344 28.4049C388.344 44.4069 390.615 52.3809 395.159 52.3267C396.776 52.2248 398.252 50.874 399.584 48.2776C400.913 45.678 401.604 42.1196 401.659 37.6021H406.2C406.148 45.3404 404.909 50.5618 402.482 53.2633C400.051 55.9649 397.506 57.3921 394.845 57.5482C385.914 57.7553 381.216 48.0419 380.746 28.4049C380.589 20.4054 381.28 14.2888 382.821 10.0549C384.361 5.82102 386.176 3.04304 388.264 1.71776C390.352 0.392488 392.363 -0.16502 394.297 0.0420541C396.856 0.303286 398.995 1.54892 400.718 3.78213L401.659 1.75599H404.714ZM428.131 56.379H415.051V52.2503H418.576V5.26351C416.591 4.84936 415.105 5.55023 414.112 7.36611C413.85 7.83442 413.654 8.53529 413.523 9.4719C413.395 10.4053 413.276 11.291 413.171 12.1193C413.171 12.4315 413.132 12.8615 413.056 13.4063C412.975 13.9511 412.911 14.4576 412.857 14.9259C412.703 16.3277 412.623 17.7835 412.623 19.2904H408.63V1.21123H434.632V19.2904H430.559C430.456 17.3152 430.35 15.8625 430.245 14.9259C430.245 14.4576 430.219 13.9893 430.168 13.5242C430.117 13.0559 430.062 12.5876 430.011 12.1193C429.905 9.7841 429.595 8.1976 429.073 7.36611C428.026 5.55023 426.566 4.84936 424.686 5.26351V52.2503H428.131V56.379ZM447.399 24.5883V5.33997H450.924V1.21123H437.373V5.33997H440.975V52.1738H437.373V56.379H448.417C451.29 56.379 453.73 56.1337 455.741 55.6399C457.752 55.1461 459.606 53.7189 461.303 51.3551C462.997 48.9912 463.845 45.3404 463.845 40.4056C463.845 29.8608 459.721 24.5883 451.472 24.5883H447.399ZM447.399 28.9528C451.21 28.0704 453.678 28.8095 454.799 31.1733C455.923 33.5371 456.483 36.691 456.483 40.6414C456.589 44.7956 456.054 47.9909 454.879 50.2241C453.704 52.4573 451.21 53.2124 447.399 52.4828V28.9528ZM486.04 52.2503V5.41961H482.437V1.21123H496.693C497.737 1.21123 499.044 1.45972 500.609 1.95351C502.175 2.44412 503.728 3.69293 505.269 5.69359C506.809 7.69106 507.581 10.5869 507.581 14.3812C507.581 17.0827 507.123 19.3924 506.21 21.3166C505.294 23.2376 503.376 24.9515 500.453 26.4584C502.54 27.0286 504.513 28.4335 506.367 30.6668C508.218 32.9 509.066 36.5891 508.913 41.7309C508.756 47.7552 507.475 51.7055 505.073 53.5755C502.672 55.4456 500.321 56.379 498.025 56.379H482.437V52.2503H486.04ZM492.62 52.0177C496.117 52.537 498.48 51.9253 499.71 50.1859C500.936 48.4465 501.548 45.471 501.548 41.2626C501.548 40.3292 501.497 38.9242 501.391 37.0542C501.183 34.2507 500.741 32.3807 500.062 31.4441C499.486 30.5106 498.534 29.7843 497.202 29.265C495.87 28.7426 494.343 28.6406 492.62 28.9528V52.0177ZM492.62 24.3558C496.171 25.1841 498.467 24.5087 499.511 22.3296C500.558 20.1474 501.026 16.8214 500.923 12.355C500.818 9.54836 500.02 7.4585 498.534 6.08225C497.045 4.706 495.073 4.3269 492.62 4.95131V24.3558ZM536.247 18.8221H532.173C532.173 18.4048 532.161 17.9779 532.135 17.5351C532.109 17.0954 532.081 16.6653 532.055 16.2512C532.029 15.8339 531.991 15.4197 531.94 15.0024C531.94 14.2251 531.885 13.4445 531.783 12.6672C531.677 11.8867 531.571 11.1062 531.469 10.3289C531.261 8.71687 530.973 7.60186 530.608 6.97745C529.721 5.73182 528.363 5.10741 526.534 5.10741H521.99V24.6648H525.279V18.8221H529.666V35.0281H525.279V29.1089H521.99V52.1738H526.768C528.753 52.1738 530.137 51.6673 530.921 50.6542C531.703 49.6411 532.173 48.147 532.33 46.1718C532.487 44.1998 532.618 41.2371 532.721 37.2899H537.108V56.379H511.964V52.2503H515.57V5.41961H511.964V1.21123H536.247V18.8221ZM593.031 1.21123L579.636 38.2234V5.73182C579.636 5.62669 580.12 5.57572 581.087 5.57572C582.051 5.57572 582.848 5.6012 583.476 5.65217V1.44697H571.413V5.65217H575.015V52.4828H571.413V56.6148H579.402L593.421 19.2904V52.2503H589.819V56.379H601.725V52.2503H598.122V5.41961H601.725V1.21123H593.031ZM618.485 56.379H605.013V52.2503H608.616V5.41961H605.013V1.21123H618.485V5.41961H614.959V24.5883C616.788 24.8464 618.12 24.1997 618.956 22.6386C619.58 21.6001 619.948 19.8607 620.051 17.4204C620.313 12.7946 620.547 9.54836 620.755 7.67832C620.967 5.80828 621.578 4.06885 622.597 2.45686C623.615 0.848051 625.299 0.0420541 627.65 0.0420541C630 -0.00891808 631.71 0.873537 632.779 2.69261C633.849 4.51167 634.333 6.5633 634.227 8.84749C634.176 10.8227 633.798 12.2499 633.093 13.1323C632.389 14.018 631.566 14.4576 630.624 14.4576C629.843 14.4576 629.123 14.0562 628.473 13.2502C627.819 12.4442 627.467 11.2623 627.413 9.70446C627.31 8.92713 627.387 8.09565 627.65 7.2132C627.701 7.05709 627.781 6.87551 627.883 6.66525C627.989 6.45817 628.066 6.2511 628.12 6.04402C628.223 5.78279 628.223 5.55023 628.12 5.33997C627.909 4.97679 627.675 4.74423 627.413 4.6391C626.631 4.58813 626.071 5.12015 625.731 6.23835C625.392 7.35337 625.168 8.72962 625.065 10.3671C624.96 12.0046 624.909 13.7567 624.909 15.6268C624.909 18.4334 624.672 20.5106 624.204 21.8613C623.576 23.9384 622.452 25.4198 620.835 26.3023C621.044 26.3532 621.252 26.4329 621.463 26.5348C621.671 26.64 621.854 26.7451 622.011 26.847C622.846 27.2102 623.394 27.4969 623.653 27.704C627.361 29.8353 629.215 36.0953 629.215 46.484C629.215 48.7173 629.504 50.1731 630.077 50.8485C630.807 51.9381 631.905 52.4064 633.365 52.2503V56.379C632.008 57.3156 630.65 57.7043 629.292 57.5482C627.204 57.4462 625.507 56.4332 624.204 54.509C623.211 53.1582 622.558 50.5108 622.244 46.5605C622.244 46.4076 622.18 45.4327 622.049 43.6392C621.918 41.8488 621.802 40.3292 621.697 39.0803C621.591 35.9647 621.252 33.7569 620.678 32.4571C619.478 29.9117 617.572 28.7712 614.959 29.0293V52.2503H618.485V56.379ZM636.734 28.7967C636.734 17.5765 638.21 9.97843 641.16 6.00261C644.109 2.02997 647.151 0.0420541 650.286 0.0420541C653.469 0.0420541 656.536 2.01722 659.489 5.96438C662.438 9.91153 663.911 17.5223 663.911 28.7967C663.911 40.1731 662.438 47.8093 659.489 51.7055C656.536 55.6017 653.469 57.5482 650.286 57.5482C647.151 57.5482 644.109 55.5889 641.16 51.6673C638.21 47.7424 636.734 40.1221 636.734 28.7967ZM643.939 28.7967C643.939 33.9895 644.032 38.1087 644.214 41.1479C644.397 44.1839 644.945 47.0415 645.86 49.7176C646.773 52.3936 648.275 53.7316 650.363 53.7316C653.286 53.6775 655.076 51.3678 655.726 46.7962C656.38 42.2247 656.706 36.2259 656.706 28.7967C656.706 21.3675 656.38 15.3687 655.726 10.7972C655.076 6.22561 653.286 3.93824 650.363 3.93824C648.275 3.93824 646.76 5.27626 645.819 7.95229C644.88 10.6283 644.333 13.47 644.176 16.4838C644.019 19.4975 643.939 23.6007 643.939 28.7967ZM666.966 52.1738V56.379H680.518V52.4828H676.992V5.41961H681.77C683.755 5.41961 685.138 5.92615 685.923 6.93922C686.704 7.95229 687.175 9.44641 687.332 11.4184C687.489 13.3936 687.617 16.3531 687.722 20.3035H692.109V1.21123H666.966V5.33997H670.572V52.1738H666.966ZM695.084 28.7967C695.084 17.5765 696.56 9.97843 699.51 6.00261C702.462 2.02997 705.501 0.0420541 708.636 0.0420541C711.819 0.0420541 714.887 2.01722 717.839 5.96438C720.788 9.91153 722.264 17.5223 722.264 28.7967C722.264 40.1731 720.788 47.8093 717.839 51.7055C714.887 55.6017 711.819 57.5482 708.636 57.5482C705.501 57.5482 702.462 55.5889 699.51 51.6673C696.56 47.7424 695.084 40.1221 695.084 28.7967ZM702.292 28.7967C702.292 33.9895 702.382 38.1087 702.565 41.1479C702.747 44.1839 703.295 47.0415 704.21 49.7176C705.123 52.3936 706.625 53.7316 708.713 53.7316C711.636 53.6775 713.426 51.3678 714.08 46.7962C714.733 42.2247 715.056 36.2259 715.056 28.7967C715.056 21.3675 714.733 15.3687 714.08 10.7972C713.426 6.22561 711.636 3.93824 708.713 3.93824C706.625 3.93824 705.11 5.27626 704.172 7.95229C703.231 10.6283 702.683 13.47 702.526 16.4838C702.369 19.4975 702.292 23.6007 702.292 28.7967ZM754.638 56.379H741.167V52.2503H744.772V5.41961H741.167V1.21123H754.638V5.41961H751.116V24.5883C752.944 24.8464 754.273 24.1997 755.109 22.6386C755.737 21.6001 756.102 19.8607 756.208 17.4204C756.467 12.7946 756.704 9.54836 756.912 7.67832C757.12 5.80828 757.735 4.06885 758.753 2.45686C759.771 0.848051 761.453 0.0420541 763.803 0.0420541C766.153 -0.00891808 767.863 0.873537 768.933 2.69261C770.006 4.51167 770.486 6.5633 770.384 8.84749C770.329 10.8227 769.951 12.2499 769.247 13.1323C768.542 14.018 767.719 14.4576 766.781 14.4576C765.997 14.4576 765.279 14.0562 764.626 13.2502C763.973 12.4442 763.621 11.2623 763.569 9.70446C763.464 8.92713 763.544 8.09565 763.803 7.2132C763.854 7.05709 763.934 6.87551 764.04 6.66525C764.142 6.45817 764.223 6.2511 764.274 6.04402C764.379 5.78279 764.379 5.55023 764.274 5.33997C764.066 4.97679 763.829 4.74423 763.569 4.6391C762.785 4.58813 762.224 5.12015 761.885 6.23835C761.546 7.35337 761.325 8.72962 761.219 10.3671C761.113 12.0046 761.062 13.7567 761.062 15.6268C761.062 18.4334 760.828 20.5106 760.357 21.8613C759.73 23.9384 758.609 25.4198 756.989 26.3023C757.197 26.3532 757.408 26.4329 757.616 26.5348C757.825 26.64 758.007 26.7451 758.164 26.847C759 27.2102 759.547 27.4969 759.81 27.704C763.518 29.8353 765.369 36.0953 765.369 46.484C765.369 48.7173 765.657 50.1731 766.23 50.8485C766.964 51.9381 768.059 52.4064 769.522 52.2503V56.379C768.164 57.3156 766.807 57.7043 765.449 57.5482C763.361 57.4462 761.664 56.4332 760.357 54.509C759.365 53.1582 758.711 50.5108 758.398 46.5605C758.398 46.4076 758.334 45.4327 758.202 43.6392C758.074 41.8488 757.956 40.3292 757.85 39.0803C757.748 35.9647 757.408 33.7569 756.832 32.4571C755.631 29.9117 753.726 28.7712 751.116 29.0293V52.2503H754.638V56.379ZM793.644 24.5087V5.41961H790.122V1.21123H803.67V5.41961H800.145V52.2503H803.67V56.379H790.122V52.2503H793.644V29.0293H782.994V52.2503H786.516V56.379H772.888V52.2503H776.493V5.41961H772.888V1.21123H786.516V5.41961H782.994V24.5087H793.644ZM887.474 52.2503V5.41961H891V1.21123H877.215C874.554 1.21123 871.889 2.09368 869.225 3.86178C866.564 5.62669 865.232 9.52287 865.232 15.5503C865.232 20.6412 866.59 24.2251 869.305 26.3023C869.67 26.5635 870.583 27.0541 872.046 27.7836C872.568 28.0958 873.09 28.3284 873.612 28.4845C869.382 30.0423 867.086 33.706 866.721 39.4722L866.25 46.8727C866.093 49.004 865.805 50.4439 865.389 51.199C864.97 51.9508 864.031 52.3012 862.568 52.2503V56.379C864.188 57.3156 865.78 57.6533 867.346 57.3921C870.426 56.7709 872.229 53.7826 872.751 48.4337L873.612 38.7713C873.875 35.7034 874.566 33.4575 875.687 32.0303C876.811 30.5999 878.598 30.0423 881.054 30.3545V52.2503H877.452V56.379H891V52.2503H887.474ZM872.203 15.6268C872.203 12.1989 872.751 9.405 873.846 7.25143C874.944 5.09467 877.346 4.43203 881.054 5.26351V25.9136C875.152 26.9522 872.203 23.5243 872.203 15.6268ZM844.712 29.6537V25.2892C847.95 25.7575 850.051 24.8336 851.018 22.524C851.982 20.2111 852.465 17.1846 852.465 13.4445C852.465 10.743 852.257 8.58944 851.837 6.97745C851.421 5.36864 850.352 4.483 848.629 4.3269C847.636 4.27593 846.775 4.66459 846.041 5.49607C845.311 6.32756 844.997 7.2132 845.103 8.14662C845.26 8.71687 845.362 9.08324 845.417 9.23615C845.833 9.96569 846.041 10.3034 846.041 10.2492C846.669 11.2368 846.932 12.5111 846.826 14.0689C846.567 17.2898 845.443 18.8986 843.457 18.8986C841.632 18.7966 840.428 17.2898 839.855 14.3812C839.384 11.8867 839.541 9.52287 840.326 7.28965C841.107 5.05644 842.282 3.2756 843.851 1.95351C845.417 0.628234 847.14 -0.00891808 849.019 0.0420541C851.421 0.0420541 853.576 1.18574 855.481 3.46993C857.387 5.75731 858.418 9.05456 858.575 13.3681C858.783 19.7555 856.801 24.3271 852.622 27.0828C857.111 29.8353 859.385 34.4578 859.436 40.9504C859.593 46.2515 858.588 50.342 856.42 53.2251C854.255 56.1082 851.684 57.5482 848.706 57.5482C845.885 57.5482 843.457 56.328 841.421 53.8877C839.384 51.4443 838.395 48.1725 838.446 44.0692C838.497 41.2116 838.968 39.2492 839.855 38.1851C840.742 37.1211 841.658 36.5891 842.596 36.5891C843.432 36.5891 844.216 37.0287 844.946 37.9144C845.676 38.7968 846.07 40.224 846.122 42.1992C846.122 43.55 845.965 44.563 845.651 45.2384C845.545 45.4965 845.417 45.7449 845.26 45.9775C845.103 46.2101 844.921 46.535 844.712 46.9523C844.501 47.4175 844.344 47.9399 844.242 48.5102C844.191 49.9119 844.62 51.0683 845.532 51.9763C846.448 52.8874 847.505 53.2633 848.706 53.1072C849.698 52.9002 850.585 52.2248 851.37 51.0811C852.779 49.0549 853.378 45.8087 853.169 41.3422C853.013 38.8988 852.728 36.7707 852.308 34.9516C851.421 31.0044 848.888 29.2363 844.712 29.6537ZM816.123 15.6268C816.123 12.1989 816.671 9.405 817.769 7.25143C818.865 5.09467 821.266 4.43203 824.974 5.26351V25.9136C819.073 26.9522 816.123 23.5243 816.123 15.6268Z" fill="#333333"/>
</svg>
