<svg width="180" height="231" viewBox="0 0 180 231" fill="none" xmlns="http://www.w3.org/2000/svg">
<path d="M147.22 0H0V28.2602L9.84245 30.0942C15.6812 30.7611 20.0185 35.096 20.0185 49.1844V154.306C20.0185 165.143 17.8499 173.729 12.0111 174.98L0 176.814V205.074L19.6849 231H129.12C158.397 231 180 209.409 180 178.648C180 165.143 177.164 153.889 172.41 143.969C162.067 122.461 145.635 95.4511 122.113 86.6979C111.854 82.9466 98.5913 80.6958 88.165 80.6958V65.0235C88.165 62.6059 88.8323 58.8546 90.7507 58.8546H118.526C118.693 60.9387 118.777 63.1061 118.777 65.4403L118.86 72.2761L151.724 99.2858H169.991V30.1776L147.22 0ZM70.5653 27.4266C64.0593 27.4266 60.0556 35.7629 60.0556 50.8517V86.8647H87.8313C103.346 86.8647 118.276 89.699 132.122 100.536C145.385 110.957 151.64 124.128 151.64 141.384C151.64 179.982 131.288 199.572 100.426 199.572H5.5051V182.149L15.431 180.565C22.7711 179.065 25.2734 170.061 25.2734 155.806V49.1844C25.2734 34.7625 21.6033 25.7593 15.431 24.5088L5.5051 23.0083V5.50199H141.631V67.8578H123.448V65.607C123.448 47.4338 118.86 27.4266 105.598 27.4266H70.5653ZM10.76 10.7539V17.5897L18.7674 18.7568C24.3559 20.0072 30.7785 25.8427 30.7785 49.2678V99.2025C33.8647 96.7016 37.8684 96.7016 41.6219 99.2025C40.0371 103.204 36.7006 109.623 32.3633 114.291C36.7006 124.462 40.0371 138.55 42.2057 164.726C44.3744 138.55 48.0445 124.462 52.0482 114.291C48.0445 109.623 44.3744 103.204 42.873 99.2025C48.7118 96.7016 54.2169 96.7016 60.0556 99.2025C65.9778 96.7016 72.0667 96.7016 77.9889 99.2025C83.494 96.7016 89.3327 96.7016 94.9212 99.2025C100.176 96.7016 105.681 96.7016 110.602 99.2025C113.438 104.371 114.94 109.956 114.022 115.208C123.865 121.961 132.79 139.217 127.868 164.726C137.127 145.636 137.127 121.961 132.206 111.207L115.19 96.6182C107.516 93.5337 97.8406 92.1166 85.6627 92.1166H54.5505V50.8517C54.5505 33.5955 60.0556 22.1747 70.5653 22.1747H105.598C123.281 22.1747 128.702 43.7658 128.702 61.939V62.6059H136.46V10.7539H10.76ZM41.6219 98.869C40.0371 88.1151 36.7006 81.9462 32.6969 77.2779C36.7006 69.9419 40.0371 58.8546 42.2057 35.7629C44.3744 58.8546 48.0445 69.9419 52.7155 77.2779C48.0445 81.9462 44.3744 88.1151 42.873 98.869H41.6219ZM87.8313 177.981C104.43 177.981 113.438 158.307 113.438 141.051C113.438 121.627 103.262 108.122 86.9138 108.122H60.0556V155.806C60.0556 169.978 64.0593 177.981 70.5653 177.981H87.8313ZM88.165 138.883L98.5913 139.217C103.513 139.217 106.348 144.135 106.348 149.637C106.348 160.475 98.0074 171.228 92.7525 171.228C90 171.228 88.165 166.31 88.165 159.558V138.883Z" fill="#333333"/>
</svg>
