<svg width="854" height="123" viewBox="0 0 854 123" fill="none" xmlns="http://www.w3.org/2000/svg">
<path fill-rule="evenodd" clip-rule="evenodd" d="M492.291 78.3911H487.245V107.736L491.044 112.469H515.854V83.3016L511.581 78.3911H509.919V33.4863H515.854V5.85714L511.581 1.00577H487.245V28.7532L491.4 33.4863H492.291V48.9279H481.072V33.4863H486.118V5.85714L481.903 1.00577H457.508V28.7532L461.663 33.4863H463.444V78.3911H457.508V107.736L461.723 112.469H486.118V83.3016L481.903 78.3911H481.072V61.2929H492.291V78.3911ZM643.171 78.3911H636.464V61.2929H640.144C644.061 61.2929 647.504 60.938 650.472 60.1097C653.38 59.2814 655.873 58.0981 657.772 56.4416C661.63 53.1876 663.53 48.8687 663.53 43.6032V29.404C663.53 25.4401 663.114 21.9495 662.283 18.9322C661.393 15.9149 660.087 13.4892 658.366 11.5368L654.567 7.21789C654.389 6.98124 654.211 6.80375 654.033 6.5671C650.472 2.89899 644.714 1.00577 636.642 1.00577H612.781V28.7532L616.936 33.4863H618.717V78.3911H612.781V107.736L616.995 112.469H647.445V83.3607L643.171 78.3911ZM634.98 78.3911H632.25V56.5599H636.642C649.225 56.5599 659.316 54.3709 659.316 39.5801V24.316C659.316 19.938 658.781 16.2107 657.772 13.1342C659.078 14.7908 660.146 16.8615 660.859 19.3463C661.63 22.1861 662.046 25.5584 662.046 29.404V43.6032C662.046 48.4545 660.325 52.3593 656.823 55.3175C655.042 56.7965 652.786 57.9206 650.056 58.6898C647.266 59.4589 644.002 59.8139 640.144 59.8139H634.98V78.3911ZM614.74 28.7532H618.717V32.0072H617.589L614.74 28.7532ZM614.859 107.736H643.171V80.6984L645.961 83.8932V110.99H617.708L614.859 107.736ZM634.98 48.9279V32.0072H640.915C641.865 32.0072 642.696 32.0664 643.527 32.1255C643.824 32.1847 644.061 32.2439 644.358 32.303C644.121 31.6522 643.765 31.1198 643.408 30.7056C642.281 29.404 640.025 28.7532 636.642 28.7532H632.25V48.9279H634.98ZM644.833 34.0188L644.774 33.9004C644.358 33.7821 643.883 33.6638 643.29 33.6046C642.637 33.5455 641.806 33.4863 640.915 33.4863H636.464V48.9279H636.642C639.788 48.9279 641.984 48.1587 643.29 46.5613C644.536 44.9048 645.189 42.3016 645.189 38.6926C645.189 36.9177 645.07 35.3795 644.833 34.1371V34.0188ZM537.875 118.267H547.135V113.12C547.135 111.108 547.431 109.688 548.084 108.919C548.737 108.091 549.509 107.736 550.518 107.736H573.726C574.794 107.736 575.684 108.091 576.337 108.919C576.693 109.333 576.931 110.043 577.109 110.99H554.02C553.367 110.99 552.833 111.108 552.358 111.345C551.824 111.582 551.408 111.937 550.993 112.41C550.577 112.942 550.34 113.593 550.102 114.421C549.984 115.19 549.865 116.078 549.865 117.143V121.521H540.724L537.875 118.267ZM577.228 112.469C577.287 112.706 577.287 112.883 577.287 113.12V118.267L581.442 123H592.719V83.2424L588.505 78.3911H585.003V33.4863H592.007V5.91631L587.733 1.00577H537.104V28.7532L541.258 33.4863H543.573V73.1255C543.573 74.7821 543.217 76.0837 542.505 77.0303C541.733 77.9178 541.021 78.3911 540.368 78.3911H535.916V118.267L539.834 122.763L540.071 123H551.349V117.143C551.349 116.196 551.408 115.368 551.586 114.717C551.705 114.126 551.883 113.652 552.12 113.356C552.417 113.061 552.655 112.824 552.951 112.706C553.248 112.528 553.604 112.469 554.02 112.469H577.228ZM579.246 118.267H588.505V80.6393L591.235 83.8341V121.521H582.095L579.246 118.267ZM583.519 78.3911H580.789V28.7532H587.733V3.31313L590.523 6.50794V32.0072H583.519V78.3911ZM539.062 28.7532H543.573V32.0072H541.911L539.062 28.7532ZM567.434 33.4863H561.202V78.3911H567.434V33.4863ZM559.718 78.3911V32.0072H567.434V28.7532H556.987V78.3911H559.718ZM724.547 110.99H749.594V83.8341L746.864 80.6393V107.736H721.698L724.547 110.99ZM746.864 78.3911L751.078 83.2424V112.469H723.894L719.68 107.736V78.3911H726.505V33.4863H723.834L719.68 28.7532V1.00577H746.864L751.078 5.85714V33.4863H744.253V78.3911H746.864ZM742.769 78.3911H740.038V28.7532H746.864V3.25397L749.594 6.44877V32.0072H742.769V78.3911ZM721.698 28.7532H726.505V32.0072H724.547L721.698 28.7532ZM776.008 110.99H801.055V83.8341L798.325 80.6393V107.736H773.218L776.008 110.99ZM798.325 78.3911L802.539 83.2424V112.469H775.355L771.14 107.736V78.3911H777.966V33.4863H775.295L771.14 28.7532V1.00577H798.325L802.539 5.85714V33.4863H795.713V78.3911H798.325ZM794.229 78.3911H791.499V28.7532H798.325V3.25397L801.055 6.44877V32.0072H794.229V78.3911ZM773.158 28.7532H777.966V32.0072H776.008L773.158 28.7532ZM827.468 110.99H852.516V83.8341L849.786 80.6393V107.736H824.679L827.468 110.99ZM849.786 78.3911L854 83.2424V112.469H826.815L822.601 107.736V78.3911H829.427V33.4863H826.756L822.601 28.7532V1.00577H849.786L854 5.85714V33.4863H847.174V78.3911H849.786ZM845.69 78.3911H842.96V28.7532H849.786V3.25397L852.516 6.44877V32.0072H845.69V78.3911ZM824.619 28.7532H829.427V32.0072H827.468L824.619 28.7532ZM197.059 43.9582L199.908 47.2121H211.541V6.38961L208.811 3.25397V43.9582H197.059ZM208.811 1.00577L213.025 5.85714V48.6912H199.255L195.1 43.9582V36.0303C195.1 35.0837 195.041 34.2554 194.981 33.4863H185.247V48.9279H193.913L198.186 53.8384V61.5296H208.811L213.025 66.381V112.469H165.719L161.564 107.736V78.3911H167.322V33.4863H165.66L161.564 28.7532V1.00577H208.811ZM163.464 28.7532H167.322V32.0072H166.313L163.464 28.7532ZM163.523 107.736H208.811V63.7778L211.541 66.9134V110.99H166.372L163.523 107.736ZM195.1 61.5296V71.824C195.1 74.2496 194.684 75.9654 193.794 76.9711C192.904 77.9177 191.479 78.3911 189.521 78.3911H185.247V61.5296H195.1ZM183.763 78.3911H180.973V56.5599H193.913V51.176L196.703 54.3709V60.0505H183.763V78.3911ZM183.763 48.9279H180.973V28.7532H189.521C191.479 28.7532 192.904 29.2266 193.794 30.2915C194.15 30.7056 194.447 31.2381 194.684 32.0072H183.763V48.9279ZM401.418 107.736V80.6393L404.148 83.7749V110.99H378.685L375.836 107.736H401.418ZM401.418 78.3911H399.222L401.952 67.0317H412.043L414.654 78.3911H407.294V107.736L411.39 112.469H439.049V83.3016L434.776 78.3911H431.214L421.124 33.4863H426.525V5.79798L422.311 1.00577H386.579V28.7532L390.675 33.4863H391.09L380.822 78.3911H373.937V107.736L378.032 112.469H405.632V83.2424L401.418 78.3911ZM397.738 78.3911H394.058L397.857 62.2987H410.974L411.686 65.5527H400.765L397.738 78.3911ZM409.193 107.736H434.776V80.6393L437.565 83.8341L437.506 110.99H412.043L409.193 107.736ZM429.73 78.3911H427.89L416.732 28.7532H422.311V3.25397L425.041 6.38961V32.0072H419.284C422.667 47.0346 426.288 63.2453 429.73 78.3911ZM388.479 28.7532H392.159L391.387 32.0072H391.328L388.479 28.7532ZM407.057 43.544L404.623 54.6667H409.49L407.057 43.544ZM403.08 54.6667L406.285 40.0534L404.504 31.8297L399.519 54.6667H403.08ZM27.4814 107.736V80.6393L30.2117 83.7749V110.99H4.80776L1.95872 107.736H27.4814ZM27.4814 78.3911H25.3446L28.0156 67.0317H38.1653L40.7175 78.3911H33.3575V107.736L37.453 112.469H65.1125L65.1718 83.3016L60.8982 78.3911H57.2776L47.1872 33.4863H52.5885L52.6479 5.79798L48.3743 1.00577H12.6426V28.7532L16.7381 33.4863H17.1536L6.88518 78.3911H0V107.736L4.0955 112.469H31.7549V83.2424L27.4814 78.3911ZM23.8014 78.3911H20.1213L23.9794 62.2987H37.0375L37.8091 65.5527H26.8878L23.8014 78.3911ZM35.3162 107.736H60.8982V80.6393L63.6879 83.8341L63.6286 110.99H38.1653L35.3162 107.736ZM55.7937 78.3911H53.9537L42.795 28.7532H48.3743V3.25397L51.1047 6.38961V32.0072H45.3472C48.7305 47.0346 52.3511 63.2453 55.7937 78.3911ZM14.6013 28.7532H18.222L17.5097 32.0072H17.4504L14.6013 28.7532ZM33.1201 43.544L30.6865 54.6667H35.5537L33.1201 43.544ZM29.2027 54.6667L32.4078 40.0534L30.5678 31.8297L25.582 54.6667H29.2027ZM89.8635 78.3911H83.6312V107.736L87.7861 112.469H97.7577C100.013 112.469 101.972 112.173 103.575 111.522C105.236 110.812 106.542 109.807 107.492 108.505C108.323 107.203 109.035 105.724 109.451 104.009C109.866 102.411 110.104 100.577 110.104 98.5657V33.4863H117.76V78.3911H112.003V107.736L116.158 112.469H141.443V83.3016L137.229 78.3911H135.567V33.4863H141.443V5.85714L137.229 1.00577H86.5396V28.7532L89.6854 33.4863H92.4751V73.1255C92.4751 74.7821 92.2377 76.0837 91.7035 77.0303C91.11 77.9178 90.5164 78.3911 89.8635 78.3911ZM85.5899 107.736H94.2558C98.648 107.736 101.675 106.494 103.396 104.068C105.058 101.642 105.889 98.4473 105.889 94.5426V28.7532H117.76V32.0072H108.62V98.5657C108.62 100.459 108.382 102.175 108.026 103.654C107.611 105.192 107.017 106.494 106.245 107.677C105.474 108.742 104.405 109.57 103.04 110.102C101.616 110.694 99.8351 110.99 97.7577 110.99H88.4983L85.5899 107.736ZM113.962 107.736H137.229V80.6984L139.959 83.8341V110.99H116.811L113.962 107.736ZM134.024 78.3911H131.293V28.7532H137.229V3.25397L139.959 6.38961V32.0072H134.024V78.3911ZM88.439 28.7532H92.4751V32.0072H90.3977L88.439 28.7532ZM237.479 78.3911H231.544V107.736L235.699 112.469H260.984V83.3016L256.77 78.3911H255.227V61.2929H263.477C264.486 61.2929 265.436 61.4113 266.207 61.5887C266.919 61.7071 267.572 61.9437 268.166 62.1804C268.581 63.6003 268.759 65.2569 268.759 67.2684V78.3911H262.705V107.736L266.86 112.469H292.501V83.3016L288.228 78.3911H286.566V71.2323C286.566 69.9899 286.388 68.7475 286.032 67.5642C285.735 66.4401 285.26 65.2569 284.607 64.1919C284.251 63.5411 283.836 62.9495 283.42 62.3579C283.005 61.7662 282.589 61.2338 282.114 60.7013L278.138 56.4416C277.425 55.6724 276.594 54.9033 275.763 54.1342C274.042 52.7143 272.083 51.531 269.947 50.6436L285.676 33.4863H291.136V5.85714L286.922 1.00577H262.705V28.7532L265.97 32.3622L255.227 44.1356V33.4863H260.984V5.85714L256.77 1.00577H231.544V28.7532L235.699 33.4863H237.479V78.3911ZM233.503 107.736H256.77V80.6393L259.5 83.8341V110.99H236.352L233.503 107.736ZM253.743 78.3911H251.012V56.5599H259.203C262.29 56.5599 264.605 57.329 266.267 58.9264C266.682 59.3405 267.098 59.8139 267.394 60.3463C267.098 60.2872 266.801 60.1688 266.563 60.1097C265.614 59.9322 264.605 59.8139 263.477 59.8139H253.743V78.3911ZM264.723 107.736H288.228V80.6393L290.958 83.8341V110.99H267.513L264.723 107.736ZM285.082 78.3911H282.292V66.381C282.292 65.0794 282.114 63.8369 281.758 62.5945C281.936 62.8312 282.055 63.0087 282.233 63.2453C282.589 63.7778 283.005 64.3102 283.301 64.9019C283.895 65.9077 284.311 66.9134 284.607 67.9784C284.904 69.0433 285.082 70.1082 285.082 71.2323V78.3911ZM268.463 50.0519C266.741 49.4603 265.02 49.1053 263.299 48.987L281.877 28.7532H286.922V3.25397L289.652 6.44877V32.0072H285.023L268.463 50.0519ZM264.664 28.7532H269.234L266.92 31.2381L264.664 28.7532ZM253.743 45.7922L251.012 48.8095V28.7532H256.77V3.25397L259.5 6.44877V32.0072H253.743V45.7922ZM233.562 28.7532H237.479V32.0072H236.352L233.562 28.7532ZM339.214 37.3911V45.1414L343.428 49.8745H356.961V6.33045L352.747 1.47908H340.401L339.629 5.56133C338.086 3.90476 336.306 2.54401 334.287 1.53824C332.269 0.532468 330.014 0 327.462 0C322.179 0 318.084 1.5974 315.234 4.79221C312.385 7.92785 310.961 12.6609 310.961 18.9322V85.0173C310.961 92.5902 312.504 98.329 315.531 102.175L315.65 102.293L319.805 107.499C321.585 109.57 323.96 111.108 326.809 112.055C329.598 113.061 332.863 113.475 336.543 113.475C339.986 113.475 342.36 113.001 344.971 111.996C347.642 111.049 349.838 109.511 351.619 107.558C353.459 105.547 354.765 103.003 355.655 99.8672C356.546 96.7908 356.961 93.1818 356.961 89.0404V66.4401L352.747 61.5296H339.214V68.1558C339.214 71.8831 338.62 74.4863 337.374 76.0837C336.127 77.6219 334.347 78.3911 332.032 78.3911C331.023 78.3911 330.133 78.2727 329.302 78.0361C328.945 76.6753 328.767 74.1905 328.767 72.1789V41.355C328.767 38.6926 329.302 36.6811 330.429 35.3795C331.557 34.1371 333.219 33.4863 335.475 33.4863C336.068 33.4863 337.374 33.5455 337.849 33.6046C338.205 33.6638 338.502 33.7229 338.858 33.8413C339.095 34.847 339.214 36.0303 339.214 37.3911ZM341.232 45.1414H352.747V3.72727L355.477 6.86291V48.3954H344.081L341.232 45.1414ZM320.814 106.375C323.9 107.973 327.818 108.742 332.447 108.742C339.095 108.742 344.14 106.848 347.583 103.003C351.026 99.2165 352.747 93.241 352.747 85.0173V63.8369L355.477 66.9726V89.0404C355.477 93.0635 355.062 96.5541 354.231 99.4531C353.4 102.352 352.153 104.719 350.551 106.553C348.889 108.387 346.871 109.747 344.437 110.635C342.004 111.522 339.807 111.996 336.543 111.996C332.982 111.996 329.895 111.582 327.284 110.694C324.672 109.747 322.535 108.387 320.933 106.553L320.814 106.375ZM327.64 77.2078C327.165 76.912 326.809 76.4978 326.393 76.0837C325.147 74.4863 324.494 71.8831 324.494 68.1558V37.3911C324.494 31.5931 326.987 28.7532 332.032 28.7532C335.059 28.7532 337.136 29.8773 338.205 32.1847L338.086 32.1255C337.552 32.0664 336.127 32.0072 335.475 32.0072C332.804 32.0072 330.726 32.7763 329.302 34.4329C327.936 35.9711 327.284 38.3377 327.284 41.355V72.1789C327.284 73.8355 327.402 75.6696 327.64 77.2078ZM489.263 107.736H511.581V80.6984L514.311 83.8341V110.99H491.934L489.263 107.736ZM508.376 78.3911H505.645V28.7532H511.581V3.25397L514.311 6.44877V32.0072H508.376V78.3911ZM489.204 28.7532H492.291V32.0072H492.053L489.204 28.7532ZM479.589 48.9279H476.858V28.7532H481.903V3.25397L484.634 6.44877V32.0072H479.589V48.9279ZM459.527 28.7532H463.444V32.0072H462.376L459.527 28.7532ZM459.527 107.736H481.903V80.6984L484.634 83.8341V110.99H462.376L459.527 107.736ZM479.589 78.3911H476.858V56.5599H492.291V59.8139H479.589V78.3911Z" fill="#333333"/>
</svg>
