<svg width="334" height="62" viewBox="0 0 334 62" fill="none" xmlns="http://www.w3.org/2000/svg">
<path d="M0 31C0 18.8989 1.58229 10.7145 4.73789 6.4287C7.90248 2.1429 11.157 0 14.5104 0C17.9267 0 21.2081 2.12489 24.3727 6.38368C27.5283 10.6425 29.1106 18.8449 29.1106 31C29.1106 43.2631 27.5283 51.5016 24.3727 55.6974C21.2081 59.9021 17.9267 62 14.5104 62C11.157 62 7.90248 59.8841 4.73789 55.6613C1.58229 51.4296 0 43.2091 0 31ZM332.929 20.2495H328.569C328.569 19.7993 328.551 19.3401 328.524 18.8629C328.497 18.3857 328.47 17.9265 328.443 17.4763C328.407 17.0261 328.371 16.576 328.317 16.1258C328.317 15.2884 328.254 14.4511 328.146 13.6137C328.029 12.7674 327.922 11.93 327.814 11.0927C327.589 9.35492 327.274 8.14842 326.888 7.47313C325.935 6.13157 324.478 5.45629 322.527 5.45629H317.664V26.5431H321.179V20.2495H325.881V37.7168H321.179V31.3331H317.664V56.2016H322.779C324.901 56.2016 326.384 55.6613 327.22 54.5629C328.065 53.4734 328.569 51.8618 328.731 49.7369C328.902 47.603 329.036 44.4156 329.153 40.1568H333.846V60.7395H306.92V56.2916H310.777V5.79843H306.92V1.26053H332.929V20.2495ZM291.951 1.26053L277.603 41.1653V6.13157C277.603 6.02353 278.124 5.9605 279.158 5.9605C280.192 5.9605 281.046 5.99651 281.711 6.05054V1.51263H268.792V6.05054H272.658V56.5437H268.792V60.9916H277.351L292.365 20.7537V56.2916H288.508V60.7395H301.256V56.2916H297.399V5.79843H301.256V1.26053H291.951ZM252.745 26.3811V5.79843H248.969V1.26053H263.479V5.79843H259.712V56.2916H263.479V60.7395H248.969V56.2916H252.745V31.2521H241.336V56.2916H245.112V60.7395H230.521V56.2916H234.377V5.79843H230.521V1.26053H245.112V5.79843H241.336V26.3811H252.745ZM225.036 20.2495H220.676C220.676 19.7993 220.658 19.3401 220.631 18.8629C220.604 18.3857 220.577 17.9265 220.55 17.4763C220.523 17.0261 220.478 16.576 220.424 16.1258C220.424 15.2884 220.361 14.4511 220.254 13.6137C220.146 12.7674 220.029 11.93 219.921 11.0927C219.696 9.35492 219.391 8.14842 218.995 7.47313C218.042 6.13157 216.595 5.45629 214.635 5.45629H209.771V26.5431H213.295V20.2495H217.988V37.7168H213.295V31.3331H209.771V56.2016H214.886C217.008 56.2016 218.492 55.6613 219.328 54.5629C220.173 53.4734 220.676 51.8618 220.838 49.7369C221.009 47.603 221.153 44.4156 221.261 40.1568H225.962V60.7395H199.027V56.2916H202.893V5.79843H199.027V1.26053H225.036V20.2495ZM190.019 56.2916V5.79843H193.795V1.26053H165.664V5.79843H169.44L168.919 46.0093C168.811 54.0857 166.797 56.2106 163.093 55.9044V60.3523C164.828 61.3607 166.546 61.7659 168.218 61.4418C171.517 60.8115 175.77 58.2454 175.877 47.693L176.318 5.79843H183.142V56.2916H179.285V60.7395H193.795V56.2916H190.019ZM135.727 56.2916V5.79843H131.87V1.26053H147.135C148.25 1.26053 149.653 1.53064 151.325 2.06186C153.006 2.59309 154.669 3.93465 156.324 6.08655C157.969 8.24746 158.796 11.3718 158.796 15.4595C158.796 18.3677 158.301 20.8617 157.33 22.9326C156.35 25.0035 154.292 26.8583 151.163 28.4789C153.402 29.1002 155.505 30.6038 157.492 33.0168C159.479 35.4209 160.387 39.4005 160.225 44.9468C160.054 51.4386 158.679 55.6974 156.108 57.7142C153.537 59.731 151.019 60.7395 148.565 60.7395H131.87V56.2916H135.727ZM142.775 56.0395C146.524 56.5977 149.05 55.9405 150.363 54.0587C151.676 52.1859 152.332 48.9805 152.332 44.4426C152.332 43.4342 152.278 41.9216 152.17 39.9047C151.945 36.8795 151.469 34.8626 150.741 33.8542C150.129 32.8458 149.104 32.0624 147.684 31.5042C146.254 30.946 144.618 30.8289 142.775 31.1711V56.0395ZM142.775 26.21C146.578 27.1104 149.032 26.3811 150.156 24.0311C151.271 21.6721 151.774 18.0886 151.667 13.2716C151.55 10.2463 150.696 7.99535 149.104 6.50973C147.513 5.02411 145.4 4.61894 142.775 5.29422V26.21ZM116.487 45.7842H104.656L102.723 56.4537H106.499V60.7395H94.3353V56.4537H97.3561L108.09 0.252106H114.725L125.882 56.4537H129.487V60.7395H114.725V56.4537H118.582L116.487 45.7842ZM110.446 12.8574L105.582 40.9132H115.642L110.446 12.8574ZM88.2039 56.2916V5.79843H91.9799V1.26053H63.8492V5.79843H67.6161L67.0947 46.0093C66.9868 54.0857 64.973 56.2106 61.278 55.9044V60.3523C63.0131 61.3607 64.7212 61.7659 66.3934 61.4418C69.7019 60.8115 73.9453 58.2454 74.0532 47.693L74.5027 5.79843H81.3263V56.2916H77.4695V60.7395H91.9799V56.2916H88.2039ZM31.6819 56.2016V60.7395H46.1922V56.5437H42.4163V5.79843H47.5318C49.6625 5.79843 51.1459 6.33866 51.982 7.43712C52.8181 8.52658 53.3215 10.1383 53.4923 12.2631C53.6632 14.397 53.798 17.5844 53.9059 21.8432H58.6078V1.26053H31.6819V5.70839H35.5387V56.2016H31.6819ZM7.71369 31C7.71369 36.6003 7.81258 41.0392 8.01037 44.3166C8.20815 47.594 8.79252 50.6732 9.77247 53.5545C10.7524 56.4447 12.3617 57.8853 14.6003 57.8853C17.7289 57.8313 19.6438 55.3372 20.3451 50.4031C21.0373 45.4781 21.3879 39.0134 21.3879 31C21.3879 22.9866 21.0373 16.5219 20.3451 11.5969C19.6438 6.66279 17.7289 4.20476 14.6003 4.20476C12.3617 4.20476 10.7344 5.64537 9.72752 8.52658C8.7206 11.4078 8.13623 14.4781 7.96541 17.7284C7.80359 20.9788 7.71369 25.3997 7.71369 31Z" fill="#333333"/>
</svg>
