<svg width="312" height="11" viewBox="0 0 312 11" fill="none" xmlns="http://www.w3.org/2000/svg">
<path d="M2.18592 4.90047C1.22625 4.90047 0 4.90047 0 5.78673C0 6.41232 1.22625 6.72512 2.18592 6.72512L122.305 11C124.811 11 126.677 9.17536 127.316 7.29858H130.409C131.049 9.17536 132.915 11 136.327 11H142.245C145.39 11 147.256 9.17536 147.896 7.29858H150.402C150.988 9.74882 153.494 11 156 11C158.506 11 161.012 9.74882 161.598 7.29858H164.104C164.744 9.17536 166.61 11 169.702 11H175.673C179.085 11 180.951 9.17536 181.591 7.29858H184.684C185.323 9.17536 187.189 11 189.695 11L309.814 6.72512C310.774 6.72512 312 6.41232 312 5.78673C312 4.90047 310.774 4.90047 309.814 4.90047L190.335 0C187.189 0 185.323 1.82464 184.684 4.27488H181.591C180.951 1.82464 178.446 0 175.94 0H169.702C167.249 0 165.064 1.51185 164.104 4.27488H161.598C160.692 1.82464 158.506 0 156 0C153.494 0 151.308 1.82464 150.402 4.27488H147.896C146.936 1.51185 144.751 0 142.245 0H136.007C133.554 0 131.049 1.82464 130.409 4.27488H127.316C126.677 1.82464 124.811 0 121.665 0L2.18592 4.90047ZM179.725 5.47393C179.725 7.29858 177.859 9.17536 175.94 9.17536H170.022C167.836 9.17536 165.97 7.29858 165.97 5.47393H179.725ZM159.732 5.47393C159.732 7.92417 157.866 9.17536 156 9.17536C154.134 9.17536 152.268 7.92417 152.268 5.47393H159.732ZM146.03 5.47393C146.03 7.29858 144.164 9.17536 142.245 9.17536H136.327C134.141 9.17536 132.275 7.29858 132.275 5.47393H146.03ZM264.55 5.47393C264.55 6.41232 263.323 6.72512 262.364 6.72512L190.335 8.54976C188.469 8.54976 187.189 7.29858 187.189 5.47393H264.55ZM124.811 5.47393C124.811 7.29858 123.531 8.54976 121.665 8.54976L49.583 6.72512C48.6767 6.72512 47.4504 6.41232 47.4504 5.47393H124.811Z" fill="#333333"/>
</svg>
