<svg width="588" height="78" viewBox="0 0 588 78" fill="none" xmlns="http://www.w3.org/2000/svg">
<path d="M66.3258 50.4034H53.2479L51.1189 62.1461H55.2888V66.864H41.8428V62.1461H45.1803L57.0496 0.279398H64.3729L76.7064 62.1461H80.6922V66.864H64.3729V62.1461H68.6388L66.3258 50.4034ZM216.905 43.0912L223.861 1.38901H240.084V6.37826H235.818V61.9625H240.084V66.864H223.949V61.9625H228.126V5.91526L218.106 66.864H213.848L204.02 5.91526V61.9625H208.278V66.864H194.191V61.9625H198.449V6.37826H194.191V1.38901H210.318L216.905 43.0912ZM184.795 36.5772H161.665V31.6758H184.795V36.5772ZM574.242 6.37826H570.064V1.38901H586.103V6.37826H581.933C581.933 24.9064 581.933 43.4345 581.933 61.9625H588V78H583.182L582.526 74.9107C581.621 70.568 581.669 67.1115 576.811 66.864H549.671V61.9625H553.929V6.37826H549.671V1.38901H565.798V6.37826H561.628V61.9625H574.242V6.37826ZM24.571 6.37826H20.4012V1.38901H36.4404V6.37826H32.2625C32.2625 24.9064 32.2705 43.4345 32.2705 61.9625H38.3292V78H33.511L32.8628 74.9107C31.9503 70.568 32.0064 67.1115 27.1482 66.864H0V61.9625H4.26592V6.37826H0V1.38901H16.1352V6.37826H11.9574V61.9625H24.571V6.37826ZM541.539 22.288H536.721C536.721 21.7931 536.705 21.2822 536.673 20.7633C536.641 20.2364 536.609 19.7255 536.577 19.2386C536.545 18.7436 536.505 18.2487 536.441 17.7538C536.441 16.8278 536.377 15.9097 536.257 14.9837C536.129 14.0577 536.009 13.1317 535.881 12.2057C535.632 10.2978 535.296 8.97268 534.864 8.23027C533.816 6.75345 532.207 6.01105 530.046 6.01105H524.668V29.2251H528.557V22.288H533.752V41.5266H528.557V34.4937H524.668V61.8668H530.318C532.671 61.8668 534.304 61.268 535.232 60.0626C536.161 58.8652 536.721 57.093 536.905 54.7461C537.089 52.4071 537.241 48.8867 537.369 44.2008H542.556V66.864H512.798V61.9625H517.064V6.37826H512.798V1.38901H541.539V22.288ZM488.595 39.1158V61.9625H492.765V66.864H476.726V61.9625H480.992V6.37826H476.726V1.38901H489.804C493.197 1.38901 496.087 1.67639 498.472 2.26712C500.849 2.84986 503.042 4.5502 505.051 7.35217C507.06 10.1541 508.068 14.4888 508.068 20.3482C508.068 32.8572 503.186 39.1158 493.414 39.1158H488.595ZM488.595 33.9429C493.109 34.9886 496.031 34.1105 497.359 31.3006C498.688 28.4986 499.352 24.7547 499.352 20.0688C499.472 15.1354 498.84 11.3436 497.447 8.69328C496.063 6.04298 493.109 5.14891 488.595 6.01105V33.9429ZM440.262 34.1265C440.262 20.8112 442.006 11.7906 445.496 7.07277C448.994 2.35493 452.587 0 456.301 0C460.071 0 463.704 2.33896 467.194 7.02487C470.683 11.7108 472.436 20.7473 472.436 34.1265C472.436 47.6254 470.683 56.6859 467.194 61.3159C463.704 65.938 460.071 68.253 456.301 68.253C452.587 68.253 448.994 65.922 445.496 61.268C442.006 56.6141 440.262 47.5616 440.262 34.1265ZM448.785 34.1265C448.785 40.2892 448.898 45.1747 449.114 48.7829C449.33 52.3912 449.978 55.7839 451.059 58.953C452.139 62.1302 453.916 63.7188 456.389 63.7188C459.854 63.6549 461.967 60.9088 462.744 55.4885C463.52 50.0602 463.904 42.9395 463.904 34.1265C463.904 25.3055 463.52 18.1848 462.744 12.7645C461.967 7.3362 459.854 4.62205 456.389 4.62205C453.916 4.62205 452.131 6.21062 451.019 9.38778C449.898 12.5649 449.25 15.9337 449.066 19.51C448.882 23.0863 448.785 27.9558 448.785 34.1265ZM406.342 61.9625V6.37826H402.077V1.38901H418.956C420.189 1.38901 421.733 1.67639 423.59 2.26712C425.447 2.84986 427.28 4.33466 429.105 6.70556C430.93 9.07645 431.842 12.517 431.842 17.0193C431.842 20.2204 431.306 22.9665 430.217 25.2496C429.137 27.5247 426.864 29.5603 423.406 31.3485C425.879 32.027 428.208 33.6954 430.409 36.3457C432.602 38.996 433.603 43.3706 433.419 49.4774C433.235 56.63 431.722 61.3159 428.873 63.5352C426.031 65.7544 423.254 66.864 420.533 66.864H402.077V61.9625H406.342ZM414.13 61.6831C418.276 62.2978 421.069 61.5794 422.526 59.5118C423.974 57.4443 424.703 53.9159 424.703 48.9186C424.703 47.809 424.639 46.1486 424.519 43.9294C424.27 40.6006 423.742 38.3813 422.942 37.2717C422.262 36.1621 421.133 35.3 419.556 34.6773C417.98 34.0626 416.171 33.9429 414.13 34.3101V61.6831ZM414.13 28.8499C418.34 29.8397 421.053 29.0415 422.294 26.447C423.526 23.8606 424.086 19.9171 423.958 14.6085C423.838 11.2797 422.894 8.79705 421.133 7.16856C419.372 5.53208 417.035 5.08505 414.13 5.82745V28.8499ZM387.574 66.864H372.087V61.9625H376.265V6.19466C373.912 5.69972 372.151 6.53792 370.975 8.69328C370.67 9.24409 370.438 10.0823 370.278 11.1919C370.126 12.3015 369.99 13.3473 369.862 14.3371C369.862 14.7043 369.814 15.2152 369.726 15.8618C369.63 16.5084 369.558 17.1072 369.494 17.666C369.31 19.3264 369.214 21.0507 369.214 22.8388H364.484V1.38901H395.265V22.8388H390.447C390.327 20.4998 390.199 18.7756 390.079 17.666C390.079 17.1072 390.047 16.5563 389.983 15.9975C389.919 15.4467 389.863 14.8879 389.799 14.3371C389.671 11.5591 389.303 9.68314 388.687 8.69328C387.446 6.53792 385.717 5.69972 383.492 6.19466V61.9625H387.574V66.864ZM326.186 34.1265C326.186 20.8112 327.931 11.7906 331.429 7.07277C334.918 2.35493 338.52 0 342.226 0C346.003 0 349.629 2.33896 353.127 7.02487C356.616 11.7108 358.361 20.7473 358.361 34.1265C358.361 47.6254 356.616 56.6859 353.127 61.3159C349.629 65.938 346.003 68.253 342.226 68.253C338.52 68.253 334.918 65.922 331.429 61.268C327.931 56.6141 326.186 47.5616 326.186 34.1265ZM334.718 34.1265C334.718 40.2892 334.83 45.1747 335.046 48.7829C335.263 52.3912 335.911 55.7839 336.991 58.953C338.072 62.1302 339.849 63.7188 342.322 63.7188C345.787 63.6549 347.9 60.9088 348.677 55.4885C349.445 50.0602 349.829 42.9395 349.829 34.1265C349.829 25.3055 349.445 18.1848 348.677 12.7645C347.9 7.3362 345.787 4.62205 342.322 4.62205C339.849 4.62205 338.056 6.21062 336.943 9.38778C335.831 12.5649 335.182 15.9337 334.998 19.51C334.814 23.0863 334.718 27.9558 334.718 34.1265ZM301.103 39.1158V61.9625H305.273V66.864H289.234V61.9625H293.5V6.37826H289.234V1.38901H302.312C305.705 1.38901 308.603 1.67639 310.98 2.26712C313.357 2.84986 315.55 4.5502 317.559 7.35217C319.567 10.1541 320.576 14.4888 320.576 20.3482C320.576 32.8572 315.694 39.1158 305.921 39.1158H301.103ZM301.103 33.9429C305.617 34.9886 308.539 34.1105 309.867 31.3006C311.196 28.4986 311.86 24.7547 311.86 20.0688C311.98 15.1354 311.348 11.3436 309.955 8.69328C308.571 6.04298 305.617 5.14891 301.103 6.01105V33.9429ZM272.53 1.24532L256.675 45.1747V6.60976C256.675 6.49002 257.243 6.42616 258.388 6.42616C259.533 6.42616 260.477 6.45809 261.221 6.52195V1.52472H246.943V6.52195H251.209V62.0983H246.943V66.9997H256.395L272.995 22.7031V61.8189H268.729V66.7203H282.823V61.8189H278.557V6.24256H282.823V1.24532H272.53ZM131.379 29.1293V6.29045H135.557V1.38901H119.518V6.29045H123.784V61.8668H119.518V66.864H132.588C135.989 66.864 138.878 66.5686 141.255 65.9859C143.641 65.3951 145.833 63.7028 147.842 60.9008C149.851 58.0909 150.852 53.7642 150.852 47.9048C150.852 35.3878 145.97 29.1293 136.205 29.1293H131.379ZM131.379 34.3101C135.893 33.2644 138.814 34.1425 140.143 36.9444C141.472 39.7544 142.136 43.4983 142.136 48.1842C142.264 53.1176 141.632 56.9014 140.239 59.5597C138.846 62.21 135.893 63.1041 131.379 62.2419V34.3101ZM95.9391 39.1158V61.9625H100.117V66.864H84.0778V61.9625H88.3357V6.37826H84.0778V1.38901H97.1476C100.549 1.38901 103.438 1.67639 105.816 2.26712C108.201 2.84986 110.394 4.5502 112.402 7.35217C114.411 10.1541 115.412 14.4888 115.412 20.3482C115.412 32.8572 110.53 39.1158 100.765 39.1158H95.9391ZM95.9391 33.9429C100.453 34.9886 103.374 34.1105 104.703 31.3006C106.032 28.4986 106.696 24.7547 106.696 20.0688C106.824 15.1354 106.192 11.3436 104.799 8.69328C103.406 6.04298 100.453 5.14891 95.9391 6.01105V33.9429ZM59.6508 14.1455L54.2724 45.039H65.3974L59.6508 14.1455Z" fill="#333333"/>
</svg>
