<svg width="1019" height="55" viewBox="0 0 1019 55" fill="none" xmlns="http://www.w3.org/2000/svg">
<path d="M3.42606 49.9034V5.1397H0V1.1178H13.5553C14.5483 1.1178 15.7897 1.35438 17.2793 1.82463C18.7689 2.29779 20.2468 3.48947 21.713 5.40257C23.1763 7.31275 23.9094 10.0816 23.9094 13.7063C23.9094 16.2883 23.4742 18.4964 22.6067 20.3335C21.7364 22.1707 19.9109 23.8092 17.1303 25.2521C19.1164 25.7954 20.9916 27.1389 22.7557 29.274C24.5169 31.4091 25.3231 34.9345 25.1741 39.8501C25.0251 45.6099 23.8101 49.3835 21.5261 51.171C19.242 52.9585 17.0076 53.8523 14.8229 53.8523H0V49.9034H3.42606ZM861.124 49.9034H864.477V53.8523H851.515V49.9034H854.944V39.0323H851.068C843.223 39.0323 839.3 33.994 839.3 23.9144C839.3 19.1974 840.109 15.707 841.722 13.4493C843.337 11.1886 845.098 9.82461 847.011 9.35145C848.921 8.8812 851.243 8.64462 853.974 8.64462H854.944V5.1397H851.515V1.1178H864.477V5.1397H861.124V8.64462H862.094C864.825 8.64462 867.144 8.8812 869.057 9.35145C870.967 9.82461 872.731 11.1886 874.344 13.4493C875.959 15.707 876.765 19.1974 876.765 23.9144C876.765 33.994 872.842 39.0323 864.997 39.0323H861.124V49.9034ZM854.944 34.8614V12.3686C851.319 11.6735 848.948 12.3949 847.829 14.53C846.713 16.6651 846.202 19.7173 846.301 23.6895C846.301 27.4631 846.836 30.4803 847.905 32.741C848.971 34.9987 851.319 35.7055 854.944 34.8614ZM861.124 12.3686V34.8614C864.749 35.7055 867.094 34.9987 868.163 32.741C869.229 30.4803 869.764 27.4631 869.764 23.6895C869.863 19.7173 869.355 16.6651 868.236 14.53C867.121 12.3949 864.749 11.6735 861.124 12.3686ZM1015.51 49.9034H1018.87V53.8523H1005.9V49.9034H1009.33V5.1397H1005.9V1.1178H1018.87V5.1397H1015.51V49.9034ZM989.314 23.4617V5.06668H992.667V1.1178H979.78V5.06668H983.206V49.8304H979.78V53.8523H990.283C993.014 53.8523 995.336 53.6157 997.247 53.1454C999.16 52.6723 1000.92 51.3083 1002.54 49.0476C1004.15 46.7869 1004.95 43.2995 1004.95 38.5825C1004.95 28.5029 1001.03 23.4617 993.187 23.4617H989.314ZM989.314 27.6355C992.938 26.7914 995.287 27.4982 996.353 29.7559C997.422 32.0166 997.953 35.0338 997.953 38.8074C998.053 42.7796 997.545 45.8318 996.429 47.9669C995.31 50.102 992.938 50.8234 989.314 50.1283V27.6355ZM956.254 34.7096L961.841 1.1178H974.874V5.1397H971.447V49.9034H974.874V53.8523H961.914V49.9034H965.267V4.76876L957.223 53.8523H953.794L945.9 4.76876V49.9034H949.326V53.8523H938.005V49.9034H941.431V5.1397H938.005V1.1178H950.964L956.254 34.7096ZM919.578 31.5084V49.9034H922.93V53.8523H910.044V49.9034H913.47V5.1397H910.044V1.1178H920.544C923.275 1.1178 925.597 1.35438 927.51 1.82463C929.421 2.29779 931.185 3.66179 932.797 5.92247C934.412 8.18314 935.218 11.6705 935.218 16.3876C935.218 26.4671 931.296 31.5084 923.45 31.5084H919.578ZM919.578 27.3346C923.202 28.1787 925.548 27.4719 926.617 25.2141C927.683 22.9535 928.217 19.9363 928.217 16.1627C928.316 12.1904 927.808 9.13823 926.69 7.00315C925.574 4.86807 923.202 4.14664 919.578 4.84178V27.3346ZM881.605 27.4865C881.605 16.7585 883.01 9.49749 885.813 5.70049C888.62 1.90057 891.512 0.00206888 894.491 0.00206888C897.52 0.00206888 900.438 1.88888 903.245 5.66252C906.049 9.43615 907.451 16.7089 907.451 27.4865C907.451 38.3605 906.049 45.6595 903.245 49.3835C900.438 53.1075 897.52 54.968 894.491 54.968C891.512 54.968 888.62 53.0958 885.813 49.3455C883.01 45.5953 881.605 38.3109 881.605 27.4865ZM888.46 27.4865C888.46 32.4518 888.544 36.3861 888.72 39.2893C888.892 42.1955 889.415 44.9264 890.282 47.4821C891.153 50.0407 892.581 51.32 894.567 51.32C897.348 51.2703 899.047 49.0593 899.667 44.6898C900.289 40.3204 900.598 34.5869 900.598 27.4865C900.598 20.3832 900.289 14.6497 899.667 10.2803C899.047 5.91078 897.348 3.72605 894.567 3.72605C892.581 3.72605 891.141 5.00534 890.247 7.56102C889.353 10.1196 888.831 12.8359 888.682 15.7158C888.533 18.5957 888.46 22.5183 888.46 27.4865ZM835.01 17.9502H831.137C831.137 17.553 831.125 17.1441 831.102 16.7235C831.075 16.3 831.052 15.891 831.026 15.4938C831.002 15.0966 830.964 14.6994 830.915 14.3021C830.915 13.5574 830.865 12.8126 830.766 12.0678C830.666 11.323 830.567 10.5782 830.468 9.83337C830.269 8.29413 829.995 7.22513 829.647 6.62929C828.803 5.43762 827.512 4.84178 825.774 4.84178H821.454V23.5376H824.582V17.9502H828.753V33.4449H824.582V27.7844H821.454V49.8304H825.999C827.886 49.8304 829.2 49.3455 829.945 48.3787C830.69 47.4091 831.137 45.9808 831.286 44.094C831.435 42.2072 831.56 39.3769 831.659 35.6033H835.83V53.8523H811.921V49.9034H815.347V5.1397H811.921V1.1178H835.01V17.9502ZM793.646 31.5084V49.9034H796.996V53.8523H784.112V49.9034H787.538V5.1397H784.112V1.1178H794.612C797.343 1.1178 799.665 1.35438 801.578 1.82463C803.489 2.29779 805.253 3.66179 806.865 5.92247C808.48 8.18314 809.286 11.6705 809.286 16.3876C809.286 26.4671 805.364 31.5084 797.519 31.5084H793.646ZM793.646 27.3346C797.27 28.1787 799.616 27.4719 800.685 25.2141C801.751 22.9535 802.285 19.9363 802.285 16.1627C802.385 12.1904 801.876 9.13823 800.758 7.00315C799.642 4.86807 797.27 4.14664 793.646 4.84178V27.3346ZM766.082 31.5084V49.9034H769.433V53.8523H756.549V49.9034H759.975V5.1397H756.549V1.1178H767.049C769.78 1.1178 772.102 1.35438 774.015 1.82463C775.925 2.29779 777.69 3.66179 779.302 5.92247C780.917 8.18314 781.723 11.6705 781.723 16.3876C781.723 26.4671 777.801 31.5084 769.955 31.5084H766.082ZM766.082 27.3346C769.707 28.1787 772.052 27.4719 773.121 25.2141C774.188 22.9535 774.722 19.9363 774.722 16.1627C774.821 12.1904 774.313 9.13823 773.194 7.00315C772.079 4.86807 769.707 4.14664 766.082 4.84178V27.3346ZM745.342 53.8523H732.905V49.9034H736.256V4.99074C734.369 4.59352 732.955 5.26529 732.012 7.00315C731.763 7.45003 731.576 8.11888 731.454 9.01264C731.328 9.90639 731.217 10.7505 731.118 11.5449C731.118 11.8429 731.08 12.2547 731.004 12.7746C730.931 13.2974 730.87 13.7793 730.82 14.2262C730.671 15.5668 730.595 16.9571 730.595 18.3971H726.798V1.1178H751.525V18.3971H747.652C747.553 16.5103 747.454 15.12 747.354 14.2262C747.354 13.7793 747.328 13.3325 747.279 12.8856C747.229 12.4387 747.179 11.9918 747.13 11.5449C747.03 9.31056 746.732 7.7976 746.236 7.00315C745.243 5.26529 743.852 4.59352 742.065 4.99074V49.9034H745.342V53.8523ZM712.185 23.3887V5.1397H708.832V1.1178H721.719V5.1397H718.366V49.9034H721.719V53.8523H708.832V49.9034H712.185V27.7085H702.056V49.9034H705.406V53.8523H692.447V49.9034H695.873V5.1397H692.447V1.1178H705.406V5.1397H702.056V23.3887H712.185ZM664.04 27.4865C664.04 16.7585 665.444 9.49749 668.248 5.70049C671.055 1.90057 673.947 0.00206888 676.926 0.00206888C679.955 0.00206888 682.873 1.88888 685.677 5.66252C688.483 9.43615 689.885 16.7089 689.885 27.4865C689.885 38.3605 688.483 45.6595 685.677 49.3835C682.873 53.1075 679.955 54.968 676.926 54.968C673.947 54.968 671.055 53.0958 668.248 49.3455C665.444 45.5953 664.04 38.3109 664.04 27.4865ZM670.892 27.4865C670.892 32.4518 670.979 36.3861 671.155 39.2893C671.327 42.1955 671.85 44.9264 672.717 47.4821C673.588 50.0407 675.013 51.32 677.002 51.32C679.782 51.2703 681.482 49.0593 682.102 44.6898C682.724 40.3204 683.033 34.5869 683.033 27.4865C683.033 20.3832 682.724 14.6497 682.102 10.2803C681.482 5.91078 679.782 3.72605 677.002 3.72605C675.013 3.72605 673.573 5.00534 672.679 7.56102C671.785 10.1196 671.266 12.8359 671.117 15.7158C670.968 18.5957 670.892 22.5183 670.892 27.4865ZM645.58 53.8523H632.767V49.9034H636.193V5.1397H632.767V1.1178H645.58V5.1397H642.227V23.4617C643.965 23.7099 645.233 23.0907 646.027 21.6012C646.623 20.6081 646.971 18.9432 647.07 16.6096C647.318 12.1904 647.54 9.08858 647.739 7.30107C647.937 5.51356 648.521 3.84872 649.488 2.30948C650.458 0.770231 652.058 0.00206888 654.293 0.00206888C656.527 -0.0475842 658.154 0.796518 659.171 2.53437C660.19 4.27223 660.649 6.23207 660.549 8.4168C660.5 10.3036 660.14 11.6705 659.469 12.5146C658.8 13.3587 658.017 13.7793 657.123 13.7793C656.378 13.7793 655.695 13.3967 655.076 12.6256C654.454 11.8575 654.121 10.7271 654.071 9.23754C653.972 8.49274 654.045 7.69829 654.293 6.85419C654.343 6.70523 654.419 6.52999 654.518 6.33137C654.617 6.13276 654.69 5.93415 654.74 5.73554C654.839 5.48727 654.839 5.26529 654.74 5.06668C654.541 4.71911 654.319 4.49421 654.071 4.3949C653.326 4.34525 652.792 4.85639 652.467 5.92247C652.146 6.99147 651.936 8.30581 651.837 9.87134C651.737 11.434 651.688 13.1105 651.688 14.898C651.688 17.5793 651.463 19.5654 651.016 20.8564C650.42 22.8425 649.354 24.2561 647.815 25.1002C648.013 25.1499 648.212 25.2258 648.411 25.3251C648.609 25.4244 648.781 25.5237 648.93 25.623C649.725 25.9706 650.248 26.2452 650.496 26.4409C654.021 28.4796 655.783 34.4613 655.783 44.3919C655.783 46.527 656.057 47.9173 656.603 48.5628C657.298 49.6055 658.341 50.0523 659.731 49.9034V53.8523C658.44 54.746 657.149 55.117 655.859 54.968C653.872 54.8687 652.257 53.9019 651.016 52.0648C650.072 50.7738 649.453 48.2415 649.155 44.4678C649.155 44.3189 649.091 43.3872 648.968 41.6727C648.843 39.9611 648.732 38.5095 648.632 37.3178C648.533 34.3386 648.212 32.2269 647.666 30.9856C646.524 28.5526 644.71 27.4602 642.227 27.7085V49.9034H645.58V53.8523ZM606.728 1.00681L593.991 36.3861V5.32663C593.991 5.22732 594.449 5.17767 595.369 5.17767C596.286 5.17767 597.043 5.20396 597.639 5.25361V1.23171H586.169V5.25361H589.595V50.0144H586.169V53.9633H593.766L607.099 18.2861V49.7924H603.673V53.7413H614.994V49.7924H611.568V5.02871H614.994V1.00681H606.728ZM558.559 40.5949H548.059L546.344 50.0523H549.697V53.8523H538.896V50.0523H541.578L551.111 0.224047H556.996L566.901 50.0523H570.105V53.8523H556.996V50.0523H560.422L558.559 40.5949ZM553.196 11.396L548.877 36.2751H557.814L553.196 11.396ZM521.731 53.8523H508.918V49.9034H512.344V5.1397H508.918V1.1178H521.731V5.1397H518.378V23.4617C520.116 23.7099 521.383 23.0907 522.178 21.6012C522.774 20.6081 523.121 18.9432 523.221 16.6096C523.469 12.1904 523.691 9.08858 523.889 7.30107C524.088 5.51356 524.672 3.84872 525.639 2.30948C526.609 0.770231 528.209 0.00206888 530.444 0.00206888C532.678 -0.0475842 534.305 0.796518 535.321 2.53437C536.341 4.27223 536.799 6.23207 536.7 8.4168C536.65 10.3036 536.291 11.6705 535.619 12.5146C534.95 13.3587 534.168 13.7793 533.274 13.7793C532.529 13.7793 531.846 13.3967 531.226 12.6256C530.604 11.8575 530.271 10.7271 530.222 9.23754C530.122 8.49274 530.195 7.69829 530.444 6.85419C530.493 6.70523 530.569 6.52999 530.669 6.33137C530.768 6.13276 530.841 5.93415 530.891 5.73554C530.99 5.48727 530.99 5.26529 530.891 5.06668C530.692 4.71911 530.47 4.49421 530.222 4.3949C529.477 4.34525 528.942 4.85639 528.618 5.92247C528.297 6.99147 528.086 8.30581 527.987 9.87134C527.888 11.434 527.838 13.1105 527.838 14.898C527.838 17.5793 527.613 19.5654 527.167 20.8564C526.571 22.8425 525.505 24.2561 523.965 25.1002C524.164 25.1499 524.363 25.2258 524.561 25.3251C524.76 25.4244 524.932 25.5237 525.081 25.623C525.876 25.9706 526.398 26.2452 526.647 26.4409C530.172 28.4796 531.933 34.4613 531.933 44.3919C531.933 46.527 532.208 47.9173 532.754 48.5628C533.449 49.6055 534.492 50.0523 535.882 49.9034V53.8523C534.591 54.746 533.3 55.117 532.009 54.968C530.023 54.8687 528.408 53.9019 527.167 52.0648C526.223 50.7738 525.604 48.2415 525.306 44.4678C525.306 44.3189 525.242 43.3872 525.119 41.6727C524.993 39.9611 524.882 38.5095 524.783 37.3178C524.684 34.3386 524.363 32.2269 523.816 30.9856C522.674 28.5526 520.861 27.4602 518.378 27.7085V49.9034H521.731V53.8523ZM495.862 1.00681L483.127 36.3861V5.32663C483.127 5.22732 483.586 5.17767 484.506 5.17767C485.423 5.17767 486.179 5.20396 486.775 5.25361V1.23171H475.305V5.25361H478.731V50.0144H475.305V53.9633H482.902L496.236 18.2861V49.7924H492.81V53.7413H504.13V49.7924H500.704V5.02871H504.13V1.00681H495.862ZM464.201 53.8523H451.764V49.9034H455.114V4.99074C453.227 4.59352 451.814 5.26529 450.87 7.00315C450.622 7.45003 450.435 8.11888 450.309 9.01264C450.187 9.90639 450.076 10.7505 449.976 11.5449C449.976 11.8429 449.938 12.2547 449.863 12.7746C449.79 13.2974 449.725 13.7793 449.679 14.2262C449.53 15.5668 449.454 16.9571 449.454 18.3971H445.654V1.1178H470.384V18.3971H466.511C466.412 16.5103 466.312 15.12 466.213 14.2262C466.213 13.7793 466.187 13.3325 466.137 12.8856C466.087 12.4387 466.038 11.9918 465.988 11.5449C465.889 9.31056 465.591 7.7976 465.094 7.00315C464.101 5.26529 462.711 4.59352 460.923 4.99074V49.9034H464.201V53.8523ZM432.469 1.00681L419.732 36.3861V5.32663C419.732 5.22732 420.19 5.17767 421.111 5.17767C422.028 5.17767 422.784 5.20396 423.38 5.25361V1.23171H411.91V5.25361H415.336V50.0144H411.91V53.9633H419.507L432.84 18.2861V49.7924H429.414V53.7413H440.735V49.7924H437.309V5.02871H440.735V1.00681H432.469ZM403.893 49.9034V5.1397H407.246V1.1178H382.267V5.1397H385.617L385.153 40.7964C385.059 47.9494 383.272 49.8391 379.986 49.5617V53.5076C381.525 54.4014 383.047 54.7577 384.528 54.4773C387.463 53.9165 391.234 51.6383 391.333 42.286L391.725 5.1397H397.785V49.9034H394.359V53.8523H407.246V49.9034H403.893ZM352.765 27.4865C352.765 16.7585 354.166 9.49749 356.973 5.70049C359.777 1.90057 362.672 0.00206888 365.651 0.00206888C368.68 0.00206888 371.595 1.88888 374.402 5.66252C377.206 9.43615 378.61 16.7089 378.61 27.4865C378.61 38.3605 377.206 45.6595 374.402 49.3835C371.595 53.1075 368.68 54.968 365.651 54.968C362.672 54.968 359.777 53.0958 356.973 49.3455C354.166 45.5953 352.765 38.3109 352.765 27.4865ZM359.617 27.4865C359.617 32.4518 359.704 36.3861 359.877 39.2893C360.052 42.1955 360.572 44.9264 361.442 47.4821C362.31 50.0407 363.738 51.32 365.724 51.32C368.505 51.2703 370.204 49.0593 370.827 44.6898C371.446 40.3204 371.758 34.5869 371.758 27.4865C371.758 20.3832 371.446 14.6497 370.827 10.2803C370.204 5.91078 368.505 3.72605 365.724 3.72605C363.738 3.72605 362.298 5.00534 361.404 7.56102C360.51 10.1196 359.991 12.8359 359.842 15.7158C359.693 18.5957 359.617 22.5183 359.617 27.4865ZM340.474 5.1397H330.345V49.9034H333.698V53.8523H320.738V49.9034H324.164V5.1397H320.738V1.1178H350.01V5.1397H346.657V49.9034H350.01V53.8523H337.124V49.9034H340.474V5.1397ZM296.47 49.9034V5.1397H299.823V1.1178H286.711C284.179 1.1178 281.647 1.9619 279.114 3.65011C276.582 5.33831 275.317 9.06229 275.317 14.822C275.317 19.688 276.608 23.1141 279.19 25.1002C279.538 25.3485 280.405 25.8217 281.796 26.5168C282.292 26.8147 282.789 27.0396 283.285 27.1886C279.263 28.6782 277.079 32.1772 276.731 37.6887L276.284 44.7658C276.135 46.8015 275.864 48.1772 275.466 48.8986C275.069 49.6172 274.175 49.953 272.785 49.9034V53.8523C274.324 54.746 275.837 55.0673 277.327 54.819C280.256 54.2232 281.971 51.3696 282.467 46.2553L283.285 37.0199C283.534 34.0904 284.194 31.9407 285.26 30.5767C286.329 29.2098 288.029 28.6782 290.362 28.9761V49.9034H286.936V53.8523H299.823V49.9034H296.47ZM281.945 14.898C281.945 11.6209 282.467 8.9513 283.51 6.89216C284.553 4.8301 286.837 4.19629 290.362 4.99074V24.7293C284.752 25.7224 281.945 22.4452 281.945 14.898ZM266.824 49.9034V5.1397H270.177V1.1178H257.068C254.536 1.1178 252.004 1.9619 249.472 3.65011C246.936 5.33831 245.672 9.06229 245.672 14.822C245.672 19.688 246.963 23.1141 249.545 25.1002C249.892 25.3485 250.763 25.8217 252.153 26.5168C252.649 26.8147 253.146 27.0396 253.642 27.1886C249.618 28.6782 247.433 32.1772 247.088 37.6887L246.638 44.7658C246.489 46.8015 246.218 48.1772 245.821 48.8986C245.423 49.6172 244.53 49.953 243.139 49.9034V53.8523C244.679 54.746 246.192 55.0673 247.681 54.819C250.614 54.2232 252.325 51.3696 252.822 46.2553L253.642 37.0199C253.891 34.0904 254.548 31.9407 255.614 30.5767C256.683 29.2098 258.383 28.6782 260.717 28.9761V49.9034H257.29V53.8523H270.177V49.9034H266.824ZM252.299 14.898C252.299 11.6209 252.822 8.9513 253.864 6.89216C254.907 4.8301 257.191 4.19629 260.717 4.99074V24.7293C255.106 25.7224 252.299 22.4452 252.299 14.898ZM231.24 23.3887V5.1397H227.89V1.1178H240.776V5.1397H237.423V49.9034H240.776V53.8523H227.89V49.9034H231.24V27.7085H221.111V49.9034H224.464V53.8523H211.505V49.9034H214.931V5.1397H211.505V1.1178H224.464V5.1397H221.111V23.3887H231.24ZM197.064 23.3887V5.1397H193.711V1.1178H206.598V5.1397H203.245V49.9034H206.598V53.8523H193.711V49.9034H197.064V27.7085H186.935V49.9034H190.285V53.8523H177.326V49.9034H180.752V5.1397H177.326V1.1178H190.285V5.1397H186.935V23.3887H197.064ZM172.46 17.9502H168.587C168.587 17.553 168.572 17.1441 168.549 16.7235C168.522 16.3 168.499 15.891 168.473 15.4938C168.449 15.0966 168.411 14.6994 168.362 14.3021C168.362 13.5574 168.312 12.8126 168.213 12.0678C168.114 11.323 168.014 10.5782 167.915 9.83337C167.716 8.29413 167.445 7.22513 167.097 6.62929C166.253 5.43762 164.962 4.84178 163.224 4.84178H158.904V23.5376H162.033V17.9502H166.203V33.4449H162.033V27.7844H158.904V49.8304H163.446C165.333 49.8304 166.65 49.3455 167.395 48.3787C168.14 47.4091 168.587 45.9808 168.736 44.094C168.885 42.2072 169.007 39.3769 169.107 35.6033H173.277V53.8523H149.371V49.9034H152.797V5.1397H149.371V1.1178H172.46V17.9502ZM130.786 31.5084V49.9034H134.139V53.8523H121.253V49.9034H124.679V5.1397H121.253V1.1178H131.756C134.487 1.1178 136.809 1.35438 138.719 1.82463C140.632 2.29779 142.393 3.66179 144.008 5.92247C145.621 8.18314 146.427 11.6705 146.427 16.3876C146.427 26.4671 142.504 31.5084 134.659 31.5084H130.786ZM130.786 27.3346C134.411 28.1787 136.759 27.4719 137.825 25.2141C138.894 22.9535 139.426 19.9363 139.426 16.1627C139.525 12.1904 139.017 9.13823 137.901 7.00315C136.782 4.86807 134.411 4.14664 130.786 4.84178V27.3346ZM110.738 53.8523H98.2984V49.9034H101.651V4.99074C99.7647 4.59352 98.3481 5.26529 97.4047 7.00315C97.1564 7.45003 96.9695 8.11888 96.8468 9.01264C96.7212 9.90639 96.6102 10.7505 96.5109 11.5449C96.5109 11.8429 96.473 12.2547 96.3999 12.7746C96.324 13.2974 96.2627 13.7793 96.213 14.2262C96.0641 15.5668 95.991 16.9571 95.991 18.3971H92.1911V1.1178H116.918V18.3971H113.045C112.946 16.5103 112.847 15.12 112.747 14.2262C112.747 13.7793 112.724 13.3325 112.674 12.8856C112.625 12.4387 112.575 11.9918 112.526 11.5449C112.426 9.31056 112.128 7.7976 111.632 7.00315C110.639 5.26529 109.248 4.59352 107.461 4.99074V49.9034H110.738V53.8523ZM74.9966 26.511L79.588 5.1397H76.235V1.1178H89.1214V5.1397H85.7683L76.9272 44.2517C75.8202 49.1469 73.8341 54.451 67.8056 54.5182C61.8677 54.5854 59.7385 45.569 62.1539 42.5752C63.3515 41.0885 65.3872 41.1119 66.5643 42.6979C67.6041 44.0969 67.5369 46.9447 66.5059 48.3525C65.4018 49.8596 66.0269 52.1495 68.4774 49.7749C70.2328 48.075 71.0155 43.7055 71.5968 41.0476L72.1985 38.2933L63.2755 5.1397H59.8495V1.1178H72.8089V5.1397H69.4588L74.9966 26.511ZM47.2434 23.3887V5.1397H43.8904V1.1178H56.7768V5.1397H53.4238V49.9034H56.7768V53.8523H43.8904V49.9034H47.2434V27.7085H37.1142V49.9034H40.4643V53.8523H27.5049V49.9034H30.9309V5.1397H27.5049V1.1178H40.4643V5.1397H37.1142V23.3887H47.2434ZM9.68235 49.6814C13.0091 50.1779 15.2552 49.5938 16.4235 47.929C17.5889 46.267 18.173 43.4251 18.173 39.4032C18.173 38.5095 18.1234 37.1688 18.0241 35.3813C17.8254 32.7001 17.4049 30.9126 16.7594 30.0188C16.2132 29.125 15.3048 28.4299 14.0401 27.9334C12.7725 27.4368 11.3209 27.3346 9.68235 27.6355V49.6814ZM9.68235 23.2397C13.0588 24.0341 15.2435 23.3887 16.2365 21.3032C17.2296 19.2178 17.6765 16.04 17.5772 11.7698C17.4779 9.08858 16.7214 7.09077 15.3048 5.77351C13.8912 4.45916 12.016 4.09699 9.68235 4.69282V23.2397Z" fill="#333333"/>
</svg>
