<svg width="180" height="231" viewBox="0 0 180 231" fill="none" xmlns="http://www.w3.org/2000/svg">
<path d="M10.8046 10.8046V17.5888L18.7614 18.7614C24.3731 20.0178 30.8223 25.8807 30.8223 49.2487V99.1675C33.9213 96.7386 37.8579 96.7386 41.6269 99.1675C40.0355 103.188 36.6853 109.637 32.3299 114.244C36.6853 124.462 40.0355 138.617 42.2132 164.832C44.3909 138.617 48.0761 124.462 52.0964 114.244C48.0761 109.637 44.3909 103.188 42.7995 99.1675C48.6624 96.7386 54.1904 96.7386 60.0533 99.1675C65.9162 96.7386 72.1142 96.7386 77.8934 99.1675C83.5051 96.7386 89.368 96.7386 94.8959 99.1675C100.089 96.7386 105.617 96.7386 110.558 99.1675C113.322 104.444 114.914 109.972 113.992 115.165C123.792 121.949 132.754 139.203 127.812 164.832C137.109 145.736 137.109 121.949 132.168 111.228C126.891 105.952 119.185 101.68 111.48 99.1675C116.756 96.7386 121.363 96.7386 124.797 99.1675C132.168 92.3832 145.066 78.8985 145.066 56.9543C145.066 24.3731 122.284 10.8046 92.132 10.8046H10.8046ZM20.0178 154.363C20.0178 165.168 17.8401 173.794 11.9772 175.051L0 176.893V205.119L19.6827 231H129.069C158.299 231 179.909 209.475 179.909 178.652C179.909 155.871 171.868 139.203 159.891 125.048C168.183 118.264 178.652 104.025 178.652 84.0076C178.652 45.5634 148.751 0 95.1472 0H0V28.3096L9.88325 30.1523C15.7462 30.7386 20.0178 35.0939 20.0178 49.2487V154.363ZM41.6269 98.9162C40.0355 88.1117 36.6853 81.9137 32.665 77.3071C36.6853 69.9365 40.0355 58.797 42.2132 35.764C44.3909 58.797 48.0761 69.9365 52.6827 77.3071C48.0761 81.9137 44.3909 88.1117 42.7995 98.9162H41.6269ZM54.5254 50.8401C54.5254 33.5863 60.0533 22.1954 70.5228 22.1954H91.4619C108.129 22.1954 118.934 39.7005 118.934 59.7183C118.934 79.1497 109.972 92.132 85.599 92.132H54.5254V50.8401ZM110.558 98.9162C115.835 92.3833 120.442 85.0127 121.363 75.1294C127.812 68.6802 129.655 56.368 127.226 35.764C134.596 48.0761 136.774 64.4086 136.439 77.3071C132.168 84.6777 122.619 91.797 111.48 98.9162H110.558ZM102.266 58.797C105.365 58.797 105.952 63.7386 105.952 69.2665C105.952 76.3858 98.5812 80.7411 93.3046 80.7411H88.1117V69.9365C88.1117 64.4086 90.5406 58.797 94.2259 58.797H102.266ZM87.7766 178.066C104.444 178.066 113.322 158.299 113.322 141.046C113.322 121.698 103.188 108.129 86.8553 108.129H60.0533V155.871C60.0533 170.025 64.0736 178.066 70.5228 178.066H87.7766ZM25.2944 49.2487C25.2944 34.7589 21.5254 25.797 15.4112 24.5406L5.52792 23.033V5.52792H92.3832C130.325 5.52792 150.343 25.1269 150.343 56.9543C150.343 80.0711 139.203 93.8909 132.754 98.8325V99.1675C145.736 109.972 151.515 124.127 151.515 141.381C151.515 179.992 131.246 199.591 100.424 199.591H5.52792V182.17L15.4112 180.579C22.7817 179.071 25.2944 170.109 25.2944 155.871V49.2487ZM60.0533 86.8553H87.7766C104.695 86.8553 113.322 76.3858 113.322 59.7183C113.322 40.3706 102.602 27.3883 92.3832 27.3883H70.5228C64.0736 27.3883 60.0533 35.764 60.0533 50.8401V86.8553ZM88.1117 138.952L98.5812 139.203C103.523 139.203 106.287 144.145 106.287 149.673C106.287 160.477 97.9949 171.282 92.7183 171.282C89.9543 171.282 88.1117 166.34 88.1117 159.556V138.952Z" fill="#333333"/>
</svg>
