<svg width="601" height="55" viewBox="0 0 601 55" fill="none" xmlns="http://www.w3.org/2000/svg">
<path d="M3.39262 49.9649V5.64417H0V1.66138H13.4295C14.4162 1.66138 15.6459 1.89452 17.1187 2.3608C18.5962 2.83193 20.0593 4.0122 21.5125 5.9016C22.961 7.79585 23.69 10.5352 23.69 14.1246C23.69 16.6794 23.2575 18.87 22.3972 20.6865C21.5368 22.5079 19.7287 24.1302 16.9728 25.5533C18.9413 26.0973 20.7981 27.4233 22.543 29.5361C24.2927 31.6538 25.0899 35.1411 24.9441 40.0079C24.7934 45.7101 23.588 49.4501 21.3278 51.218C19.0629 52.986 16.8513 53.8748 14.6835 53.8748H0V49.9649H3.39262ZM597.68 49.9649V5.64417H601V1.66138H576.255V5.64417H579.575L579.113 40.9453C579.021 48.0269 577.247 49.9018 573.99 49.6249V53.5349C575.516 54.4188 577.028 54.7734 578.496 54.4917C581.402 53.938 585.14 51.6795 585.237 42.4219L585.626 5.64417H591.629V49.9649H588.236V53.8748H601V49.9649H597.68ZM547.141 27.7681C547.141 17.1506 548.531 9.95725 551.311 6.19788C554.091 2.43851 556.954 0.558824 559.909 0.558824C562.908 0.558824 565.8 2.42394 568.581 6.15902C571.361 9.89896 572.751 17.0971 572.751 27.7681C572.751 38.5362 571.361 45.7635 568.581 49.4501C565.8 53.1366 562.908 54.9774 559.909 54.9774C556.954 54.9774 554.091 53.122 551.311 49.4112C548.531 45.7004 547.141 38.4877 547.141 27.7681ZM553.931 27.7681C553.931 32.6835 554.018 36.5788 554.189 39.4542C554.364 42.3345 554.879 45.035 555.739 47.5655C556.599 50.1009 558.014 51.3637 559.982 51.3637C562.738 51.3152 564.42 49.1295 565.037 44.8018C565.65 40.4742 565.961 34.7963 565.961 27.7681C565.961 20.7399 565.65 15.0572 565.037 10.7344C564.42 6.40673 562.738 4.24534 559.982 4.24534C558.014 4.24534 556.59 5.50817 555.7 8.04356C554.816 10.5741 554.3 13.2649 554.15 16.116C554.004 18.9671 553.931 22.8528 553.931 27.7681ZM537.43 53.8748H525.108V49.9649H528.428V5.49846C526.557 5.10504 525.157 5.7656 524.224 7.48986C523.976 7.93185 523.791 8.59241 523.67 9.48126C523.548 10.3652 523.436 11.2007 523.339 11.9875C523.339 12.2838 523.3 12.6869 523.227 13.2018C523.154 13.7215 523.091 14.1975 523.043 14.6395C522.892 15.9703 522.819 17.3448 522.819 18.7728H519.057V1.66138H543.559V18.7728H539.719C539.622 16.9029 539.525 15.5283 539.422 14.6395C539.422 14.1975 539.398 13.7555 539.35 13.3135C539.301 12.8715 539.252 12.4295 539.204 11.9875C539.107 9.77268 538.81 8.2767 538.319 7.48986C537.332 5.7656 535.957 5.10504 534.183 5.49846V49.9649H537.43V53.8748ZM514.055 1.66138V18.0346H510.293C510.046 14.246 509.516 10.9772 508.704 8.22813C507.892 5.47417 506.405 4.11905 504.242 4.16762C502.765 4.22105 501.622 4.99333 500.811 6.49416C499.999 7.99014 499.445 9.77268 499.148 11.8369C498.852 13.906 498.691 16.4123 498.667 19.3605C498.643 22.3088 498.633 24.8199 498.633 26.8841C498.633 42.0236 500.772 49.5715 505.054 49.5229C506.575 49.4258 507.965 48.1435 509.219 45.6858C510.478 43.2282 511.129 39.8622 511.178 35.5831H515.455C515.407 42.9076 514.24 47.8521 511.951 50.4069C509.667 52.9617 507.265 54.3168 504.757 54.4626C496.344 54.6617 491.916 45.4673 491.474 26.8841C491.328 19.312 491.979 13.5223 493.428 9.51525C494.881 5.50817 496.592 2.8805 498.56 1.62738C500.524 0.374255 502.42 -0.155165 504.242 0.0391173C506.653 0.286828 508.67 1.46709 510.293 3.57992L511.178 1.66138H514.055ZM485.87 18.3308H482.03C482.03 17.9374 482.02 17.5294 481.996 17.1117C481.971 16.694 481.942 16.286 481.918 15.8974C481.894 15.504 481.86 15.1106 481.811 14.7172C481.811 13.9789 481.762 13.2406 481.66 12.5024C481.563 11.7641 481.466 11.0258 481.369 10.2924C481.169 8.76727 480.897 7.70843 480.557 7.12072C479.716 5.94045 478.438 5.34789 476.717 5.34789H472.435V23.8582H475.536V18.3308H479.668V33.6694H475.536V28.0644H472.435V49.8921H476.941C478.807 49.8921 480.11 49.4112 480.849 48.4544C481.587 47.4927 482.03 46.0793 482.18 44.2141C482.326 42.3442 482.448 39.5416 482.545 35.8066H486.681V53.8748H462.991V49.9649H466.384V5.64417H462.991V1.66138H485.87V18.3308ZM444.701 31.7509V49.9649H448.021V53.8748H435.257V49.9649H438.65V5.64417H435.257V1.66138H445.659C448.366 1.66138 450.665 1.89452 452.561 2.3608C454.456 2.83193 456.201 4.1822 457.8 6.4213C459.399 8.65555 460.196 12.1089 460.196 16.7814C460.196 26.7578 456.313 31.7509 448.541 31.7509H444.701ZM444.701 27.6224C448.293 28.4578 450.616 27.7535 451.676 25.5193C452.731 23.2802 453.26 20.2931 453.26 16.558C453.358 12.6238 452.857 9.60268 451.749 7.48986C450.641 5.37218 448.293 4.66305 444.701 5.34789V27.6224ZM421.118 5.64417H411.086V49.9649H414.406V53.8748H401.564V49.9649H404.957V5.64417H401.564V1.66138H430.567V5.64417H427.247V49.9649H430.567V53.8748H417.798V49.9649H421.118V5.64417ZM374.545 40.7462H364.138L362.442 50.1106H365.762V53.8748H355.059V50.1106H357.718L367.162 0.777392H372.994L382.808 50.1106H385.982V53.8748H372.994V50.1106H376.387L374.545 40.7462ZM369.232 11.8369L364.95 36.472H373.806L369.232 11.8369ZM341.537 23.7125V5.64417H338.217V1.66138H350.981V5.64417H347.661V49.9649H350.981V53.8748H338.217V49.9649H341.537V27.9867H331.5V49.9649H334.82V53.8748H321.983V49.9649H325.376V5.64417H321.983V1.66138H334.82V5.64417H331.5V23.7125H341.537ZM302.352 18.3308H298.512C298.512 17.9374 298.502 17.5294 298.478 17.1117C298.454 16.694 298.429 16.286 298.405 15.8974C298.381 15.504 298.342 15.1106 298.293 14.7172C298.293 13.9789 298.245 13.2406 298.148 12.5024C298.045 11.7641 297.948 11.0258 297.851 10.2924C297.652 8.76727 297.384 7.70843 297.039 7.12072C296.203 5.94045 294.925 5.34789 293.2 5.34789H288.922V23.8582H292.018V18.3308H296.155V33.6694H292.018V28.0644H288.922V49.8921H293.423C295.29 49.8921 296.597 49.4112 297.331 48.4544C298.07 47.4927 298.512 46.0793 298.663 44.2141C298.809 42.3442 298.93 39.5416 299.032 35.8066H303.164V53.8748H279.474V49.9649H282.871V5.64417H279.474V1.66138H302.352V18.3308ZM266.788 1.66138L254.17 36.6905V5.94045C254.17 5.84331 254.622 5.78989 255.536 5.78989C256.444 5.78989 257.193 5.81903 257.786 5.8676V1.8848H246.422V5.8676H249.815V50.1835H246.422V54.0934H253.946L267.157 18.7728V49.9649H263.764V53.8748H274.978V49.9649H271.585V5.64417H274.978V1.66138H266.788ZM222.664 49.9649V5.64417H219.271V1.66138H232.701C233.688 1.66138 234.917 1.89452 236.39 2.3608C237.868 2.83193 239.331 4.0122 240.784 5.9016C242.232 7.79585 242.961 10.5352 242.961 14.1246C242.961 16.6794 242.529 18.87 241.669 20.6865C240.808 22.5079 239 24.1302 236.244 25.5533C238.213 26.0973 240.07 27.4233 241.814 29.5361C243.564 31.6538 244.361 35.1411 244.215 40.0079C244.065 45.7101 242.859 49.4501 240.599 51.218C238.334 52.986 236.123 53.8748 233.955 53.8748H219.271V49.9649H222.664ZM228.866 49.7415C232.161 50.2369 234.388 49.6589 235.544 48.0124C236.701 46.3658 237.28 43.5487 237.28 39.5659C237.28 38.6819 237.226 37.356 237.129 35.5831C236.934 32.9312 236.516 31.1583 235.875 30.2744C235.335 29.3904 234.436 28.7007 233.182 28.2101C231.928 27.7195 230.489 27.6224 228.866 27.9138V49.7415ZM228.866 23.5668C232.21 24.3487 234.373 23.7125 235.36 21.6482C236.342 19.584 236.784 16.4366 236.687 12.2061C236.589 9.55411 235.841 7.57243 234.436 6.27073C233.036 4.96904 231.175 4.61447 228.866 5.20218V23.5668ZM208.569 53.8748H196.242V49.9649H199.562V5.49846C197.696 5.10504 196.291 5.7656 195.358 7.48986C195.11 7.93185 194.925 8.59241 194.804 9.48126C194.682 10.3652 194.57 11.2007 194.473 11.9875C194.473 12.2838 194.434 12.6869 194.361 13.2018C194.289 13.7215 194.225 14.1975 194.177 14.6395C194.031 15.9703 193.958 17.3448 193.958 18.7728H190.191V1.66138H214.693V18.7728H210.853C210.756 16.9029 210.659 15.5283 210.561 14.6395C210.561 14.1975 210.537 13.7555 210.489 13.3135C210.435 12.8715 210.386 12.4295 210.338 11.9875C210.241 9.77268 209.944 8.2767 209.453 7.48986C208.471 5.7656 207.091 5.10504 205.322 5.49846V49.9649H208.569V53.8748ZM185.559 1.66138V18.0346H181.797C181.549 14.246 181.019 10.9772 180.208 8.22813C179.396 5.47417 177.909 4.11905 175.746 4.16762C174.268 4.22105 173.126 4.99333 172.314 6.49416C171.503 7.99014 170.948 9.77268 170.652 11.8369C170.355 13.906 170.195 16.4123 170.171 19.3605C170.146 22.3088 170.137 24.8199 170.137 26.8841C170.137 42.0236 172.275 49.5715 176.557 49.5229C178.079 49.4258 179.469 48.1435 180.723 45.6858C181.982 43.2282 182.633 39.8622 182.682 35.5831H186.959C186.91 42.9076 185.744 47.8521 183.454 50.4069C181.17 52.9617 178.769 54.3168 176.261 54.4626C167.847 54.6617 163.42 45.4673 162.977 26.8841C162.831 19.312 163.483 13.5223 164.931 9.51525C166.384 5.50817 168.095 2.8805 170.064 1.62738C172.027 0.374255 173.923 -0.155165 175.746 0.0391173C178.157 0.286828 180.174 1.46709 181.797 3.57992L182.682 1.66138H185.559ZM157.976 18.3308H154.141C154.141 17.9374 154.126 17.5294 154.102 17.1117C154.078 16.694 154.053 16.286 154.029 15.8974C154.005 15.504 153.971 15.1106 153.917 14.7172C153.917 13.9789 153.869 13.2406 153.771 12.5024C153.674 11.7641 153.577 11.0258 153.475 10.2924C153.281 8.76727 153.008 7.70843 152.663 7.12072C151.827 5.94045 150.549 5.34789 148.828 5.34789H144.546V23.8582H147.647V18.3308H151.779V33.6694H147.647V28.0644H144.546V49.8921H149.047C150.918 49.8921 152.221 49.4112 152.96 48.4544C153.699 47.4927 154.141 46.0793 154.287 44.2141C154.437 42.3442 154.559 39.5416 154.656 35.8066H158.787V53.8748H135.102V49.9649H138.495V5.64417H135.102V1.66138H157.976V18.3308ZM105.307 49.8921H95.2705V5.57132H98.5902V1.66138H85.7488V5.57132H89.1463V49.8921H85.7488V53.8748H130.913V49.8921H127.593V5.57132H130.913V1.66138H118.149V5.57132H121.469V49.8921H111.432V5.57132H114.751V1.66138H101.988V5.57132H105.307V49.8921ZM81.1751 2.19566V18.5688H77.4131C77.1701 14.7852 76.6403 11.5115 75.8286 8.76241C75.0169 6.00845 73.5295 4.65333 71.3618 4.70676C69.889 4.75533 68.742 5.5276 67.9303 7.02844C67.1186 8.52927 66.5645 10.307 66.2728 12.3761C65.9763 14.4403 65.8159 16.9466 65.7916 19.8948C65.7673 22.8479 65.7528 25.3542 65.7528 27.4184C65.7528 42.5579 67.8962 50.1058 72.1735 50.0572C73.6997 49.96 75.0898 48.6826 76.3438 46.2201C77.5978 43.7624 78.2491 40.3965 78.2977 36.1174H82.5798C82.5312 43.4467 81.3598 48.3864 79.0754 50.9412C76.7861 53.496 74.3899 54.8511 71.877 54.9968C63.4683 55.196 59.0404 46.0015 58.5981 27.4184C58.4474 19.8462 59.0987 14.0566 60.552 10.0495C62.0005 6.04245 63.7114 3.41478 65.6799 2.16166C67.6484 0.908532 69.5439 0.379112 71.3618 0.573395C73.7726 0.821105 75.7897 2.00137 77.4131 4.1142L78.2977 2.19566H81.1751ZM28.4631 27.7681C28.4631 17.1506 29.8531 9.95725 32.6334 6.19788C35.4136 2.43851 38.2764 0.558824 41.2316 0.558824C44.2305 0.558824 47.1225 2.42394 49.9027 6.15902C52.6829 9.89896 54.0681 17.0971 54.0681 27.7681C54.0681 38.5362 52.6829 45.7635 49.9027 49.4501C47.1225 53.1366 44.2305 54.9774 41.2316 54.9774C38.2764 54.9774 35.4136 53.122 32.6334 49.4112C29.8531 45.7004 28.4631 38.4877 28.4631 27.7681ZM35.2532 27.7681C35.2532 32.6835 35.3406 36.5788 35.5108 39.4542C35.6809 42.3345 36.201 45.035 37.0613 47.5655C37.9216 50.1009 39.336 51.3637 41.3045 51.3637C44.0604 51.3152 45.7421 49.1295 46.3594 44.8018C46.9718 40.4742 47.2829 34.7963 47.2829 27.7681C47.2829 20.7399 46.9718 15.0572 46.3594 10.7344C45.7421 6.40673 44.0604 4.24534 41.3045 4.24534C39.336 4.24534 37.907 5.50817 37.0224 8.04356C36.1378 10.5741 35.6226 13.2649 35.4719 16.116C35.3261 18.9671 35.2532 22.8528 35.2532 27.7681ZM9.59461 49.7415C12.89 50.2369 15.1161 49.6589 16.2729 48.0124C17.4297 46.3658 18.0081 43.5487 18.0081 39.5659C18.0081 38.6819 17.9595 37.356 17.8575 35.5831C17.663 32.9312 17.245 31.1583 16.6034 30.2744C16.0639 29.3904 15.1647 28.7007 13.9107 28.2101C12.6567 27.7195 11.218 27.6224 9.59461 27.9138V49.7415ZM9.59461 23.5668C12.9386 24.3487 15.1016 23.7125 16.0882 21.6482C17.0701 19.584 17.5124 16.4366 17.4151 12.2061C17.3179 9.55411 16.5694 7.57243 15.1647 6.27073C13.7649 4.96904 11.9082 4.61447 9.59461 5.20218V23.5668Z" fill="#333333"/>
</svg>
