<svg width="118" height="231" viewBox="0 0 118 231" fill="none" xmlns="http://www.w3.org/2000/svg">
<path d="M41.568 0C34.8102 18.4786 23.0894 21.576 11.0872 21.576H0V53.2887L22.4911 83.488H28.9674V154.199C28.9674 166.519 27.1019 173.558 21.576 174.473L8.94012 176.655V205.13L28.6506 231H117.031V200.519L97.039 173.875V30.1993L74.2312 0H41.568ZM63.4608 10.7704H50.5082C43.1167 24.9549 31.7128 32.3463 14.4661 32.3463H10.7704V42.5184H39.7378V99.1157C43.1167 96.6518 47.1292 96.6518 51.1417 99.1157C49.2762 103.128 45.8973 109.604 41.568 114.215C45.8973 124.387 49.2763 138.501 51.7401 164.688C53.8871 138.501 57.3012 124.387 61.5953 114.215C57.3012 109.604 53.8871 103.128 52.0568 99.1157C56.3509 96.6518 60.0466 96.6518 63.4608 99.1157V10.7704ZM14.4661 199.604V181.865L24.0398 180.351C32.0296 178.802 34.1766 169.933 34.1766 155.748V47.7276H5.2444V27.1019H12.0023C27.7355 27.1019 38.5059 21.8575 45.8973 5.56118H68.67V155.748C68.67 169.933 71.169 178.802 79.1588 180.351L89.014 181.865V199.604H14.4661ZM51.1417 98.8341C49.2762 88.0989 45.8973 81.9394 41.8848 77.3285C45.8973 69.9019 49.2763 58.8147 51.7401 35.7253C53.8871 58.8147 57.3012 69.9019 61.2785 77.3285C57.3012 81.9394 53.8871 88.0989 52.0568 98.8341H51.1417Z" fill="#333333"/>
</svg>
