<svg width="568" height="55" viewBox="0 0 568 55" fill="none" xmlns="http://www.w3.org/2000/svg">
<path d="M19.5165 5.64596H9.49964V49.9681H12.813V53.8757H0V49.9681H3.39017V5.64596H0V1.66143H28.9445V5.64596H25.6311V49.9681H28.9445V53.8757H16.2032V49.9681H19.5165V5.64596ZM442.232 26.8045L446.77 5.64596H443.456V1.66143H456.198V5.64596H452.884L444.138 44.3682C443.047 49.2194 441.08 54.4705 435.119 54.5372C429.25 54.6039 427.141 45.6759 429.532 42.7118C430.715 41.2401 432.728 41.2606 433.89 42.8298C434.92 44.2195 434.853 47.0348 433.834 48.4297C432.743 49.9219 433.358 52.1885 435.785 49.8399C437.521 48.1579 438.294 43.8297 438.868 41.199L439.467 38.4709L430.638 5.64596H427.253V1.66143H440.066V5.64596H436.753L442.232 26.8045ZM546.14 49.9681V5.64596H542.749V1.66143H556.156C557.135 1.66143 558.364 1.89732 559.838 2.36397C561.308 2.83063 562.768 4.01009 564.217 5.90236C565.666 7.79463 566.393 10.5382 566.393 14.1278C566.393 16.6816 565.963 18.8713 565.103 20.6918C564.243 22.5071 562.44 24.1327 559.69 25.5583C561.651 26.0968 563.505 27.425 565.252 29.5377C566.993 31.6557 567.792 35.1428 567.643 40.0093C567.495 45.7169 566.291 49.4501 564.033 51.2193C561.774 52.9937 559.567 53.8757 557.406 53.8757H542.749V49.9681H546.14ZM552.326 49.7476C555.614 50.2399 557.836 49.6604 558.988 48.0143C560.146 46.3682 560.719 43.5528 560.719 39.5683C560.719 38.6863 560.673 37.3581 560.571 35.5889C560.376 32.9325 559.961 31.1634 559.321 30.2762C558.784 29.3942 557.887 28.7019 556.633 28.2096C555.383 27.7224 553.944 27.6198 552.326 27.9173V49.7476ZM552.326 23.5635C555.665 24.3532 557.826 23.7122 558.804 21.6507C559.787 19.5841 560.228 16.4355 560.13 12.2099C560.033 9.55356 559.285 7.57412 557.887 6.27158C556.484 4.96905 554.63 4.61008 552.326 5.19981V23.5635ZM531.826 53.8757H519.525V49.9681H522.839V5.49724C520.974 5.10238 519.576 5.76903 518.644 7.48694C518.399 7.93309 518.214 8.59461 518.091 9.48177C517.968 10.3638 517.856 11.1997 517.758 11.9894C517.758 12.2817 517.723 12.6868 517.646 13.2048C517.574 13.7227 517.513 14.1996 517.467 14.6406C517.318 15.9688 517.241 17.3483 517.241 18.7739H513.487V1.66143H537.941V18.7739H534.11C534.013 16.9021 533.91 15.5278 533.813 14.6406C533.813 14.1996 533.787 13.7586 533.741 13.3125C533.69 12.8714 533.644 12.4304 533.593 11.9894C533.496 9.77407 533.199 8.27667 532.707 7.48694C531.729 5.76903 530.351 5.10238 528.584 5.49724V49.9681H531.826V53.8757ZM508.377 1.66143V18.0354H504.618C504.372 14.2509 503.844 10.9792 503.035 8.22539C502.226 5.4716 500.741 4.12291 498.58 4.16906C497.105 4.22035 495.963 4.99469 495.154 6.49209C494.345 7.99462 493.792 9.77407 493.5 11.8407C493.203 13.9022 493.044 16.4098 493.018 19.3636C492.993 22.3123 492.983 24.8199 492.983 26.8865C492.983 42.0298 495.118 49.5732 499.389 49.5271C500.91 49.4245 502.298 48.1476 503.553 45.6912C504.802 43.2298 505.452 39.8657 505.504 35.5889H509.775C509.723 42.9118 508.561 47.8553 506.277 50.4091C503.993 52.968 501.601 54.3167 499.097 54.4654C490.699 54.6654 486.279 45.4707 485.839 26.8865C485.69 19.3123 486.341 13.5227 487.79 9.51767C489.239 5.5075 490.944 2.88191 492.911 1.62553C494.872 0.374274 496.762 -0.159048 498.58 0.0409473C500.987 0.287096 502.999 1.46656 504.618 3.57933L505.504 1.66143H508.377ZM479.791 1.66143V18.0354H476.032C475.786 14.2509 475.258 10.9792 474.449 8.22539C473.64 5.4716 472.155 4.12291 469.994 4.16906C468.519 4.22035 467.377 4.99469 466.568 6.49209C465.759 7.99462 465.206 9.77407 464.914 11.8407C464.617 13.9022 464.458 16.4098 464.432 19.3636C464.407 22.3123 464.397 24.8199 464.397 26.8865C464.397 42.0298 466.532 49.5732 470.803 49.5271C472.324 49.4245 473.712 48.1476 474.967 45.6912C476.216 43.2298 476.866 39.8657 476.918 35.5889H481.189C481.137 42.9118 479.97 47.8553 477.691 50.4091C475.407 52.968 473.01 54.3167 470.506 54.4654C462.113 54.6654 457.693 45.4707 457.253 26.8865C457.104 19.3123 457.755 13.5227 459.204 9.51767C460.653 5.5075 462.358 2.88191 464.32 1.62553C466.286 0.374274 468.176 -0.159048 469.994 0.0409473C472.401 0.287096 474.413 1.46656 476.032 3.57933L476.918 1.66143H479.791ZM408.802 53.8603H396.132V49.9527H399.523V5.63057H396.132V1.64604H408.802V5.63057H405.489V23.7738C407.204 24.0199 408.459 23.4045 409.242 21.9277C409.831 20.9431 410.174 19.2969 410.272 16.9893C410.518 12.6099 410.743 9.53818 410.937 7.76899C411.132 5.99979 411.711 4.35368 412.668 2.8255C413.626 1.30246 415.208 0.543501 417.416 0.543501C419.628 0.49222 421.236 1.3281 422.24 3.05114C423.249 4.76905 423.704 6.7126 423.607 8.87665C423.556 10.7433 423.197 12.0971 422.537 12.933C421.876 13.7689 421.103 14.1842 420.217 14.1842C419.479 14.1842 418.803 13.8048 418.189 13.0407C417.579 12.2817 417.247 11.1638 417.195 9.68689C417.098 8.94845 417.175 8.16385 417.416 7.32797C417.467 7.17926 417.539 7.0049 417.641 6.81003C417.738 6.61517 417.81 6.41517 417.861 6.2203C417.958 5.97415 417.958 5.75365 417.861 5.55878C417.661 5.21007 417.441 4.98956 417.195 4.89213C416.463 4.84597 415.931 5.34853 415.613 6.40491C415.296 7.4613 415.086 8.76384 414.988 10.3125C414.891 11.8612 414.84 13.5227 414.84 15.2919C414.84 17.9483 414.62 19.9123 414.179 21.1892C413.59 23.1584 412.53 24.5584 411.009 25.3942C411.209 25.4455 411.403 25.5173 411.598 25.6148C411.798 25.7122 411.967 25.8148 412.115 25.9122C412.899 26.2558 413.416 26.5276 413.662 26.7224C417.149 28.7378 418.891 34.6607 418.891 44.4964C418.891 46.6092 419.162 47.9886 419.7 48.6245C420.391 49.6604 421.42 50.1014 422.793 49.9527V53.8603C421.518 54.7475 420.242 55.1167 418.962 54.968C417.001 54.8705 415.403 53.9116 414.179 52.0911C413.247 50.8142 412.633 48.3066 412.336 44.5682C412.336 44.4195 412.274 43.5016 412.151 41.8042C412.028 40.1068 411.921 38.6709 411.818 37.4914C411.721 34.5376 411.403 32.4505 410.866 31.2198C409.734 28.8096 407.942 27.7327 405.489 27.9737V49.9527H408.802V53.8603ZM391.119 1.66143V18.0354H387.365C387.119 14.2509 386.592 10.9792 385.783 8.22539C384.968 5.4716 383.483 4.12291 381.327 4.16906C379.852 4.22035 378.71 4.99469 377.901 6.49209C377.092 7.99462 376.539 9.77407 376.242 11.8407C375.95 13.9022 375.791 16.4098 375.766 19.3636C375.74 22.3123 375.73 24.8199 375.73 26.8865C375.73 42.0298 377.865 49.5732 382.136 49.5271C383.657 49.4245 385.045 48.1476 386.295 45.6912C387.549 43.2298 388.2 39.8657 388.246 35.5889H392.522C392.471 42.9118 391.303 47.8553 389.019 50.4091C386.74 52.968 384.344 54.3167 381.839 54.4654C373.446 54.6654 369.026 45.4707 368.586 26.8865C368.437 19.3123 369.088 13.5227 370.537 9.51767C371.986 5.5075 373.692 2.88191 375.653 1.62553C377.62 0.374274 379.509 -0.159048 381.327 0.0409473C383.729 0.287096 385.742 1.46656 387.365 3.57933L388.246 1.66143H391.119ZM358.636 1.66143L346.043 36.6914V5.93826C346.043 5.84082 346.494 5.79467 347.405 5.79467C348.312 5.79467 349.059 5.81518 349.648 5.86646V1.88193H338.305V5.86646H341.695V50.1886H338.305V54.0962H345.818L359.004 18.7739V49.9681H355.614V53.8757H366.809V49.9681H363.424V5.64596H366.809V1.66143H358.636ZM304.659 23.7892V5.56903H307.978V1.66143H295.236V5.56903H298.622V49.8963H295.236V53.8757H305.617C308.321 53.8757 310.615 53.6449 312.505 53.1783C314.395 52.7065 316.141 51.3578 317.733 49.1219C319.331 46.881 320.13 43.4298 320.13 38.7581C320.13 28.7788 316.248 23.7892 308.49 23.7892H304.659ZM304.659 27.9173C308.244 27.0814 310.564 27.7839 311.624 30.0198C312.679 32.2556 313.206 35.2402 313.206 38.9786C313.304 42.9118 312.802 45.9374 311.696 48.0502C310.59 50.1629 308.244 50.8758 304.659 50.1886V27.9173ZM287.319 49.9681V5.64596H290.633V1.66143H265.934V5.64596H269.247L268.786 40.9478C268.694 48.0297 266.927 49.9014 263.675 49.6296V53.5372C265.201 54.4193 266.702 54.7731 268.171 54.4962C271.07 53.9424 274.803 51.686 274.901 42.4247L275.285 5.64596H281.276V49.9681H277.891V53.8757H290.633V49.9681H287.319ZM259.916 18.3277H256.086C256.086 17.938 256.07 17.5329 256.05 17.1124C256.024 16.697 255.999 16.2868 255.973 15.897C255.947 15.5022 255.912 15.1073 255.865 14.7176C255.865 13.9791 255.814 13.2407 255.717 12.5022C255.62 11.7638 255.517 11.0305 255.42 10.292C255.225 8.76896 254.954 7.70745 254.611 7.11772C253.776 5.93826 252.501 5.34853 250.78 5.34853H246.509V23.8609H249.602V18.3277H253.73V33.671H249.602V28.066H246.509V49.8963H251C252.87 49.8963 254.17 49.4142 254.908 48.4553C255.64 47.4963 256.086 46.0861 256.229 44.2144C256.378 42.3477 256.5 39.5427 256.598 35.8094H260.725V53.8757H237.081V49.9681H240.471V5.64596H237.081V1.66143H259.916V18.3277ZM226.609 53.8757H214.308V49.9681H217.621V5.49724C215.757 5.10238 214.359 5.76903 213.422 7.48694C213.176 7.93309 212.992 8.59461 212.874 9.48177C212.751 10.3638 212.638 11.1997 212.541 11.9894C212.541 12.2817 212.505 12.6868 212.428 13.2048C212.357 13.7227 212.295 14.1996 212.244 14.6406C212.101 15.9688 212.024 17.3483 212.024 18.7739H208.27V1.66143H232.718V18.7739H228.888C228.79 16.9021 228.693 15.5278 228.596 14.6406C228.596 14.1996 228.57 13.7586 228.524 13.3125C228.473 12.8714 228.422 12.4304 228.375 11.9894C228.278 9.77407 227.981 8.27667 227.489 7.48694C226.506 5.76903 225.134 5.10238 223.367 5.49724V49.9681H226.609V53.8757ZM195.349 1.66143L182.757 36.6914V5.93826C182.757 5.84082 183.212 5.79467 184.119 5.79467C185.025 5.79467 185.778 5.81518 186.367 5.86646V1.88193H175.024V5.86646H178.409V50.1886H175.024V54.0962H182.536L195.718 18.7739V49.9681H192.328V53.8757H203.523V49.9681H200.138V5.64596H203.523V1.66143H195.349ZM150.494 49.9681V5.64596H147.109V1.66143H160.511C161.494 1.66143 162.723 1.89732 164.193 2.36397C165.668 2.83063 167.127 4.01009 168.576 5.90236C170.026 7.79463 170.748 10.5382 170.748 14.1278C170.748 16.6816 170.318 18.8713 169.457 20.6918C168.602 22.5071 166.794 24.1327 164.044 25.5583C166.011 26.0968 167.864 27.425 169.606 29.5377C171.352 31.6557 172.146 35.1428 172.002 40.0093C171.854 45.7169 170.65 49.4501 168.392 51.2193C166.134 52.9937 163.921 53.8757 161.765 53.8757H147.109V49.9681H150.494ZM156.68 49.7476C159.973 50.2399 162.19 49.6604 163.348 48.0143C164.5 46.3682 165.079 43.5528 165.079 39.5683C165.079 38.6863 165.027 37.3581 164.93 35.5889C164.736 32.9325 164.316 31.1634 163.675 30.2762C163.138 29.3942 162.242 28.7019 160.992 28.2096C159.737 27.7224 158.303 27.6198 156.68 27.9173V49.7476ZM156.68 23.5635C160.019 24.3532 162.18 23.7122 163.163 21.6507C164.147 19.5841 164.587 16.4355 164.49 12.2099C164.392 9.55356 163.64 7.57412 162.242 6.27158C160.843 4.96905 158.99 4.61008 156.68 5.19981V23.5635ZM118.656 27.7686C118.656 17.1483 120.044 9.95868 122.819 6.19979C125.595 2.43577 128.453 0.553757 131.397 0.553757C134.393 0.553757 137.276 2.42551 140.052 6.15876C142.827 9.89715 144.215 17.1021 144.215 27.7686C144.215 38.5376 142.827 45.763 140.052 49.4501C137.276 53.1372 134.393 54.9834 131.397 54.9834C128.453 54.9834 125.595 53.127 122.819 49.4142C120.044 45.7015 118.656 38.4863 118.656 27.7686ZM125.431 27.7686C125.431 32.6864 125.518 36.5837 125.692 39.4606C125.861 42.3323 126.378 45.04 127.239 47.5733C128.094 50.1014 129.507 51.368 131.474 51.368C134.224 51.3219 135.904 49.1322 136.518 44.8041C137.133 40.4811 137.44 34.7992 137.44 27.7686C137.44 20.7379 137.133 15.0611 136.518 10.733C135.904 6.40491 134.224 4.24599 131.474 4.24599C129.507 4.24599 128.084 5.5075 127.203 8.04078C126.317 10.5741 125.8 13.2663 125.656 16.1175C125.508 18.9687 125.431 22.8507 125.431 27.7686ZM98.6272 31.7531V49.9681H101.941V53.8757H89.1993V49.9681H92.5895V5.64596H89.1993V1.66143H99.5849C102.284 1.66143 104.578 1.89732 106.468 2.36397C108.362 2.83063 110.104 4.18445 111.701 6.4203C113.294 8.65615 114.093 12.1125 114.093 16.779C114.093 26.7634 110.216 31.7531 102.458 31.7531H98.6272ZM98.6272 27.6198C102.212 28.4557 104.532 27.7583 105.587 25.5225C106.642 23.2815 107.169 20.2969 107.169 16.5585C107.267 12.6253 106.765 9.60485 105.659 7.48694C104.557 5.37417 102.212 4.66136 98.6272 5.34853V27.6198ZM71.2038 53.8603H58.5342V49.9527H61.9243V5.63057H58.5342V1.64604H71.2038V5.63057H67.8853V23.7738C69.606 24.0199 70.8606 23.4045 71.6442 21.9277C72.2331 20.9431 72.5762 19.2969 72.6735 16.9893C72.9193 12.6099 73.1395 9.53818 73.3393 7.76899C73.5339 5.99979 74.1125 4.35368 75.0702 2.8255C76.0278 1.30246 77.6103 0.543501 79.8174 0.543501C82.0298 0.49222 83.6378 1.3281 84.6415 3.05114C85.6504 4.76905 86.101 6.7126 86.0037 8.87665C85.9576 10.7433 85.5992 12.0971 84.9385 12.933C84.2728 13.7689 83.4995 14.1842 82.6187 14.1842C81.8813 14.1842 81.2053 13.8048 80.5907 13.0407C79.9762 12.2817 79.6484 11.1638 79.5972 9.68689C79.4999 8.94845 79.5716 8.16385 79.8174 7.32797C79.8687 7.17926 79.9403 7.0049 80.0376 6.81003C80.1401 6.61517 80.2118 6.41517 80.2579 6.2203C80.3603 5.97415 80.3603 5.75365 80.2579 5.55878C80.0633 5.21007 79.843 4.98956 79.5972 4.89213C78.8598 4.84597 78.3323 5.34853 78.0148 6.40491C77.6973 7.4613 77.4873 8.76384 77.39 10.3125C77.2876 11.8612 77.2415 13.5227 77.2415 15.2919C77.2415 17.9483 77.0213 19.9123 76.5758 21.1892C75.9869 23.1584 74.9319 24.5584 73.411 25.3942C73.6056 25.4455 73.8053 25.5173 73.9999 25.6148C74.1945 25.7122 74.3686 25.8148 74.5171 25.9122C75.3006 26.2558 75.8179 26.5276 76.0637 26.7224C79.546 28.7378 81.2923 34.6607 81.2923 44.4964C81.2923 46.6092 81.5638 47.9886 82.1015 48.6245C82.7877 49.6604 83.8222 50.1014 85.1946 49.9527V53.8603C83.9194 54.7475 82.6443 55.1167 81.364 54.968C79.4026 54.8705 77.8049 53.9116 76.5758 52.0911C75.6437 50.8142 75.0292 48.3066 74.7373 44.5682C74.7373 44.4195 74.6759 43.5016 74.553 41.8042C74.43 40.1068 74.3174 38.6709 74.2201 37.4914C74.1228 34.5376 73.8053 32.4505 73.2624 31.2198C72.1358 28.8096 70.3434 27.7327 67.8853 27.9737V49.9527H71.2038V53.8603ZM31.0287 27.7686C31.0287 17.1483 32.4166 9.95868 35.1922 6.19979C37.9627 2.43577 40.8254 0.553757 43.77 0.553757C46.7659 0.553757 49.6491 2.42551 52.4247 6.15876C55.1952 9.89715 56.583 17.1021 56.583 27.7686C56.583 38.5376 55.1952 45.763 52.4247 49.4501C49.6491 53.1372 46.7659 54.9834 43.77 54.9834C40.8254 54.9834 37.9627 53.127 35.1922 49.4142C32.4166 45.7015 31.0287 38.4863 31.0287 27.7686ZM37.8039 27.7686C37.8039 32.6864 37.891 36.5837 38.06 39.4606C38.2341 42.3323 38.7514 45.04 39.6066 47.5733C40.4669 50.1014 41.8803 51.368 43.8417 51.368C46.5918 51.3219 48.2766 49.1322 48.886 44.8041C49.5005 40.4811 49.8078 34.7992 49.8078 27.7686C49.8078 20.7379 49.5005 15.0611 48.886 10.733C48.2766 6.40491 46.5918 4.24599 43.8417 4.24599C41.8803 4.24599 40.4567 5.5075 39.5707 8.04078C38.6899 10.5741 38.1727 13.2663 38.0242 16.1175C37.8756 18.9687 37.8039 22.8507 37.8039 27.7686Z" fill="#333333"/>
</svg>
