<svg width="194" height="231" viewBox="0 0 194 231" fill="none" xmlns="http://www.w3.org/2000/svg">
<path d="M88.0582 70.1082C88.0582 63.5297 90.6896 56.4813 98.2079 55.4475L104.974 54.5077V155.817C104.974 168.786 103.189 174.049 98.8658 174.989L88.0582 176.868V70.1082ZM66.537 18.7958H103.753C111.929 18.7958 115.782 31.3889 115.782 49.2449V99.1477C119.917 96.2343 123.394 97.832 127.153 99.1477C125.65 103.189 121.985 109.673 117.662 114.278C121.985 124.428 125.65 138.619 127.529 164.745C129.691 138.619 133.356 124.428 137.679 114.278C133.356 109.673 129.691 103.189 128.375 99.1477C132.698 96.7042 137.021 96.7042 139.465 99.1477V49.2449C139.465 31.3889 143.788 20.0175 151.494 18.7958L159.482 17.574V10.8076H10.8076V17.574L18.7958 18.7958C26.502 20.0175 30.8251 31.3889 30.8251 49.2449V99.1477C33.2685 96.7042 37.5915 96.7042 42.1965 99.1477C40.6928 103.189 37.3096 109.673 32.6107 114.278C37.3096 124.428 40.6928 138.619 42.7604 164.745C44.9219 138.619 48.3051 124.428 52.6282 114.278C48.3051 109.673 44.9219 103.189 43.1363 99.1477C47.0834 97.832 50.5606 96.1404 54.5077 99.1477V49.2449C54.5077 31.3889 58.7368 18.7958 66.537 18.7958ZM70.2022 23.1188C63.6237 23.1188 60.0525 34.7722 60.0525 49.2449V155.817C60.0525 170.008 62.4959 178.936 70.2022 180.439L80.07 182.131V199.517H5.54475V182.131L15.4125 180.533C22.7429 179.03 25.2803 170.008 25.2803 155.911V49.2449C25.2803 34.7722 21.5212 25.7502 15.4125 24.5285L5.54475 23.0248V5.54475H164.745V23.1188L155.253 24.6225C148.769 25.8442 145.009 34.7722 145.009 49.2449V155.817C145.009 170.008 147.547 179.03 155.253 180.533L164.745 182.131V199.517H90.5016V182.131L100.087 180.533C108.076 179.03 110.519 170.008 110.519 155.817V49.2449C110.519 34.7722 106.948 23.1188 100.087 23.1188H70.2022ZM20.0175 154.313C20.0175 165.121 17.856 173.767 12.0293 174.989L0 176.868V205.062L19.7356 231H105.914V223.858L112.399 231H193.127V207.599L173.109 181.379V79.788C173.109 63.1538 177.996 56.6692 183.541 56.0114L193.127 54.5077V30.1672L170.29 0H0V28.2876L9.86778 30.1672C15.6945 30.8251 20.0175 35.1481 20.0175 49.2449V154.313ZM42.1965 98.8658C40.6928 88.0582 37.3096 81.9496 32.6107 77.3446C37.3096 69.9203 40.6928 58.8308 42.7604 35.712C44.9219 58.8308 48.3051 69.9203 52.6282 77.3446C48.3051 81.9496 44.9219 88.0582 43.1363 98.8658H42.1965ZM127.153 98.8658C125.65 88.0582 121.985 81.9496 117.662 77.3446C121.985 69.9203 125.65 58.8308 127.529 35.712C129.691 58.8308 133.356 69.9203 137.679 77.3446C133.356 81.9496 129.691 88.0582 128.375 98.8658H127.153Z" fill="#333333"/>
</svg>
