<svg width="465" height="55" viewBox="0 0 465 55" fill="none" xmlns="http://www.w3.org/2000/svg">
<path d="M22.5393 1.66448V18.0479H18.785C18.541 14.2579 18.0153 10.9888 17.2019 8.23416C16.3947 5.47953 14.9118 4.12418 12.753 4.17438C11.2826 4.22458 10.1375 4.99638 9.33031 6.49605C8.52313 8.00199 7.96623 9.78402 7.67214 11.8484C7.37805 13.9128 7.22162 16.4227 7.19659 19.3781C7.17156 22.3273 7.15905 24.8372 7.15905 26.9016C7.15905 42.0552 9.29277 49.61 13.5602 49.5598C15.0807 49.4594 16.4698 48.1856 17.7213 45.7196C18.9727 43.2599 19.6235 39.8904 19.6673 35.611H23.9409C23.8909 42.9399 22.727 47.8844 20.4432 50.4445C18.1593 53.0046 15.769 54.36 13.2661 54.5043C4.88142 54.6988 0.463811 45.5 0.0195477 26.9016C-0.124369 19.3279 0.526384 13.5363 1.9718 9.52676C3.41722 5.51718 5.12545 2.88178 7.08396 1.62683C9.04873 0.371874 10.9384 -0.155207 12.753 0.0393111C15.1558 0.290302 17.1706 1.46996 18.785 3.58455L19.6673 1.66448H22.5393ZM452.999 40.7563H442.625L440.929 50.1308H444.245V53.8956H433.571V50.1308H436.224L445.641 0.760909H451.454L461.24 50.1308H464.406V53.8956H451.454V50.1308H454.839L452.999 40.7563ZM447.699 11.8296L443.432 36.4769H452.267L447.699 11.8296ZM419.986 31.7583V49.9865H423.296V53.8956H410.563V49.9865H413.948V5.63013H410.563V1.64565H420.944C423.64 1.64565 425.931 1.87782 427.82 2.34843C429.71 2.81276 431.449 4.16811 433.045 6.4082C434.641 8.64202 435.442 12.0994 435.442 16.7741C435.442 26.7635 431.562 31.7583 423.809 31.7583H419.986ZM419.986 27.6232C423.565 28.4577 425.887 27.7612 426.938 25.5211C427.995 23.281 428.521 20.2943 428.521 16.5545C428.621 12.6202 428.114 9.58951 427.013 7.47491C425.905 5.36031 423.565 4.64499 419.986 5.33521V27.6232ZM381.473 27.7675C381.473 17.1443 382.862 9.94717 385.634 6.18231C388.406 2.42372 391.265 0.541292 394.206 0.541292C397.197 0.541292 400.082 2.41117 402.854 6.14466C405.626 9.88442 407.009 17.0941 407.009 27.7675C407.009 38.5476 405.626 45.7761 402.854 49.4657C400.082 53.1552 397.197 55 394.206 55C391.265 55 388.406 53.1427 385.634 49.428C382.862 45.7133 381.473 38.4974 381.473 27.7675ZM388.243 27.7675C388.243 32.6932 388.331 36.5898 388.5 39.47C388.675 42.3438 389.188 45.0545 390.045 47.5832C390.909 50.1182 392.317 51.3857 394.281 51.3857C397.028 51.3355 398.705 49.1456 399.319 44.816C399.932 40.4865 400.238 34.8078 400.238 27.7675C400.238 20.7335 399.932 15.0548 399.319 10.7252C398.705 6.39565 397.028 4.23086 394.281 4.23086C392.317 4.23086 390.896 5.49836 390.014 8.02709C389.126 10.5621 388.612 13.254 388.469 16.109C388.318 18.964 388.243 22.8481 388.243 27.7675ZM371.43 53.8956H359.141V49.9865H362.451V5.48581C360.586 5.0905 359.191 5.75562 358.259 7.47491C358.015 7.92042 357.827 8.58554 357.708 9.47029C357.583 10.355 357.47 11.1896 357.376 11.9802C357.376 12.2751 357.339 12.6767 357.264 13.1975C357.189 13.712 357.126 14.1889 357.082 14.6344C356.932 15.9647 356.857 17.3388 356.857 18.7695H353.109V1.64565H377.537V18.7695H373.714C373.614 16.8996 373.514 15.5192 373.42 14.6344C373.42 14.1889 373.395 13.7497 373.345 13.3042C373.295 12.8649 373.245 12.4194 373.195 11.9802C373.101 9.7652 372.807 8.26553 372.312 7.47491C371.33 5.75562 369.96 5.0905 368.195 5.48581V49.9865H371.43V53.8956ZM343.279 40.7563H332.904L331.209 50.1308H334.525V53.8956H323.85V50.1308H326.503L335.92 0.760909H341.733L351.52 50.1308H354.686V53.8956H341.733V50.1308H345.118L343.279 40.7563ZM337.979 11.8296L333.711 36.4769H342.54L337.979 11.8296ZM310.022 31.7583V49.9865H313.332V53.8956H300.604V49.9865H303.99V5.63013H300.604V1.64565H310.979C313.676 1.64565 315.972 1.87782 317.856 2.34843C319.745 2.81276 321.491 4.16811 323.087 6.4082C324.676 8.64202 325.477 12.0994 325.477 16.7741C325.477 26.7635 321.597 31.7583 313.851 31.7583H310.022ZM310.022 27.6232C313.601 28.4577 315.922 27.7612 316.973 25.5211C318.031 23.281 318.556 20.2943 318.556 16.5545C318.657 12.6202 318.156 9.58951 317.048 7.47491C315.947 5.36031 313.601 4.64499 310.022 5.33521V27.6232ZM296.105 18.324H292.276C292.276 17.9287 292.264 17.5271 292.245 17.1067C292.22 16.6863 292.195 16.2847 292.17 15.8894C292.145 15.4941 292.107 15.0988 292.057 14.7097C292.057 13.9693 292.007 13.2351 291.913 12.4947C291.813 11.7543 291.713 11.0202 291.619 10.2797C291.419 8.75496 291.15 7.69453 290.806 7.1047C289.973 5.92504 288.697 5.33521 286.982 5.33521H282.709V23.8583H285.8V18.324H289.923V33.6721H285.8V28.0624H282.709V49.9112H287.201C289.066 49.9112 290.368 49.428 291.1 48.468C291.838 47.5142 292.276 46.0961 292.426 44.2262C292.57 42.3563 292.695 39.5515 292.795 35.8118H296.913V53.8956H273.292V49.9865H276.677V5.63013H273.292V1.64565H296.105V18.324ZM259.707 5.63013H249.702V49.9865H253.012V53.8956H240.21V49.9865H243.595V5.63013H240.21V1.64565H269.131V5.63013H265.82V49.9865H269.131V53.8956H256.397V49.9865H259.707V5.63013ZM217.571 34.927L223.09 1.64565H235.967V5.63013H232.582V49.9865H235.967V53.8956H223.165V49.9865H226.475V5.25992L218.528 53.8956H215.143L207.34 5.25992V49.9865H210.726V53.8956H199.544V49.9865H202.929V5.63013H199.544V1.64565H212.346L217.571 34.927ZM187.117 1.64565L174.534 36.7028V5.92504C174.534 5.83092 174.984 5.78072 175.898 5.78072C176.805 5.78072 177.55 5.80582 178.138 5.84975V1.86527H166.806V5.84975H170.191V50.2061H166.806V54.1153H174.315L187.486 18.7695V49.9865H184.101V53.8956H195.289V49.9865H191.904V5.63013H195.289V1.64565H187.117ZM143.391 49.9865V5.63013H146.702V1.64565H133.749C131.246 1.64565 128.743 2.4802 126.24 4.15556C123.738 5.83092 122.486 9.52048 122.486 15.2242C122.486 20.0433 123.763 23.4379 126.316 25.4082C126.66 25.6529 127.517 26.1235 128.893 26.8137C129.382 27.1087 129.87 27.3283 130.364 27.4726C126.391 28.9534 124.232 32.4171 123.888 37.8824L123.443 44.8913C123.3 46.9118 123.03 48.2734 122.636 48.9888C122.242 49.6978 121.36 50.0304 119.989 49.9865V53.8956C121.51 54.7804 123.005 55.1004 124.476 54.8557C127.373 54.2658 129.062 51.4359 129.551 46.3659L130.364 37.2173C130.608 34.3121 131.259 32.1849 132.31 30.8359C133.367 29.4805 135.051 28.9534 137.353 29.2484V49.9865H133.968V53.8956H146.702V49.9865H143.391ZM129.037 15.2995C129.037 12.0492 129.551 9.40754 130.583 7.36824C131.615 5.32266 133.868 4.69519 137.353 5.48581V25.038C131.809 26.0231 129.037 22.7791 129.037 15.2995ZM103.095 23.783V5.55483H106.405V1.64565H93.6778V5.55483H97.063V49.9112H93.6778V53.8956H104.052C106.749 53.8956 109.046 53.6635 110.935 53.1929C112.819 52.7285 114.564 51.3732 116.16 49.1331C117.749 46.8993 118.55 43.4419 118.55 38.7672C118.55 28.7777 114.671 23.783 106.924 23.783H103.095ZM103.095 27.9181C106.674 27.0836 108.995 27.7801 110.047 30.0201C111.104 32.2602 111.63 35.247 111.63 38.9868C111.73 42.9211 111.229 45.9518 110.122 48.0664C109.021 50.181 106.674 50.8963 103.095 50.2061V27.9181ZM70.9953 34.927L76.5142 1.64565H89.3916V5.63013H86.0064V49.9865H89.3916V53.8956H76.5893V49.9865H79.8994V5.25992L71.9527 53.8956H68.5675L60.7648 5.25992V49.9865H64.1499V53.8956H52.9682V49.9865H56.3534V5.63013H52.9682V1.64565H65.7705L70.9953 34.927ZM48.7759 18.324H44.9465C44.9465 17.9287 44.934 17.5271 44.9089 17.1067C44.8839 16.6863 44.8589 16.2847 44.8338 15.8894C44.8151 15.4941 44.7775 15.0988 44.7275 14.7097C44.7275 13.9693 44.6774 13.2351 44.5773 12.4947C44.4834 11.7543 44.3833 11.0202 44.2832 10.2797C44.0892 8.75496 43.8202 7.69453 43.476 7.1047C42.6438 5.92504 41.3673 5.33521 39.6466 5.33521H35.3792V23.8583H38.4702V18.324H42.5938V33.6721H38.4702V28.0624H35.3792V49.9112H39.8719C41.7365 49.9112 43.0318 49.428 43.7701 48.468C44.5085 47.5142 44.9465 46.0961 45.0966 44.2262C45.2406 42.3563 45.3657 39.5515 45.4596 35.8118H49.5831V53.8956H25.962V49.9865H29.3472V5.63013H25.962V1.64565H48.7759V18.324Z" fill="#333333"/>
</svg>
