<svg width="167" height="231" viewBox="0 0 167 231" fill="none" xmlns="http://www.w3.org/2000/svg">
<path d="M143.514 0H0V88.4112L28.6822 114.318H48.9346V154.308C48.9346 165.206 47.0841 173.841 41.0187 175.075L29.2991 176.925V205.196L48.9346 231H137.14V207.664L117.402 181.551V88.4112L136.832 114.318H166.336V30.2243L143.514 0ZM10.7944 10.7944V77.6168H18.5047V66.8224C18.5047 47.3925 22.514 22.2056 41.6355 22.2056C54.7944 22.2056 59.729 33.3084 59.729 51.7103V99.2056C63.1215 96.7383 67.4393 96.7383 71.4486 99.2056C69.5981 103.215 66.2056 109.692 61.8879 114.318C66.2056 124.495 69.5981 138.579 71.757 164.897C74.2243 138.579 77.6168 124.495 81.9346 114.318C77.6168 109.692 74.2243 103.215 72.3738 99.2056C76.6916 96.7383 81.0093 96.7383 83.785 99.2056V51.7103C83.785 33.3084 88.7196 22.2056 101.981 22.2056C121.103 22.2056 125.112 47.3925 125.112 66.8224V77.6168H132.822V10.7944H10.7944ZM5.5514 5.5514H137.963V82.8598H119.869V65.5888C119.869 47.3925 115.243 27.4486 101.981 27.4486C90.2617 27.4486 89.028 45.6449 89.028 57.2617V155.953C89.028 170.14 91.4953 179.084 99.514 180.626L109.075 182.168V199.645H34.5421V182.168L44.4112 180.626C52.0187 179.084 54.486 170.14 54.486 155.953V57.2617C54.486 45.6449 53.2523 27.4486 41.6355 27.4486C28.3738 27.4486 23.7477 47.3925 23.7477 65.5888V82.8598H5.5514V5.5514ZM71.4486 98.8972C69.5981 88.1028 66.2056 81.9346 61.8879 77.3084C66.2056 69.9065 69.5981 58.8037 71.757 35.7757C74.2243 58.8037 77.6168 69.9065 81.6262 77.3084C77.6168 81.9346 74.2243 88.1028 72.3738 98.8972H71.4486Z" fill="#333333"/>
</svg>
