<svg width="500" height="55" viewBox="0 0 500 55" fill="none" xmlns="http://www.w3.org/2000/svg">
<path d="M3.42826 49.916V5.13992H0V1.1214H13.558C14.5537 1.1214 15.7939 1.35393 17.2844 1.82494C18.775 2.29595 20.2536 3.48839 21.7203 5.40226C23.181 7.31612 23.9144 10.0826 23.9144 13.7076C23.9144 16.2892 23.4791 18.5012 22.6086 20.3376C21.7441 22.1799 19.9197 23.8195 17.1353 25.2564C19.1208 25.8049 20.9989 27.1464 22.7577 29.2808C24.5225 31.4153 25.3334 34.9449 25.1843 39.8578C25.0353 45.6232 23.813 49.3973 21.5295 51.186C19.246 52.9746 17.0101 53.863 14.828 53.863H0V49.916H3.42826ZM487.845 40.6031H477.339L475.628 50.0651H478.979V53.863H468.181V50.0651H470.858L480.398 0.227071H486.283L496.192 50.0651H499.393V53.863H486.283V50.0651H489.711L487.845 40.6031ZM482.485 11.4002L478.162 36.2864H487.099L482.485 11.4002ZM451.004 53.863H438.192V49.916H441.62V5.13992H438.192V1.1214H451.004V5.13992H447.654V23.4677C449.395 23.7181 450.629 23.0802 451.451 21.6075C452.018 20.5939 452.376 18.9484 452.495 16.6171C452.727 12.1932 452.966 9.09286 453.169 7.3042C453.365 5.51554 453.95 3.85209 454.916 2.30788C455.887 0.76963 457.491 0.024356 459.721 0.000507183C461.957 -0.0233416 463.585 0.793479 464.604 2.53444C465.624 4.2754 466.065 6.231 465.981 8.41913C465.916 10.3091 465.57 11.6745 464.902 12.5152C464.228 13.3618 463.447 13.7851 462.553 13.7851C461.808 13.7851 461.128 13.3976 460.508 12.6284C459.888 11.8593 459.602 10.7265 459.5 9.24191C459.453 8.49067 459.471 7.6977 459.721 6.85703C459.769 6.70201 459.846 6.53507 459.948 6.33236C460.049 6.13561 460.109 5.93289 460.168 5.73614C460.258 5.48573 460.276 5.26513 460.168 5.06837C459.977 4.7166 459.751 4.496 459.5 4.39465C458.755 4.34695 458.219 4.85373 457.897 5.92693C457.575 6.99416 457.366 8.30585 457.265 9.8739C457.163 11.436 457.116 13.1114 457.116 14.9C457.116 17.583 456.859 19.5565 456.448 20.8622C455.816 22.8357 454.784 24.2666 453.24 25.1073C453.443 25.155 453.64 25.2325 453.836 25.3339C454.039 25.4293 454.2 25.5545 454.361 25.632C455.142 26.0016 455.649 26.2878 455.923 26.4488C459.429 28.5237 461.212 34.468 461.212 44.4069C461.212 46.5414 461.534 47.8948 462.034 48.5745C462.774 49.5881 463.769 50.0651 465.165 49.916V53.863C463.871 54.7573 462.583 55.0793 461.289 54.9839C459.304 54.8348 457.718 53.8988 456.448 52.0803C455.53 50.7686 454.868 48.2526 454.582 44.4785C454.57 44.3294 454.522 43.3993 454.397 41.6822C454.272 39.9711 454.117 38.5223 454.063 37.3239C453.92 34.3487 453.657 32.2262 453.091 30.992C451.97 28.5535 450.14 27.4683 447.654 27.7128V49.916H451.004V53.863ZM425.134 1.00812L412.393 36.3937V5.33071C412.393 5.22935 412.852 5.18165 413.77 5.18165C414.689 5.18165 415.446 5.2055 416.042 5.2532V1.22872H404.571V5.2532H407.999V50.0293H404.571V53.9763H412.173L425.504 18.2925V49.8027H422.076V53.7557H433.404V49.8027H429.976V5.0326H433.404V1.00812H425.134ZM393.463 53.863H381.02V49.916H384.371V4.99086C382.487 4.59736 381.074 5.26513 380.126 7.00609C379.881 7.45325 379.69 8.12102 379.571 9.01535C379.446 9.90968 379.303 10.7503 379.231 11.5493C379.208 11.8474 379.196 12.2588 379.124 12.7775C379.047 13.3022 378.987 13.7851 378.933 14.2323C378.784 15.5738 378.713 16.963 378.713 18.4058H374.915V1.1214H399.646V18.4058H395.771C395.675 16.5158 395.538 15.1266 395.472 14.2323C395.443 13.7851 395.449 13.3379 395.401 12.8908C395.353 12.4436 395.276 11.9964 395.252 11.5493C395.127 9.31346 394.834 7.81098 394.358 7.00609C393.344 5.27705 391.973 4.59736 390.184 4.99086V49.916H393.463V53.863ZM361.72 1.00812L348.979 36.3937V5.33071C348.979 5.22935 349.438 5.18165 350.362 5.18165C351.281 5.18165 352.038 5.2055 352.634 5.2532V1.22872H341.157V5.2532H344.585V50.0293H341.157V53.9763H348.759L362.096 18.2925V49.8027H358.668V53.7557H369.99V49.8027H366.562V5.0326H369.99V1.00812H361.72ZM333.138 49.916V5.13992H336.494V1.1214H311.507V5.13992H314.858L314.393 40.8058C314.297 47.9604 312.514 49.8504 309.223 49.5762V53.5231C310.762 54.4175 312.288 54.7752 313.767 54.489C316.706 53.9345 320.48 51.651 320.575 42.2963L320.969 5.13992H327.032V49.916H323.604V53.863H336.494V49.916H333.138ZM281.994 27.4922C281.994 16.7662 283.401 9.49829 286.203 5.70037C289.011 1.90245 291.903 0.000507183 294.884 0.000507183C297.913 0.000507183 300.835 1.89052 303.637 5.66459C306.445 9.43866 307.846 16.7125 307.846 27.4922C307.846 38.3672 306.445 45.6709 303.637 49.3973C300.835 53.1237 297.913 54.9839 294.884 54.9839C291.903 54.9839 289.011 53.1058 286.203 49.3615C283.401 45.6113 281.994 38.3195 281.994 27.4922ZM288.85 27.4922C288.85 32.4587 288.94 36.3937 289.113 39.3033C289.286 42.2069 289.804 44.9376 290.675 47.4954C291.545 50.0531 292.97 51.3529 294.962 51.335C297.74 51.3052 299.439 49.0753 300.065 44.705C300.685 40.3288 300.995 34.5932 300.995 27.4922C300.995 20.3912 300.685 14.6556 300.065 10.2853C299.445 5.90904 297.74 3.72688 294.962 3.72688C292.97 3.72688 291.533 5.00279 290.639 7.56057C289.745 10.1184 289.22 12.8431 289.077 15.7228C288.928 18.6026 288.85 22.5257 288.85 27.4922ZM269.706 5.13992H259.57V49.916H262.927V53.863H249.959V49.916H253.387V5.13992H249.959V1.1214H279.239V5.13992H275.889V49.916H279.239V53.863H266.349V49.916H269.706V5.13992ZM226.581 49.916V5.13992H229.932V1.1214H216.821C214.287 1.1214 211.753 1.96207 209.219 3.64937C206.685 5.34263 205.421 9.06304 205.421 14.8285C205.421 19.6936 206.703 23.1338 209.297 25.1073C209.637 25.3696 210.525 25.7989 211.902 26.5263C212.415 26.7946 212.898 27.045 213.393 27.1941C209.368 28.6846 207.186 32.1844 206.835 37.6995L206.387 44.7766C206.262 46.8157 205.97 48.1929 205.571 48.9144C205.171 49.6298 204.277 49.9697 202.888 49.916V53.863C204.426 54.7573 205.946 55.115 207.431 54.8348C210.37 54.2744 212.117 51.3887 212.576 46.2671L213.393 37.0257C213.655 34.0983 214.299 31.9519 215.366 30.5866C216.434 29.2153 218.139 28.6846 220.47 28.9827V49.916H217.042V53.863H229.932V49.916H226.581ZM212.051 14.9C212.051 11.6208 212.576 8.95572 213.614 6.89281C214.657 4.82989 216.946 4.19789 220.47 4.99086V24.7377C214.86 25.7274 212.051 22.4482 212.051 14.9ZM197.295 49.916V5.13992H200.646V1.1214H187.535C185.001 1.1214 182.467 1.96207 179.933 3.64937C177.399 5.34263 176.135 9.06304 176.135 14.8285C176.135 19.6936 177.417 23.1338 180.011 25.1073C180.35 25.3696 181.239 25.7989 182.616 26.5263C183.129 26.7946 183.612 27.045 184.107 27.1941C180.082 28.6846 177.9 32.1844 177.548 37.6995L177.101 44.7766C176.976 46.8157 176.684 48.1929 176.284 48.9144C175.885 49.6298 174.99 49.9697 173.601 49.916V53.863C175.139 54.7573 176.666 55.115 178.144 54.8348C181.084 54.2744 182.831 51.3887 183.29 46.2671L184.107 37.0257C184.369 34.0983 185.013 31.9519 186.08 30.5866C187.147 29.2153 188.853 28.6846 191.184 28.9827V49.916H187.756V53.863H200.646V49.916H197.295ZM182.765 14.9C182.765 11.6208 183.29 8.95572 184.333 6.89281C185.371 4.82989 187.66 4.19789 191.184 4.99086V24.7377C185.573 25.7274 182.765 22.4482 182.765 14.9ZM161.838 23.3962V5.13992H158.487V1.1214H171.377V5.13992H168.021V49.916H171.377V53.863H158.487V49.916H161.838V27.7128H151.708V49.916H155.059V53.863H142.097V49.916H145.525V5.13992H142.097V1.1214H155.059V5.13992H151.708V23.3962H161.838ZM111.362 49.8445H101.232V5.06837H104.583V1.1214H91.6211V5.06837H95.0493V49.8445H91.6211V53.863H137.214V49.8445H133.863V5.06837H137.214V1.1214H124.324V5.06837H127.68V49.8445H117.545V5.06837H120.901V1.1214H108.011V5.06837H111.362V49.8445ZM85.6052 17.9586H81.7298C81.7298 17.5592 81.7178 17.1478 81.694 16.7245C81.6702 16.3071 81.6463 15.8957 81.6225 15.4963C81.5986 15.1027 81.5271 14.7033 81.5092 14.3038C81.4794 13.5585 81.4615 12.8133 81.3601 12.068C81.2588 11.3227 81.1574 10.5834 81.062 9.83813C80.8593 8.29392 80.6268 7.20284 80.2452 6.63047C79.4343 5.41418 78.1048 4.84181 76.3698 4.84181H72.0472V23.5452H75.1773V17.9586H79.3509V33.4544H75.1773V27.7903H72.0472V49.8445H76.5904C78.4804 49.8445 79.798 49.3615 80.5373 48.3897C81.2826 47.4238 81.7298 45.9929 81.8788 44.1088C82.0279 42.2188 82.1531 39.3868 82.2545 35.6127H86.428V53.863H62.5136V49.916H65.9359V5.13992H62.5136V1.1214H85.6052V17.9586ZM47.7453 23.3962V5.13992H44.3945V1.1214H57.2788V5.13992H53.9281V49.916H57.2788V53.863H44.3945V49.916H47.7453V27.7128H37.6155V49.916H40.9662V53.863H28.0044V49.916H31.4267V5.13992H28.0044V1.1214H40.9662V5.13992H37.6155V23.3962H47.7453ZM9.68261 49.6954C13.0155 50.1903 15.2632 49.606 16.4258 47.9425C17.5944 46.2791 18.1787 43.4351 18.1787 39.4106C18.1787 38.5163 18.131 37.1748 18.0297 35.3921C17.8329 32.7091 17.4096 30.9205 16.7657 30.0261C16.2172 29.1318 15.3109 28.4342 14.041 27.9394C12.777 27.4445 11.3222 27.3431 9.68261 27.6412V49.6954ZM9.68261 23.2471C13.0632 24.0401 15.2453 23.3962 16.241 21.3094C17.2367 19.2226 17.6839 16.0448 17.5825 11.7699C17.4812 9.09286 16.724 7.08956 15.3109 5.77787C13.8919 4.46023 12.0198 4.09654 9.68261 4.69275V23.2471Z" fill="#333333"/>
</svg>
