<svg width="221" height="231" viewBox="0 0 221 231" fill="none" xmlns="http://www.w3.org/2000/svg">
<path fill-rule="evenodd" clip-rule="evenodd" d="M51.4958 10.7764V17.5501L59.5012 18.7817C65.0433 20.0133 71.5092 25.8634 71.5092 49.2636V99.143C74.5881 96.6798 78.5908 96.6798 82.2856 99.143C80.7461 103.146 77.3592 109.611 73.0487 114.23C77.3592 124.468 80.7461 138.631 82.9014 164.802C85.0566 138.631 88.7514 124.468 92.7541 114.23C88.7514 109.611 85.0566 103.146 83.5172 99.143C89.3672 96.6798 94.9094 96.6798 100.759 99.143C106.609 96.6798 112.767 96.6798 118.617 99.143C124.16 96.6798 130.087 96.6798 135.629 99.143C140.863 96.6798 146.405 96.6798 151.332 99.143C154.103 104.377 155.642 109.919 154.718 115.154C164.571 122.004 173.5 139.247 168.574 164.802C177.811 145.712 177.811 122.004 172.884 111.151C167.65 105.917 159.953 101.606 152.255 99.143C157.49 96.6798 162.108 96.6798 165.495 99.143C172.884 92.3692 185.816 78.8217 185.816 56.961C185.816 24.3239 163.032 10.7764 132.858 10.7764H51.4958ZM24.5548 72.2019L37.1016 82.2856L45.3379 72.2019L58.1156 82.5165L60.7328 86.2113V49.2636C60.7328 35.0233 56.4222 30.7128 50.5721 30.097L40.7194 28.2496V0H135.937C189.511 0 219.377 45.5688 219.377 84.056C219.377 104.069 208.908 118.233 200.595 125.083C212.603 139.247 220.608 155.873 220.608 178.657C220.608 209.447 199.056 231 169.805 231H60.4249L40.7194 205.137V176.81L52.7274 174.963C58.5005 173.808 60.7328 165.341 60.7328 154.795L56.0373 148.637L44.2602 158.259L0 102.299L24.5548 72.2019ZM46.4155 79.5145L27.7108 102.299L44.876 125.545L49.0327 122.312L34.5615 102.299L50.8031 82.9783L46.4155 79.5145ZM25.7094 79.5145L6.92769 102.299L25.4015 125.006L29.5581 121.773L13.8554 102.299L30.02 82.9783L25.7094 79.5145ZM82.2856 98.8351C80.7461 88.0587 77.3592 81.9007 73.3565 77.2822C77.3592 69.8927 80.7461 58.8084 82.9014 35.7161C85.0566 58.8084 88.7514 69.8927 93.3699 77.2822C88.7514 81.9007 85.0566 88.0587 83.5172 98.8351H82.2856ZM95.2173 50.8031C95.2173 33.5608 100.759 22.1686 111.228 22.1686H132.242C148.868 22.1686 159.645 39.7188 159.645 59.7321C159.645 79.1296 150.716 92.0613 126.392 92.0613H95.2173V50.8031ZM151.332 98.8351C156.566 92.3692 161.184 84.9797 162.108 75.127C168.574 68.6611 170.421 56.3452 167.958 35.7161C175.348 48.032 177.503 64.3506 177.195 77.2822C172.884 84.6718 163.34 91.7534 152.255 98.8351H151.332ZM143.018 58.8084C146.097 58.8084 146.713 63.7348 146.713 69.2769C146.713 76.3586 139.324 80.6691 134.089 80.6691H128.855V69.8927C128.855 64.3505 131.318 58.8084 135.013 58.8084H143.018ZM128.547 178.042C145.174 178.042 154.103 158.336 154.103 141.094C154.103 121.696 143.942 108.072 127.623 108.072H100.759V155.873C100.759 170.036 104.762 178.042 111.228 178.042H128.547ZM65.967 49.2636C65.967 34.7154 62.2722 25.7864 56.1143 24.5548L46.2616 23.0153V5.54215H133.166C171.037 5.54215 191.05 25.1706 191.05 56.961C191.05 80.0533 179.966 93.9087 173.5 98.8351V99.143C186.432 109.919 192.282 124.16 192.282 141.402C192.282 179.966 171.961 199.594 141.171 199.594H46.2616V182.121L56.1143 180.582C63.5038 179.042 65.967 170.036 65.967 155.873V49.2636ZM100.759 86.8271H128.547C145.482 86.8271 154.103 76.3586 154.103 59.7321C154.103 40.3346 143.326 27.4029 133.166 27.4029H111.228C104.762 27.4029 100.759 35.7161 100.759 50.8031V86.8271ZM128.855 138.939L139.324 139.247C144.25 139.247 147.021 144.173 147.021 149.715C147.021 160.492 138.708 171.268 133.474 171.268C130.702 171.268 128.855 166.342 128.855 159.568V138.939Z" fill="#333333"/>
</svg>
