<svg width="288" height="66" viewBox="0 0 288 66" fill="none" xmlns="http://www.w3.org/2000/svg">
<path d="M30.775 28.8959C30.775 17.6301 32.2459 10.0018 35.1991 6.01086C38.1409 2.01995 41.1854 0.024494 44.3096 0.024494C47.4909 0.024494 50.5581 1.99715 53.5113 5.96525C56.4532 9.93336 57.9355 17.5731 57.9355 28.8959C57.9355 40.3213 56.4532 47.9839 53.5113 51.9064C50.5581 55.8175 47.4909 57.7673 44.3096 57.7673C41.1854 57.7673 38.1409 55.7947 35.1991 51.8608C32.2459 47.9269 30.775 40.2643 30.775 28.8959ZM91.7777 28.8959C91.7777 17.6301 93.26 10.0018 96.2019 6.01086C99.1551 2.01995 102.188 0.024494 105.324 0.024494C108.505 0.024494 111.561 1.99715 114.514 5.96525C117.456 9.93336 118.938 17.5731 118.938 28.8959C118.938 40.3213 117.456 47.9839 114.514 51.9064C111.561 55.8175 108.505 57.7673 105.324 57.7673C102.188 57.7673 99.1551 55.7947 96.2019 51.8608C93.26 47.9269 91.7777 40.2643 91.7777 28.8959ZM98.984 28.8959C98.984 34.1069 99.0752 38.246 99.2577 41.3019C99.4401 44.3464 99.9874 47.2199 100.9 49.9109C101.812 52.5905 103.306 53.936 105.392 53.936C108.323 53.879 110.101 51.5643 110.751 46.969C111.413 42.3852 111.732 36.3532 111.732 28.8959C111.732 21.4386 111.413 15.4066 110.751 10.8228C110.101 6.22751 108.323 3.93559 105.392 3.93559C103.306 3.93559 101.8 5.2811 100.854 7.96071C99.919 10.6517 99.3717 13.5024 99.2121 16.5355C99.0638 19.5572 98.984 23.6735 98.984 28.8959ZM284.432 52.4309V5.40653H287.956V1.17616H274.182C271.525 1.17616 268.857 2.06556 266.2 3.83297C263.543 5.61177 262.209 9.52287 262.209 15.5777C262.209 20.686 263.566 24.2892 266.28 26.3759C266.645 26.6382 267.557 27.1285 269.016 27.8583C269.541 28.1775 270.065 28.4056 270.578 28.5652C266.359 30.1274 264.056 33.8104 263.691 39.603L263.224 47.0375C263.064 49.1697 262.779 50.6179 262.369 51.3819C261.947 52.1344 261.012 52.4879 259.552 52.4309V56.5814C261.171 57.5165 262.756 57.8585 264.318 57.5963C267.397 56.9691 269.199 53.9702 269.723 48.5996L270.578 38.896C270.841 35.8173 271.536 33.5596 272.654 32.1228C273.782 30.6975 275.561 30.1274 278.013 30.4467V52.4309H274.421V56.5814H287.956V52.4309H284.432ZM269.176 15.6575C269.176 12.2139 269.723 9.40884 270.818 7.24235C271.912 5.07585 274.307 4.4145 278.013 5.24689V25.9882C272.118 27.0259 269.176 23.5823 269.176 15.6575ZM247.842 1.17616L234.456 38.3487V5.7144C234.456 5.61177 234.946 5.55476 235.904 5.55476C236.873 5.55476 237.671 5.58897 238.287 5.63458V1.41561H226.246V5.63458H229.838V52.6703H226.246V56.8095H234.228L248.23 19.3291V52.4309H244.627V56.5814H256.519V52.4309H252.928V5.40653H256.519V1.17616H247.842ZM211.275 5.40653H207.763V1.17616H221.297V5.40653H217.774C217.774 21.0851 217.774 36.7523 217.774 52.4309H222.894V66H218.823L218.276 63.3888C217.512 59.7172 217.557 56.7981 213.452 56.5814H190.545V52.4309H194.137V5.40653H190.545V1.17616H204.16V5.40653H200.636V52.4309H211.275V5.40653ZM175.87 42.6475H164.833L163.031 52.5905H166.555V56.5814H155.209V52.5905H158.026L168.048 0.241144H174.228L184.639 52.5905H188.002V56.5814H174.228V52.5905H177.831L175.87 42.6475ZM170.237 11.9744L165.699 38.1092H175.083L170.237 11.9744ZM142.541 24.5857V5.41793H139.018V1.19896H152.564V5.41793H149.04V52.4537H152.564V56.5928H139.018V52.4537H142.541V29.124H131.903V52.4537H135.426V56.5928H121.812V52.4537H125.403V5.41793H121.812V1.19896H135.426V5.41793H131.903V24.5857H142.541ZM70.4895 33.1149V52.4537H74.0128V56.5928H60.4782V52.4537H64.0814V5.41793H60.4782V1.19896H71.5157C74.3777 1.19896 76.8178 1.43842 78.8246 1.94013C80.8314 2.43044 82.69 3.86717 84.3776 6.23892C86.0765 8.61066 86.9203 12.2823 86.9203 17.231C86.9203 27.8241 82.8041 33.1149 74.5601 33.1149H70.4895ZM70.4895 28.7363C74.2979 29.6257 76.7608 28.8845 77.8896 26.5128C79.0071 24.1296 79.5658 20.9597 79.5658 17.003C79.6798 12.8296 79.1439 9.61409 77.9694 7.37918C76.795 5.13286 74.2979 4.38029 70.4895 5.11006V28.7363ZM13.4548 56.5814H0V52.4309H3.60315V5.40653H0V1.17616H13.4548V5.40653H9.94287V24.6541C11.7673 24.9164 13.0899 24.2664 13.9337 22.6929C14.5494 21.6552 14.9143 19.9106 15.0283 17.4591C15.2906 12.8068 15.5186 9.54567 15.7239 7.67565C15.9405 5.79421 16.5448 4.04962 17.5711 2.43044C18.5859 0.811274 20.262 0.00168876 22.6109 0.00168876C24.9598 -0.0439217 26.6702 0.834079 27.742 2.6699C28.8138 4.49432 29.2927 6.54679 29.1901 8.85011C29.1331 10.8342 28.7568 12.2595 28.0498 13.1489C27.3543 14.0383 26.5219 14.483 25.5869 14.483C24.8002 14.483 24.0932 14.0725 23.4319 13.2629C22.7819 12.4647 22.4285 11.2675 22.3829 9.70531C22.2802 8.92993 22.3487 8.08614 22.6109 7.20814C22.6679 7.0485 22.7477 6.86606 22.8504 6.66081C22.953 6.44416 23.0328 6.23892 23.0784 6.03367C23.1924 5.77141 23.1924 5.53196 23.0784 5.32671C22.8732 4.96182 22.6451 4.72237 22.3829 4.61975C21.5961 4.57414 21.0374 5.09866 20.6953 6.22751C20.3532 7.34497 20.1366 8.72469 20.034 10.3781C19.9314 12.02 19.8743 13.776 19.8743 15.6575C19.8743 18.4739 19.6463 20.5606 19.1674 21.9175C18.5403 24.0042 17.4228 25.4865 15.8037 26.3759C16.0203 26.4215 16.2256 26.5014 16.4308 26.6154C16.6361 26.718 16.8185 26.8206 16.9781 26.9233C17.8105 27.2881 18.3578 27.5732 18.6201 27.7784C22.3259 29.9221 24.1844 36.205 24.1844 46.6384C24.1844 48.8847 24.4695 50.3442 25.0396 51.0284C25.7694 52.123 26.864 52.5905 28.3235 52.4309V56.5814C26.9666 57.5165 25.6097 57.9155 24.2529 57.7559C22.1662 57.6533 20.4787 56.6271 19.1674 54.7C18.1754 53.3431 17.5255 50.6863 17.2176 46.7182C17.2176 46.5585 17.1492 45.5893 17.0237 43.7877C16.8869 41.9861 16.7729 40.4582 16.6703 39.2039C16.5677 36.0795 16.2256 33.856 15.6555 32.5561C14.4468 30.002 12.5426 28.8503 9.94287 29.1126V52.4309H13.4548V56.5814ZM37.9813 28.8959C37.9813 34.1069 38.0725 38.246 38.255 41.3019C38.4374 44.3464 38.9847 47.2199 39.8969 49.9109C40.8091 52.5905 42.3028 53.936 44.3894 53.936C47.3085 53.879 49.0986 51.5643 49.7486 46.969C50.4099 42.3852 50.7292 36.3532 50.7292 28.8959C50.7292 21.4386 50.4099 15.4066 49.7486 10.8228C49.0986 6.22751 47.3085 3.93559 44.3894 3.93559C42.3028 3.93559 40.7977 5.2811 39.8513 7.96071C38.9163 10.6517 38.369 13.5024 38.2094 16.5355C38.0497 19.5572 37.9813 23.6735 37.9813 28.8959Z" fill="#333333"/>
</svg>
