<svg width="170" height="231" viewBox="0 0 170 231" fill="none" xmlns="http://www.w3.org/2000/svg">
<path d="M147.165 0H0V28.2897L9.85586 30.1358C15.7131 30.747 20.0296 35.0626 20.0296 49.2319V154.359C20.0296 165.141 17.8653 173.76 12.0202 174.995L0 176.841V205.131L19.7117 231H108.745V207.026L88.1036 179.702V65.0027C88.1036 62.5699 88.7883 58.8289 90.6837 58.8289H118.466C118.649 60.9317 118.747 63.1323 118.772 65.4184L118.857 72.2891L151.702 99.2707H169.959V30.1847L147.165 0ZM80.3998 199.581H5.53934V182.135L15.4074 180.594C22.7932 179.054 25.2633 170.068 25.2633 155.85V49.2319C25.2633 34.757 21.5704 25.7713 15.4074 24.5365L5.53934 22.9961V5.53813H141.626V67.8513H123.443V65.6018C123.443 47.4348 118.821 27.4095 105.578 27.4095H70.544C64.0753 27.4095 60.0767 35.7228 60.0767 50.8212V155.85C60.0767 170.007 64.1609 179.592 70.544 180.594L80.3998 182.135V199.581ZM10.7852 10.7829V17.5558L18.7946 18.7905C24.3339 20.0253 30.8026 25.8691 30.8026 49.2808V99.1729C33.8841 96.7156 37.8949 96.7156 41.5878 99.1729C40.0471 103.183 36.6599 109.65 32.3434 114.271C36.6599 124.431 40.0471 138.6 42.1992 164.775C44.3636 138.6 48.0565 124.431 52.0673 114.271C48.0565 109.65 44.3636 103.183 42.8228 99.1729C46.797 97.498 50.441 96.8012 54.5251 99.1729V50.8212C54.5251 33.5711 60.0767 22.177 70.544 22.177H105.578C123.259 22.177 128.689 43.7916 128.689 61.9708V62.6188H136.38V10.7829H10.7852ZM41.5878 98.8673C40.0471 88.0844 36.6599 81.9228 32.6491 77.3138C36.6599 69.9174 40.0471 58.8289 42.1992 35.7228C44.3636 58.8289 48.0565 69.9174 52.6787 77.3138C48.0565 81.9228 44.3636 88.0844 42.8228 98.8673H41.5878Z" fill="#333333"/>
</svg>
