<svg width="281" height="114" viewBox="0 0 281 114" fill="none" xmlns="http://www.w3.org/2000/svg">
<path fill-rule="evenodd" clip-rule="evenodd" d="M0 23.4858H281V88.5233H0V23.4858ZM218.087 8.44308L222.856 0.516171H217.237L213.91 6.12031H210.916V0.516171H205.963V16.4806H210.916V10.7658H213.8L217.089 16.4806H222.782L218.087 8.44308ZM186.261 0C188.738 0 191.067 0.995472 192.73 2.7652L189.034 5.86223C188.331 5.19858 187.333 4.79301 186.261 4.79301C184.154 4.79301 182.38 6.45213 182.38 8.47995C182.38 10.5446 184.154 12.2038 186.261 12.2038C187.333 12.2038 188.331 11.7982 189.034 11.1345L192.73 14.2316C191.067 16.0013 188.738 16.9968 186.261 16.9968C181.419 16.9968 177.501 13.1992 177.501 8.47995C177.501 3.79754 181.419 0 186.261 0ZM244.627 0C246.993 0 249.1 0.958603 250.653 2.47025C252.205 4.01876 253.129 6.15718 253.129 8.47995C253.129 10.8396 252.205 12.978 250.653 14.4897C249.1 16.0382 246.993 16.9968 244.627 16.9968C242.262 16.9968 240.155 16.0382 238.602 14.4897C237.05 12.978 236.126 10.8396 236.126 8.47995C236.126 6.15718 237.05 4.01876 238.602 2.47025C240.155 0.958603 242.262 0 244.627 0ZM247.252 5.86223C246.587 5.19858 245.662 4.79301 244.627 4.79301C243.592 4.79301 242.668 5.19858 242.003 5.86223C241.301 6.52587 240.894 7.48448 240.894 8.47995C240.894 9.51229 241.301 10.434 242.003 11.1345C242.668 11.7982 243.592 12.2038 244.627 12.2038C245.662 12.2038 246.587 11.7982 247.252 11.1345C247.917 10.434 248.361 9.51229 248.361 8.47995C248.361 7.48448 247.917 6.52587 247.252 5.86223ZM281 11.8351H271.352V10.6552H277.858V6.26779H271.352V5.16171H281V0.479301H266.362V16.5175H281V11.8351ZM164.268 11.8351H154.583V10.6552H161.126V6.26779H154.583V5.16171H164.268V0.479301H149.63V16.5175H164.268V11.8351ZM68.4203 0C70.749 0 72.8929 0.958603 74.4454 2.47025C75.9609 4.01876 76.922 6.15718 76.922 8.47995C76.922 10.8396 75.9609 12.978 74.4454 14.4897C72.8929 16.0382 70.749 16.9968 68.4203 16.9968C66.0546 16.9968 63.9476 16.0382 62.3952 14.4897C60.8427 12.978 59.8816 10.8396 59.8816 8.47995C59.8816 6.15718 60.8427 4.01876 62.3952 2.47025C63.9476 0.958603 66.0546 0 68.4203 0ZM71.0447 5.86223C70.3794 5.19858 69.4553 4.79301 68.4203 4.79301C67.3853 4.79301 66.4612 5.19858 65.7958 5.86223C65.0935 6.52587 64.6869 7.48448 64.6869 8.47995C64.6869 9.51229 65.0935 10.434 65.7958 11.1345C66.4612 11.7982 67.3853 12.2038 68.4203 12.2038C69.4553 12.2038 70.3794 11.7982 71.0447 11.1345C71.7101 10.434 72.1167 9.51229 72.1167 8.47995C72.1167 7.48448 71.7101 6.52587 71.0447 5.86223ZM16.5229 5.16171V0.516171H0V5.16171H5.80334V16.4806H10.7195V5.16171H16.5229ZM46.6485 11.6876C46.6485 10.2497 46.168 9.10673 45.17 8.36934C46.0201 7.66882 46.4267 6.59961 46.4267 5.23545C46.4267 2.13842 44.2828 0.516171 40.2538 0.516171H29.756V16.4806H40.4755C44.5046 16.4806 46.6485 14.7846 46.6485 11.6876ZM34.7092 5.16171H40.4755C41.1778 5.16171 41.5475 5.38292 41.5475 5.82536C41.5475 6.26779 41.1778 6.489 40.4755 6.489H34.7092V5.16171ZM41.7693 11.1714C41.7693 11.6138 41.3996 11.8351 40.6973 11.8351H34.7092V10.5078H40.6973C41.3996 10.5078 41.7693 10.729 41.7693 11.1714ZM106.974 5.97283C106.974 2.39651 104.867 0.516171 100.838 0.516171H90.1551V16.4806H95.1083V11.4664H100.838C104.867 11.4664 106.974 9.58603 106.974 5.97283ZM102.021 5.97283C102.021 6.52587 101.651 6.82083 100.912 6.82083H95.1083V5.16171H100.912C101.651 5.16171 102.021 5.49353 102.021 5.97283ZM136.397 0.516171H131.481V6.08344H128.228C125.456 6.0097 125.234 5.75162 125.16 3.02329V0.516171H120.207V3.13389C120.318 9.32794 121.685 10.6552 127.858 10.7658H131.481V16.4806H136.397V0.516171ZM256.419 111.603V95.4916H251.355L244.591 103.308V95.4916H239.6V111.603H243.925L251.466 102.939V111.603H256.419ZM8.53868 95.0123C10.9044 95.0123 13.0483 95.9709 14.6008 97.5194C16.1533 99.0679 17.1143 101.206 17.1143 103.529C17.1143 105.889 16.1533 108.027 14.6008 109.576C13.0483 111.124 10.9044 112.083 8.53868 112.083C6.17298 112.083 4.06604 111.124 2.51355 109.576C0.961063 108.027 0 105.889 0 103.529C0 101.206 0.961063 99.0679 2.51355 97.5194C4.06604 95.9709 6.17298 95.0123 8.53868 95.0123ZM11.2001 100.911C10.5347 100.248 9.57367 99.8053 8.53868 99.8053C7.50368 99.8053 6.57959 100.248 5.91423 100.911C5.24888 101.575 4.80531 102.534 4.80531 103.529C4.80531 104.561 5.24888 105.52 5.91423 106.184C6.57959 106.847 7.50368 107.29 8.53868 107.29C9.57367 107.29 10.5347 106.847 11.2001 106.184C11.8654 105.52 12.309 104.561 12.309 103.529C12.309 102.534 11.8654 101.575 11.2001 100.911ZM281 106.884H271.279V105.741H277.821V101.317H271.279V100.174H281V95.4916H266.325V111.603H281V106.884ZM43.9871 106.552C43.9871 103.197 41.9171 101.538 37.7772 101.538H31.9738V100.174H42.102V95.4916H26.9837V111.603H37.7772C41.9171 111.603 43.9871 109.907 43.9871 106.552ZM39.0709 106.221C39.0709 106.663 38.7013 106.884 37.9989 106.884H31.9738V105.557H37.9989C38.7013 105.557 39.0709 105.815 39.0709 106.221ZM71.5622 106.221C71.5622 102.681 69.4553 100.838 65.3892 100.838H60.2882V95.4916H52.7106V100.174H55.2981V111.603H65.3892C69.4553 111.603 71.5622 109.723 71.5622 106.221ZM66.5721 106.221C66.5721 106.7 66.2764 106.884 65.5001 106.884H60.2882V105.52H65.5001C66.2764 105.52 66.5721 105.741 66.5721 106.221ZM125.456 106.884H123.644V95.4916H110.559L109.339 104.156C109.081 105.889 108.933 106.479 108.157 106.81C107.787 106.958 107.159 107.032 106.308 107.032H106.013V114H110.781V111.603H120.65V114H125.456V106.884ZM118.691 106.884H113.775C113.96 106.405 114.108 105.778 114.219 105.004L114.884 100.174H118.691V106.884ZM152.144 111.603V95.4916H147.08L140.315 103.308V95.4916H135.325V111.603H139.65L147.154 102.939V111.603H152.144ZM178.647 95.4916H173.694V101.169H167.003V95.4916H162.013V111.603H167.003V105.852H173.694V111.603H178.647V95.4916ZM96.1063 106.884H86.4217V105.741H92.9644V101.317H86.4217V100.174H96.1063V95.4916H81.4316V111.603H96.1063V106.884ZM203.228 106.884H193.506V105.741H200.049V101.317H193.506V100.174H203.228V95.4916H188.553V111.603H203.228V106.884ZM229.731 95.4916H224.778V101.169H218.087V95.4916H213.097V111.603H218.087V105.852H224.778V111.603H229.731V95.4916ZM116.326 37.9385C126.269 47.8564 126.306 64.1526 116.326 74.0705C106.382 83.9884 90.0442 83.9884 80.1009 74.0705C70.1576 64.1526 70.1576 47.8564 80.1009 37.9385C90.0442 28.0207 106.382 28.0207 116.326 37.9385ZM239.379 81.555H225.887V30.4541H239.379V49.2574H259.154V30.4541H272.646V81.555H259.154V62.7516H239.379V81.555ZM45.3548 66.5491C48.0162 66.4017 50.4188 65.2587 52.2301 63.4521C54.1522 61.5349 55.3351 58.9172 55.3351 56.0045C55.3351 53.0918 54.1522 50.4741 52.2301 48.5569C50.4188 46.7503 48.0162 45.6074 45.3548 45.4599V66.5491ZM31.8629 45.4599C29.1646 45.6074 26.7619 46.7503 24.9507 48.5569C23.0285 50.4741 21.8457 53.0918 21.8457 56.0045C21.8457 58.9172 23.0285 61.5349 24.9507 63.4521C26.7619 65.2587 29.1646 66.4017 31.8629 66.5491V45.4599ZM31.8629 81.555V80.0065C18.8516 79.7115 8.35386 69.0194 8.35386 56.0045C8.35386 42.9896 18.8516 32.2975 31.8629 32.0026V30.4541H45.3548V32.0026C58.3291 32.2975 68.8269 42.9896 68.8269 56.0045C68.8269 69.0194 58.3291 79.7115 45.3548 80.0065V81.555H31.8629ZM140.426 81.555V43.9114H123.792V30.4541H170.552V43.9114H153.918V81.555H140.426ZM214.28 37.9385C224.223 47.8564 224.223 64.1526 214.28 74.0705C204.3 83.9884 187.999 83.9884 178.018 74.0705C168.075 64.1526 168.075 47.8564 178.018 37.9385C187.999 28.0207 204.3 28.0207 214.28 37.9385ZM204.706 47.4508C200.012 42.7684 192.287 42.7684 187.592 47.4508C182.861 52.1332 182.861 59.8758 187.592 64.5582C192.287 69.2406 200.012 69.2406 204.706 64.5582C209.438 59.8758 209.438 52.1332 204.706 47.4508ZM106.789 47.4508C102.094 42.7684 94.369 42.7684 89.6376 47.4508C84.9432 52.1332 84.9432 59.8758 89.6376 64.5582C94.369 69.2406 102.094 69.2406 106.789 64.5582C111.52 59.8758 111.52 52.1332 106.789 47.4508Z" fill="white"/>
</svg>
