<svg width="408" height="525" viewBox="0 0 408 525" fill="none" xmlns="http://www.w3.org/2000/svg">
<path d="M203.751 0C260.143 0 311.501 29.5389 348.424 77.2038C385.012 124.533 407.502 189.989 407.502 262.157C407.502 334.326 385.012 399.781 348.424 447.111C311.501 494.776 260.143 524.315 203.751 524.315C147.359 524.315 96.3369 494.776 59.4134 447.111C22.8255 399.781 0 334.326 0 262.157C0 189.989 22.8255 124.533 59.4134 77.2038C96.3369 29.5389 147.359 0 203.751 0ZM203.751 13.4268C256.451 13.4268 304.116 41.2873 338.69 86.2669C373.264 131.246 394.411 193.345 394.411 262.157C394.411 330.634 373.264 393.068 338.69 438.048C304.116 483.027 256.451 510.888 203.751 510.888C151.051 510.888 103.386 483.027 68.8121 438.048C34.5739 393.068 13.0911 330.634 13.0911 262.157C13.0911 193.345 34.5739 131.246 68.8121 86.2669C103.386 41.2873 151.051 13.4268 203.751 13.4268ZM337.011 87.6096C302.773 43.3013 255.78 15.7764 203.751 15.7764C151.722 15.7764 104.729 43.3013 70.8261 87.6096C36.5879 132.253 15.4408 194.017 15.4408 262.157C15.4408 330.298 36.5879 392.061 70.8261 436.369C104.729 481.013 151.722 508.538 203.751 508.538C255.78 508.538 302.773 481.013 337.011 436.369C370.914 392.061 392.061 330.298 392.061 262.157C392.061 194.017 370.914 132.253 337.011 87.6096ZM340.704 83.2459C305.459 37.5949 257.122 9.73439 203.751 9.73439C150.38 9.73439 102.043 37.5949 66.7981 83.2459C31.5529 128.897 9.73439 192.003 9.73439 262.157C9.73439 331.976 31.5529 395.418 66.7981 441.069C102.043 486.72 150.38 514.58 203.751 514.58C257.122 514.58 305.459 486.72 340.704 441.069C375.949 395.418 398.103 331.976 398.103 262.157C398.103 192.003 375.949 128.897 340.704 83.2459Z" fill="#9D7818"/>
</svg>
