<svg width="142" height="5" viewBox="0 0 142 5" fill="none" xmlns="http://www.w3.org/2000/svg">
<path d="M0.9936 2.22749C0.557385 2.22749 0 2.22749 0 2.63033C0 2.91469 0.557385 3.05687 0.9936 3.05687L55.5931 5C56.7321 5 57.5803 4.17062 57.8711 3.31754H59.2767C59.5675 4.17062 60.4157 5 61.9667 5H64.6567C66.0865 5 66.9347 4.17062 67.2255 3.31754H68.3645C68.6311 4.43128 69.7701 5 70.9091 5C72.0481 5 73.1871 4.43128 73.4537 3.31754H74.5927C74.8835 4.17062 75.7317 5 77.1373 5H79.8515C81.4025 5 82.2507 4.17062 82.5415 3.31754H83.9471C84.2379 4.17062 85.0861 5 86.2251 5L140.825 3.05687C141.261 3.05687 141.818 2.91469 141.818 2.63033C141.818 2.22749 141.261 2.22749 140.825 2.22749L86.5159 0C85.0861 0 84.2379 0.829384 83.9471 1.94313H82.5415C82.2507 0.829384 81.1117 0 79.9727 0H77.1373C76.0225 0 75.0289 0.687204 74.5927 1.94313H73.4537C73.0417 0.829384 72.0481 0 70.9091 0C69.7701 0 68.7765 0.829384 68.3645 1.94313H67.2255C66.7893 0.687204 65.7957 0 64.6567 0H61.8213C60.7065 0 59.5675 0.829384 59.2767 1.94313H57.8711C57.5803 0.829384 56.7321 0 55.3023 0L0.9936 2.22749ZM81.6933 2.48815C81.6933 3.31754 80.8451 4.17062 79.9727 4.17062H77.2827C76.2891 4.17062 75.4409 3.31754 75.4409 2.48815H81.6933ZM72.6055 2.48815C72.6055 3.6019 71.7573 4.17062 70.9091 4.17062C70.0609 4.17062 69.2127 3.6019 69.2127 2.48815H72.6055ZM66.3773 2.48815C66.3773 3.31754 65.5291 4.17062 64.6567 4.17062H61.9667C60.9731 4.17062 60.1249 3.31754 60.1249 2.48815H66.3773ZM120.25 2.48815C120.25 2.91469 119.692 3.05687 119.256 3.05687L86.5159 3.88626C85.6677 3.88626 85.0861 3.31754 85.0861 2.48815H120.25ZM56.7321 2.48815C56.7321 3.31754 56.1505 3.88626 55.3023 3.88626L22.5377 3.05687C22.1258 3.05687 21.5684 2.91469 21.5684 2.48815H56.7321Z" fill="#333333"/>
</svg>
