<svg width="365" height="5" viewBox="0 0 365 5" fill="none" xmlns="http://www.w3.org/2000/svg">
<path d="M0.962564 2.22202C0.550604 2.22202 0 2.22202 0 2.63907C0 2.9169 0.550604 3.05597 0.962564 3.05597L166.49 5C167.59 5 168.415 4.16698 168.69 3.33287H170.066C170.34 4.16698 171.166 5 172.678 5H175.292C176.667 5 177.492 4.16698 177.768 3.33287H178.868C179.143 4.44388 180.244 5 181.344 5C182.444 5 183.544 4.44388 183.819 3.33287H184.919C185.194 4.16698 186.019 5 187.395 5H190.008C191.521 5 192.346 4.16698 192.622 3.33287H193.996C194.272 4.16698 195.097 5 196.198 5L364.037 3.05597C364.45 3.05597 365 2.9169 365 2.63907C365 2.22202 364.45 2.22202 364.037 2.22202L196.472 0C195.097 0 194.272 0.834104 193.996 1.94496H192.622C192.346 0.834104 191.246 0 190.146 0H187.395C186.295 0 185.332 0.695036 184.919 1.94496H183.819C183.407 0.834104 182.444 0 181.344 0C180.244 0 179.28 0.834104 178.868 1.94496H177.768C177.355 0.695036 176.392 0 175.292 0H172.541C171.44 0 170.34 0.834104 170.066 1.94496H168.69C168.415 0.834104 167.59 0 166.214 0L0.962564 2.22202ZM191.796 2.5C191.796 3.33287 190.971 4.16698 190.146 4.16698H187.532C186.57 4.16698 185.745 3.33287 185.745 2.5H191.796ZM182.994 2.5C182.994 3.61101 182.169 4.16698 181.344 4.16698C180.518 4.16698 179.693 3.61101 179.693 2.5H182.994ZM176.942 2.5C176.942 3.33287 176.117 4.16698 175.292 4.16698H172.678C171.716 4.16698 170.891 3.33287 170.891 2.5H176.942ZM344.094 2.5C344.094 2.9169 343.544 3.05597 343.131 3.05597L196.472 3.88899C195.647 3.88899 195.097 3.33287 195.097 2.5H344.094ZM167.59 2.5C167.59 3.33287 167.039 3.88899 166.214 3.88899L21.8687 3.05597C21.4557 3.05597 20.9062 2.9169 20.9062 2.5H167.59Z" fill="#333333"/>
</svg>
