<svg width="811" height="11" viewBox="0 0 811 11" fill="none" xmlns="http://www.w3.org/2000/svg">
<path d="M2.13827 4.88844C1.22313 4.88844 0 4.88844 0 5.80595C0 6.41717 1.22313 6.72313 2.13827 6.72313L369.845 11C372.289 11 374.121 9.16735 374.733 7.33232H377.789C378.398 9.16735 380.233 11 383.592 11H389.398C392.454 11 394.286 9.16735 394.898 7.33232H397.342C397.954 9.77653 400.398 11 402.842 11C405.286 11 407.73 9.77653 408.34 7.33232H410.784C411.396 9.16735 413.228 11 416.284 11H422.09C425.451 11 427.284 9.16735 427.895 7.33232H430.949C431.56 9.16735 433.393 11 435.839 11L808.683 6.72313C809.6 6.72313 810.821 6.41717 810.821 5.80595C810.821 4.88844 809.6 4.88844 808.683 4.88844L436.449 0C433.393 0 431.56 1.83503 430.949 4.27891H427.895C427.284 1.83503 424.84 0 422.395 0H416.284C413.84 0 411.701 1.52908 410.784 4.27891H408.34C407.425 1.83503 405.286 0 402.842 0C400.398 0 398.257 1.83503 397.342 4.27891H394.898C393.98 1.52908 391.842 0 389.398 0H383.286C380.842 0 378.398 1.83503 377.789 4.27891H374.733C374.121 1.83503 372.289 0 369.233 0L2.13827 4.88844ZM426.061 5.5C426.061 7.33232 424.228 9.16734 422.395 9.16734H416.59C414.451 9.16734 412.619 7.33232 412.619 5.5H426.061ZM406.507 5.5C406.507 7.94422 404.674 9.16734 402.842 9.16734C401.007 9.16734 399.174 7.94422 399.174 5.5H406.507ZM393.063 5.5C393.063 7.33232 391.231 9.16734 389.398 9.16734H383.592C381.454 9.16734 379.621 7.33232 379.621 5.5H393.063ZM764.38 5.5C764.38 6.41718 763.159 6.72313 762.242 6.72313L436.449 8.55578C434.616 8.55578 433.393 7.33232 433.393 5.5H764.38ZM372.289 5.5C372.289 7.33232 371.066 8.55578 369.233 8.55578L48.5798 6.72313C47.6623 6.72313 46.4415 6.41718 46.4415 5.5H372.289Z" fill="#333333"/>
</svg>
